<?xml version="1.0" encoding="UTF-8" standalone="no"?>
<svg
   width="104mm"
   height="78mm"
   viewBox="0 0 104 78"
   version="1.1"
   id="svg8"
   inkscape:version="1.2.2 (732a01da63, 2022-12-09)"
   sodipodi:docname="perceptron.svg"
   xmlns:inkscape="http://www.inkscape.org/namespaces/inkscape"
   xmlns:sodipodi="http://sodipodi.sourceforge.net/DTD/sodipodi-0.dtd"
   xmlns="http://www.w3.org/2000/svg"
   xmlns:svg="http://www.w3.org/2000/svg"
   xmlns:rdf="http://www.w3.org/1999/02/22-rdf-syntax-ns#"
   xmlns:cc="http://creativecommons.org/ns#"
   xmlns:dc="http://purl.org/dc/elements/1.1/">
  <defs
     id="defs2">
    <rect
       x="-2.0045216"
       y="-10.423512"
       width="25.123337"
       height="19.777945"
       id="rect1344" />
    <inkscape:path-effect
       effect="bspline"
       id="path-effect1287"
       is_visible="true"
       lpeversion="1"
       weight="33.333333"
       steps="2"
       helper_size="0"
       apply_no_weight="true"
       apply_with_weight="true"
       only_selected="false" />
    <inkscape:path-effect
       effect="bspline"
       id="path-effect1283"
       is_visible="true"
       lpeversion="1"
       weight="33.333333"
       steps="2"
       helper_size="0"
       apply_no_weight="true"
       apply_with_weight="true"
       only_selected="false" />
    <inkscape:path-effect
       effect="bspline"
       id="path-effect1279"
       is_visible="true"
       lpeversion="1"
       weight="33.333333"
       steps="2"
       helper_size="0"
       apply_no_weight="true"
       apply_with_weight="true"
       only_selected="false" />
    <marker
       style="overflow:visible"
       id="marker1203"
       refX="0"
       refY="0"
       orient="auto"
       inkscape:stockid="Arrow1Mend"
       inkscape:isstock="true">
      <path
         transform="matrix(-0.4,0,0,-0.4,-4,0)"
         style="fill:#ffffff;fill-opacity:1;fill-rule:evenodd;stroke:#ffffff;stroke-width:1pt;stroke-opacity:1"
         d="M 0,0 5,-5 -12.5,0 5,5 Z"
         id="path1201" />
    </marker>
    <marker
       style="overflow:visible"
       id="Arrow1Send"
       refX="0"
       refY="0"
       orient="auto"
       inkscape:stockid="Arrow1Send"
       inkscape:isstock="true">
      <path
         transform="matrix(-0.2,0,0,-0.2,-1.2,0)"
         style="fill:#000000;fill-opacity:1;fill-rule:evenodd;stroke:#000000;stroke-width:1pt;stroke-opacity:1"
         d="M 0,0 5,-5 -12.5,0 5,5 Z"
         id="path894" />
    </marker>
    <marker
       style="overflow:visible"
       id="Arrow1Mend"
       refX="0"
       refY="0"
       orient="auto"
       inkscape:stockid="Arrow1Mend"
       inkscape:isstock="true">
      <path
         transform="matrix(-0.4,0,0,-0.4,-4,0)"
         style="fill:#000000;fill-opacity:1;fill-rule:evenodd;stroke:#000000;stroke-width:1pt;stroke-opacity:1"
         d="M 0,0 5,-5 -12.5,0 5,5 Z"
         id="path888" />
    </marker>
    <marker
       style="overflow:visible"
       id="Arrow2Lend"
       refX="0"
       refY="0"
       orient="auto"
       inkscape:stockid="Arrow2Lend"
       inkscape:isstock="true">
      <path
         transform="matrix(-1.1,0,0,-1.1,-1.1,0)"
         d="M 8.7185878,4.0337352 -2.2072895,0.01601326 8.7185884,-4.0017078 c -1.7454984,2.3720609 -1.7354408,5.6174519 -6e-7,8.035443 z"
         style="fill:#000000;fill-opacity:1;fill-rule:evenodd;stroke:#000000;stroke-width:0.625;stroke-linejoin:round;stroke-opacity:1"
         id="path900" />
    </marker>
    <inkscape:path-effect
       effect="bspline"
       id="path-effect877"
       is_visible="true"
       lpeversion="1"
       weight="33.333333"
       steps="2"
       helper_size="0"
       apply_no_weight="true"
       apply_with_weight="true"
       only_selected="false" />
    <inkscape:path-effect
       effect="bspline"
       id="path-effect873"
       is_visible="true"
       lpeversion="1"
       weight="33.333333"
       steps="2"
       helper_size="0"
       apply_no_weight="true"
       apply_with_weight="true"
       only_selected="false" />
    <inkscape:path-effect
       effect="bspline"
       id="path-effect869"
       is_visible="true"
       lpeversion="1"
       weight="33.333333"
       steps="2"
       helper_size="0"
       apply_no_weight="true"
       apply_with_weight="true"
       only_selected="false" />
    <inkscape:path-effect
       effect="bspline"
       id="path-effect865"
       is_visible="true"
       lpeversion="1"
       weight="33.333333"
       steps="2"
       helper_size="0"
       apply_no_weight="true"
       apply_with_weight="true"
       only_selected="false" />
    <inkscape:path-effect
       effect="bspline"
       id="path-effect861"
       is_visible="true"
       lpeversion="1"
       weight="33.333333"
       steps="2"
       helper_size="0"
       apply_no_weight="true"
       apply_with_weight="true"
       only_selected="false" />
    <inkscape:path-effect
       effect="bspline"
       id="path-effect853"
       is_visible="true"
       lpeversion="1"
       weight="33.333333"
       steps="2"
       helper_size="0"
       apply_no_weight="true"
       apply_with_weight="true"
       only_selected="false" />
    <inkscape:path-effect
       effect="bspline"
       id="path-effect837"
       is_visible="true"
       lpeversion="1"
       weight="33.333333"
       steps="2"
       helper_size="0"
       apply_no_weight="true"
       apply_with_weight="true"
       only_selected="false" />
    <marker
       style="overflow:visible"
       refX="0"
       refY="0"
       orient="auto"
       inkscape:stockid="marker12039611"
       inkscape:isstock="true"
       id="marker12039611">
      <path
         transform="matrix(-0.4,0,0,-0.4,-4,0)"
         style="fill:#808080;fill-opacity:1;fill-rule:evenodd;stroke:#808080;stroke-width:1pt;stroke-opacity:1"
         d="M 0,0 5,-5 -12.5,0 5,5 Z"
         id="path2473" />
    </marker>
    <inkscape:path-effect
       effect="bspline"
       id="path-effect1279-9"
       is_visible="true"
       lpeversion="1"
       weight="33.333333"
       steps="2"
       helper_size="0"
       apply_no_weight="true"
       apply_with_weight="true"
       only_selected="false" />
  </defs>
  <sodipodi:namedview
     id="base"
     pagecolor="#2e2e2e"
     bordercolor="#666666"
     borderopacity="1.0"
     inkscape:pageopacity="0"
     inkscape:pageshadow="2"
     inkscape:zoom="1.979899"
     inkscape:cx="149.50258"
     inkscape:cy="129.29952"
     inkscape:document-units="mm"
     inkscape:current-layer="g1009"
     inkscape:document-rotation="0"
     showgrid="false"
     inkscape:pagecheckerboard="true"
     fit-margin-top="0"
     fit-margin-left="0"
     fit-margin-right="0"
     fit-margin-bottom="0"
     inkscape:window-width="1920"
     inkscape:window-height="1017"
     inkscape:window-x="1912"
     inkscape:window-y="32"
     inkscape:window-maximized="1"
     inkscape:showpageshadow="0"
     inkscape:deskcolor="#2e2e2e" />
  <metadata
     id="metadata5">
    <rdf:RDF>
      <cc:Work
         rdf:about="">
        <dc:format>image/svg+xml</dc:format>
        <dc:type
           rdf:resource="http://purl.org/dc/dcmitype/StillImage" />
      </cc:Work>
    </rdf:RDF>
  </metadata>
  <g
     inkscape:label="Layer 1"
     inkscape:groupmode="layer"
     id="layer1"
     transform="translate(-7.4135219,3.5447461)"
     style="display:inline">
    <g
       id="g841"
       transform="matrix(0.59980368,0,0,0.59980368,44.786905,30.234822)"
       style="fill:#808080;stroke:#808080;stroke-width:1.66721;stroke-miterlimit:4;stroke-dasharray:none;stroke-opacity:1">
      <ellipse
         style="fill:#808080;fill-opacity:0.020649;stroke:#808080;stroke-width:1.66721;stroke-linecap:square;stroke-miterlimit:4;stroke-dasharray:none;stroke-opacity:1"
         id="path833"
         cx="25"
         cy="25.000002"
         rx="24.508183"
         ry="24.508184" />
      <path
         style="fill:#808080;stroke:#808080;stroke-width:1.66721;stroke-linecap:butt;stroke-linejoin:miter;stroke-miterlimit:4;stroke-dasharray:none;stroke-opacity:1"
         d="m 25.1325,0 c 0,16.653452 0,33.30664 0,49.95956"
         id="path835"
         inkscape:path-effect="#path-effect837"
         inkscape:original-d="m 25.1325,0 c 2.64e-4,16.653452 2.64e-4,33.30664 0,49.95956" />
    </g>
    <path
       style="fill:#808080;stroke:#808080;stroke-width:1;stroke-linecap:butt;stroke-linejoin:miter;stroke-miterlimit:4;stroke-dasharray:2, 1;stroke-dashoffset:0;stroke-opacity:1"
       d="m 59.861471,30.234822 c 0,-5.762781 0,-11.525826 0,-17.289136"
       id="path851"
       inkscape:path-effect="#path-effect853"
       inkscape:original-d="m 59.861471,30.234822 c 2.65e-4,-5.762781 2.65e-4,-11.525826 0,-17.289136" />
    <path
       style="fill:#ffffff;stroke:#808080;stroke-width:1;stroke-linecap:butt;stroke-linejoin:miter;stroke-miterlimit:4;stroke-dasharray:none;stroke-opacity:1"
       d="m 66.754544,40.197204 c 0,3.333513 0,6.666846 0,10"
       id="path859"
       inkscape:path-effect="#path-effect861"
       inkscape:original-d="m 66.754544,40.197204 c 2.65e-4,3.333513 2.65e-4,6.666846 0,10" />
    <path
       style="fill:#808080;stroke:#7f7f7f;stroke-width:1;stroke-linecap:butt;stroke-linejoin:miter;stroke-miterlimit:4;stroke-dasharray:none;stroke-opacity:1"
       d="m 61.645584,45.294426 c 3.333527,0 6.666861,0 10,0"
       id="path863"
       inkscape:path-effect="#path-effect865"
       inkscape:original-d="m 61.645584,45.294426 c 3.333527,2.65e-4 6.666861,2.65e-4 10,0" />
    <path
       style="fill:none;stroke:#a652ca;stroke-width:0.7;stroke-linecap:butt;stroke-linejoin:miter;stroke-miterlimit:4;stroke-dasharray:none;stroke-opacity:1"
       d="m 62.164458,48.175733 c 0.875159,0 1.750211,0 2.523344,-0.474769 0.773134,-0.474769 1.444358,-1.42417 2.04637,-2.371815 0.602012,-0.947645 1.134642,-1.893294 1.870726,-2.372096 0.736085,-0.478803 1.675283,-0.490692 2.614447,-0.50258"
       id="path871"
       inkscape:path-effect="#path-effect873"
       inkscape:original-d="m 62.164458,48.175733 c 0.875159,1.16e-4 1.750211,1.16e-4 2.625156,0 0.671623,-0.949325 1.342847,-1.898726 2.013943,-2.848583 0.532941,-0.945469 1.065571,-1.891118 1.597921,-2.837007 0.939508,-0.01162 1.878706,-0.02351 2.817867,-0.03567"
       sodipodi:nodetypes="ccccc" />
    <path
       style="fill:none;stroke:#808080;stroke-width:0.8;stroke-linecap:butt;stroke-linejoin:miter;stroke-miterlimit:4;stroke-dasharray:none;stroke-opacity:1;marker-end:url(#marker12039611)"
       d="m 74.555803,44.979168 c 11.526766,0 23.053134,0 34.579127,0"
       id="path875"
       inkscape:path-effect="#path-effect877"
       inkscape:original-d="m 74.555803,44.979168 c 11.526766,2.64e-4 23.053134,2.64e-4 34.579127,0" />
    <path
       style="fill:#808080;stroke:#7f7f7f;stroke-width:0.8;stroke-linecap:butt;stroke-linejoin:miter;stroke-miterlimit:4;stroke-dasharray:none;stroke-opacity:1"
       d="M 48.616194,35.519986 C 38.014819,30.664735 27.41313,25.80934 16.81112,20.953798"
       id="path1277"
       inkscape:path-effect="#path-effect1279"
       inkscape:original-d="M 48.616194,35.519986 C 38.014765,30.664854 27.413076,25.809459 16.81112,20.953798"
       sodipodi:nodetypes="cc" />
    <path
       style="fill:#aaa055;fill-opacity:1;stroke:#aaa055;stroke-width:0.8;stroke-linecap:butt;stroke-linejoin:miter;stroke-miterlimit:4;stroke-dasharray:none;stroke-opacity:1"
       d="M 51.534312,32.6783 C 40.353814,22.789574 29.173041,12.900604 17.991986,3.0113842"
       id="path1277-9"
       inkscape:path-effect="#path-effect1279-9"
       inkscape:original-d="M 51.534312,32.6783 C 40.353799,22.789591 29.173026,12.900621 17.991986,3.0113842"
       sodipodi:nodetypes="cc" />
    <path
       style="fill:#808080;stroke:#7f7f7f;stroke-width:0.8;stroke-linecap:butt;stroke-linejoin:miter;stroke-miterlimit:4;stroke-dasharray:none;stroke-opacity:1"
       d="M 45.141688,41.399916 C 35.698475,39.172743 26.254952,36.945498 16.81112,34.718179"
       id="path1281"
       inkscape:path-effect="#path-effect1283"
       inkscape:original-d="M 45.141688,41.399916 C 35.69843,39.172935 26.254907,36.945689 16.81112,34.718179"
       sodipodi:nodetypes="cc" />
    <path
       style="fill:none;stroke:#808080;stroke-width:0.8;stroke-linecap:butt;stroke-linejoin:miter;stroke-miterlimit:4;stroke-dasharray:none;stroke-opacity:1"
       d="M 49.785496,55.865879 C 39.640507,60.620995 29.495403,65.376165 19.35018,70.131391"
       id="path1285"
       inkscape:path-effect="#path-effect1287"
       inkscape:original-d="M 49.785496,55.865879 C 39.640657,60.621314 29.495552,65.376484 19.35018,70.131391"
       sodipodi:nodetypes="cc" />
    <text
       xml:space="preserve"
       id="text1342"
       style="font-size:14.1111px;line-height:1.25;font-family:'Times New Roman';-inkscape-font-specification:'Times New Roman, ';white-space:pre;shape-inside:url(#rect1344);display:inline" />
    <text
       xml:space="preserve"
       style="font-size:14.1111px;line-height:1.25;font-family:'Times New Roman';-inkscape-font-specification:'Times New Roman, ';fill:#808080;stroke-width:0.264583"
       x="42.659664"
       y="-24.258896"
       id="text1414"
       transform="rotate(89.906364)"><tspan
         sodipodi:role="line"
         id="tspan1412"
         x="42.659664"
         y="-24.258896"
         style="fill:#808080;stroke-width:0.264583">...</tspan></text>
  </g>
  <g
     inkscape:groupmode="layer"
     id="layer2"
     inkscape:label="text"
     style="display:none"
     transform="translate(-1.7051889,13.844597)">
    <text
       xml:space="preserve"
       style="font-size:14.1111px;line-height:1.25;font-family:'Times New Roman';-inkscape-font-specification:'Times New Roman, ';fill:#808080;fill-opacity:1;stroke-width:0.264583"
       x="43.806549"
       y="15.497025"
       id="text845"><tspan
         sodipodi:role="line"
         id="tspan843"
         x="43.806549"
         y="15.497025"
         style="font-style:italic;font-variant:normal;font-weight:normal;font-stretch:normal;font-family:'Latin Modern Roman';-inkscape-font-specification:'Latin Modern Roman,  Italic';fill:#808080;fill-opacity:1;stroke-width:0.264583">s</tspan></text>
    <text
       xml:space="preserve"
       style="font-size:14.1111px;line-height:1.25;font-family:'Times New Roman';-inkscape-font-specification:'Times New Roman, ';fill:#808080;stroke-width:0.264583"
       x="57.319199"
       y="15.686015"
       id="text849"><tspan
         sodipodi:role="line"
         id="tspan847"
         x="57.319199"
         y="15.686015"
         style="font-style:normal;font-variant:normal;font-weight:normal;font-stretch:normal;font-family:'Latin Modern Roman';-inkscape-font-specification:'Latin Modern Roman, ';fill:#808080;stroke-width:0.264583">a(<tspan
   style="font-style:italic;font-variant:normal;font-weight:normal;font-stretch:normal;font-family:'Latin Modern Roman';-inkscape-font-specification:'Latin Modern Roman,  Italic'"
   id="tspan1372">s</tspan>)</tspan></text>
    <text
       xml:space="preserve"
       style="font-size:14.1111px;line-height:1.25;font-family:'Times New Roman';-inkscape-font-specification:'Times New Roman, ';fill:#808080;stroke-width:0.264583"
       x="43.806553"
       y="39.781998"
       id="text857"><tspan
         sodipodi:role="line"
         id="tspan855"
         x="43.806553"
         y="39.781998"
         style="font-style:normal;font-variant:normal;font-weight:normal;font-stretch:normal;font-family:'Latin Modern Math';-inkscape-font-specification:'Latin Modern Math';fill:#808080;stroke-width:0.264583">Σ</tspan></text>
    <text
       xml:space="preserve"
       style="font-size:9.87778px;line-height:1.25;font-family:'Times New Roman';-inkscape-font-specification:'Times New Roman, ';fill:#808080;stroke-width:0.264583"
       x="19.408932"
       y="1.9521992"
       id="text1291"
       transform="rotate(24.982919)"><tspan
         sodipodi:role="line"
         id="tspan1289"
         x="19.408932"
         y="1.9521992"
         style="font-style:normal;font-variant:normal;font-weight:normal;font-stretch:normal;font-size:9.87778px;font-family:'Latin Modern Roman';-inkscape-font-specification:'Latin Modern Roman, ';fill:#808080;stroke-width:0.264583"><tspan
           style="font-style:italic;font-variant:normal;font-weight:normal;font-stretch:normal;font-family:'Latin Modern Roman';-inkscape-font-specification:'Latin Modern Roman,  Italic'"
           id="tspan1360">w</tspan><tspan
           style="font-style:normal;font-variant:normal;font-weight:normal;font-stretch:normal;font-size:65%;font-family:'Latin Modern Roman';-inkscape-font-specification:'Latin Modern Roman, ';baseline-shift:sub;fill:#808080"
           id="tspan1295">1</tspan></tspan></text>
    <text
       xml:space="preserve"
       style="font-size:9.87777px;line-height:1.25;font-family:'Times New Roman';-inkscape-font-specification:'Times New Roman, ';fill:#808080;stroke-width:0.264583"
       x="21.732445"
       y="17.445379"
       id="text1291-1"
       transform="rotate(14.797002)"><tspan
         sodipodi:role="line"
         id="tspan1289-0"
         x="21.732445"
         y="17.445379"
         style="font-style:normal;font-variant:normal;font-weight:normal;font-stretch:normal;font-size:9.87777px;font-family:'Latin Modern Roman';-inkscape-font-specification:'Latin Modern Roman, ';fill:#808080;stroke-width:0.264583"><tspan
           style="font-style:italic;font-variant:normal;font-weight:normal;font-stretch:normal;font-family:'Latin Modern Roman';-inkscape-font-specification:'Latin Modern Roman,  Italic'"
           id="tspan1362">w</tspan><tspan
           style="font-style:normal;font-variant:normal;font-weight:normal;font-stretch:normal;font-size:65%;font-family:'Latin Modern Roman';-inkscape-font-specification:'Latin Modern Roman, ';baseline-shift:sub;fill:#808080"
           id="tspan1328">2</tspan></tspan></text>
    <text
       xml:space="preserve"
       style="font-size:9.87777px;line-height:1.25;font-family:'Times New Roman';-inkscape-font-specification:'Times New Roman, ';fill:#808080;stroke-width:0.264583"
       x="-10.110136"
       y="56.741093"
       id="text1291-4"
       transform="rotate(-27.82817)"><tspan
         sodipodi:role="line"
         id="tspan1289-8"
         x="-10.110136"
         y="56.741093"
         style="font-style:normal;font-variant:normal;font-weight:normal;font-stretch:normal;font-size:9.87777px;font-family:'Latin Modern Math';-inkscape-font-specification:'Latin Modern Math';fill:#808080;stroke-width:0.264583"><tspan
           style="font-style:italic;font-variant:normal;font-weight:normal;font-stretch:normal;font-family:'Latin Modern Roman';-inkscape-font-specification:'Latin Modern Roman,  Italic'"
           id="tspan1364">w</tspan><tspan
           style="font-style:normal;font-variant:normal;font-weight:normal;font-stretch:normal;font-size:65%;font-family:'Latin Modern Math';-inkscape-font-specification:'Latin Modern Math';baseline-shift:sub;fill:#808080"
           id="tspan1330">n</tspan></tspan></text>
    <text
       xml:space="preserve"
       style="font-size:9.87777px;line-height:1.25;font-family:'Times New Roman';-inkscape-font-specification:'Times New Roman, ';fill:#808080;stroke-width:0.264583"
       x="1.7174578"
       y="61.698307"
       id="text1291-9"
       transform="rotate(-0.52230975)"><tspan
         sodipodi:role="line"
         id="tspan1289-7"
         x="1.7174578"
         y="61.698307"
         style="font-style:normal;font-variant:normal;font-weight:normal;font-stretch:normal;font-family:'Latin Modern Roman';-inkscape-font-specification:'Latin Modern Roman, ';fill:#808080"><tspan
           style="font-style:italic;font-variant:normal;font-weight:normal;font-stretch:normal;font-family:'Latin Modern Roman';-inkscape-font-specification:'Latin Modern Roman,  Italic'"
           id="tspan1370">x</tspan><tspan
           style="font-style:normal;font-variant:normal;font-weight:normal;font-stretch:normal;font-size:65%;font-family:'Latin Modern Roman';-inkscape-font-specification:'Latin Modern Roman, ';baseline-shift:sub;fill:#808080"
           id="tspan1410">n</tspan></tspan></text>
    <text
       xml:space="preserve"
       style="font-size:9.87777px;line-height:1.25;font-family:'Times New Roman';-inkscape-font-specification:'Times New Roman, ';fill:#808080;stroke-width:0.264583"
       x="2.3224092"
       y="25.62352"
       id="text1291-9-3"
       transform="rotate(-0.52230975)"><tspan
         sodipodi:role="line"
         id="tspan1289-7-6"
         x="2.3224092"
         y="25.62352"
         style="font-style:normal;font-variant:normal;font-weight:normal;font-stretch:normal;font-family:'Latin Modern Roman';-inkscape-font-specification:'Latin Modern Roman, ';fill:#808080;stroke-width:0.264583"><tspan
           style="font-style:italic;font-variant:normal;font-weight:normal;font-stretch:normal;font-family:'Latin Modern Roman';-inkscape-font-specification:'Latin Modern Roman,  Italic'"
           id="tspan1368">x</tspan><tspan
           style="font-style:normal;font-variant:normal;font-weight:normal;font-stretch:normal;font-size:65%;font-family:'Latin Modern Roman';-inkscape-font-specification:'Latin Modern Roman, ';baseline-shift:sub;fill:#808080"
           id="tspan1408">2</tspan></tspan></text>
    <text
       xml:space="preserve"
       style="font-size:9.87777px;line-height:1.25;font-family:'Times New Roman';-inkscape-font-specification:'Times New Roman, ';fill:#808080;stroke-width:0.264583"
       x="2.5479214"
       y="11.450875"
       id="text1291-9-31"
       transform="rotate(-0.52230975)"><tspan
         sodipodi:role="line"
         id="tspan1289-7-9"
         x="2.5479214"
         y="11.450875"
         style="font-style:normal;font-variant:normal;font-weight:normal;font-stretch:normal;font-family:'Latin Modern Roman';-inkscape-font-specification:'Latin Modern Roman, ';fill:#808080;stroke-width:0.264583"><tspan
           style="font-style:italic;font-variant:normal;font-weight:normal;font-stretch:normal;font-family:'Latin Modern Roman';-inkscape-font-specification:'Latin Modern Roman,  Italic'"
           id="tspan1366">x</tspan><tspan
           style="font-style:normal;font-variant:normal;font-weight:normal;font-stretch:normal;font-size:6.42054px;font-family:'Latin Modern Roman';-inkscape-font-specification:'Latin Modern Roman, ';baseline-shift:sub;fill:#808080;stroke-width:0.264583"
           id="tspan1375-3">1</tspan></tspan></text>
    <text
       xml:space="preserve"
       style="font-size:9.87778px;line-height:1.25;font-family:'Times New Roman';-inkscape-font-specification:'Times New Roman, ';fill:#808080;stroke-width:0.265;stroke-dasharray:none"
       x="99.836266"
       y="29.630081"
       id="text1418"><tspan
         sodipodi:role="line"
         id="tspan1416"
         x="99.836266"
         y="29.630081"
         style="font-style:normal;font-variant:normal;font-weight:normal;font-stretch:normal;font-size:9.87778px;font-family:'Latin Modern Roman';-inkscape-font-specification:'Latin Modern Roman, ';fill:#808080;stroke-width:0.265;stroke-dasharray:none">y</tspan></text>
    <text
       xml:space="preserve"
       style="font-size:9.87778px;font-family:Calibri;-inkscape-font-specification:Calibri;text-align:center;text-orientation:sideways;text-anchor:middle;fill:#808080;fill-opacity:1;stroke:#808080;stroke-width:0.265;stroke-linecap:round;stroke-dasharray:none;stroke-opacity:1"
       x="101.01714"
       y="29.52791"
       id="text1054"><tspan
         sodipodi:role="line"
         id="tspan1052"
         style="font-style:italic;font-variant:normal;font-weight:normal;font-stretch:normal;font-size:9.87778px;font-family:'Latin Modern Roman';-inkscape-font-specification:'Latin Modern Roman,  Italic';stroke:#808080;stroke-width:0.265;stroke-dasharray:none;stroke-opacity:1"
         x="101.01714"
         y="29.52791">^</tspan></text>
    <text
       xml:space="preserve"
       style="font-size:9.87777px;line-height:1.25;font-family:'Times New Roman';-inkscape-font-specification:'Times New Roman, ';display:inline;fill:#aaa055;fill-opacity:1;stroke-width:0.264583"
       x="4.2357674"
       y="-6.6610441"
       id="text1291-9-31-7"
       transform="rotate(-0.52230975)"><tspan
         sodipodi:role="line"
         id="tspan1289-7-9-6"
         x="4.2357674"
         y="-6.6610441"
         style="font-style:normal;font-variant:normal;font-weight:normal;font-stretch:normal;font-family:'Latin Modern Roman';-inkscape-font-specification:'Latin Modern Roman, ';fill:#aaa055;fill-opacity:1;stroke-width:0.264583">1</tspan></text>
    <text
       xml:space="preserve"
       style="font-size:9.87778px;line-height:1.25;font-family:'Times New Roman';-inkscape-font-specification:'Times New Roman, ';display:inline;fill:#aaa055;fill-opacity:1;stroke-width:0.264583"
       x="9.5483418"
       y="-15.780245"
       id="text1291-5"
       transform="rotate(36.858453)"><tspan
         sodipodi:role="line"
         id="tspan1289-4"
         x="9.5483418"
         y="-15.780245"
         style="font-style:normal;font-variant:normal;font-weight:normal;font-stretch:normal;font-size:9.87778px;font-family:'Latin Modern Roman';-inkscape-font-specification:'Latin Modern Roman, ';fill:#aaa055;fill-opacity:1;stroke-width:0.264583"><tspan
           style="font-style:italic;font-variant:normal;font-weight:normal;font-stretch:normal;font-family:'Latin Modern Roman';-inkscape-font-specification:'Latin Modern Roman,  Italic';fill:#aaa055;fill-opacity:1"
           id="tspan1354">w</tspan><tspan
           style="font-style:normal;font-variant:normal;font-weight:normal;font-stretch:normal;font-size:65%;font-family:'Latin Modern Roman';-inkscape-font-specification:'Latin Modern Roman, ';baseline-shift:sub;fill:#aaa055;fill-opacity:1"
           id="tspan1295-2">0</tspan></tspan></text>
  </g>
  <g
     inkscape:groupmode="layer"
     id="g1009"
     inkscape:label="text_path"
     transform="translate(-1.7051889,13.844597)">
    <g
       aria-label="s"
       id="text929"
       style="font-size:14.1111px;font-family:'Times New Roman';-inkscape-font-specification:'Times New Roman, ';fill:#808080;stroke-width:0.264583">
      <path
         d="m 49.352211,13.281582 c 0,-1.227666 -1.100665,-1.481666 -1.67922,-1.608666 -0.395111,-0.08467 -0.903111,-0.197555 -0.903111,-0.804332 0,-0.338667 0.296333,-1.2982215 1.425221,-1.2982215 0.381,0 0.903111,0.141111 1.058333,0.6914435 -0.451555,0.05645 -0.564444,0.437444 -0.564444,0.578555 0,0.155223 0.08467,0.395111 0.423333,0.395111 0.239888,0 0.606777,-0.169333 0.606777,-0.77611 0,-0.6491108 -0.578555,-1.1994438 -1.509888,-1.1994438 -1.650998,0 -2.229553,1.3546658 -2.229553,2.0884428 0,1.086555 0.917221,1.28411 1.312332,1.368777 0.620888,0.141111 1.255888,0.282222 1.255888,1.044221 0,0.451555 -0.381,1.580443 -1.834443,1.580443 -0.310444,0 -1.128888,-0.07055 -1.354666,-0.790221 0.719666,-0.07056 0.719666,-0.691444 0.719666,-0.691444 0,-0.268111 -0.183444,-0.451555 -0.479777,-0.451555 -0.324556,0 -0.719666,0.239888 -0.719666,0.874888 0,0.860777 0.818443,1.368777 1.820332,1.368777 2.116665,0 2.652886,-1.721555 2.652886,-2.370665 z"
         style="-inkscape-font-specification:'Latin Modern Roman,  Italic'"
         id="path1041" />
    </g>
    <g
       aria-label="a(s)"
       id="text935"
       style="font-size:14.1111px;font-family:'Times New Roman';-inkscape-font-specification:'Times New Roman, ';fill:#808080;stroke-width:0.264583">
      <path
         d="m 64.13486,14.430127 v -0.790221 h -0.352778 v 0.790221 c 0,0.818444 -0.352777,0.903111 -0.507999,0.903111 -0.465666,0 -0.522111,-0.635 -0.522111,-0.705555 v -2.82222 c 0,-0.592667 0,-1.143 -0.507999,-1.66511 -0.550333,-0.5503332 -1.255888,-0.7761108 -1.933221,-0.7761108 -1.15711,0 -2.130776,0.6632218 -2.130776,1.5945548 0,0.423333 0.282222,0.663221 0.64911,0.663221 0.395111,0 0.649111,-0.282222 0.649111,-0.64911 0,-0.169334 -0.07056,-0.635 -0.719666,-0.649111 0.381,-0.4938885 1.072443,-0.6491106 1.523999,-0.6491106 0.691444,0 1.495776,0.5503326 1.495776,1.8062206 v 0.522111 c -0.719666,0.04233 -1.707443,0.08467 -2.596442,0.508 -1.058333,0.479777 -1.41111,1.213554 -1.41111,1.834443 0,1.142999 1.368777,1.495776 2.257776,1.495776 0.931332,0 1.580443,-0.564444 1.848554,-1.227665 0.05644,0.564444 0.437444,1.15711 1.100666,1.15711 0.296333,0 1.15711,-0.197556 1.15711,-1.340555 z m -2.356554,-0.719666 c 0,1.340555 -1.015999,1.820332 -1.650998,1.820332 -0.691444,0 -1.269999,-0.493888 -1.269999,-1.199443 0,-0.776111 0.592666,-1.947332 2.920997,-2.031999 z"
         style="-inkscape-font-specification:'Latin Modern Roman, '"
         id="path1046" />
      <path
         d="m 69.045523,19.072679 c 0,-0.04233 0,-0.07056 -0.239889,-0.310444 -1.763887,-1.777999 -2.215443,-4.444997 -2.215443,-6.603995 0,-2.4553314 0.536222,-4.9106628 2.271888,-6.6745503 0.183444,-0.1693332 0.183444,-0.1975554 0.183444,-0.2398887 0,-0.098778 -0.05644,-0.141111 -0.141111,-0.141111 -0.141111,0 -1.41111,0.9595548 -2.243665,2.7516645 -0.719666,1.552221 -0.888999,3.1185535 -0.888999,4.3038855 0,1.100666 0.155222,2.808109 0.931332,4.402663 0.846666,1.735666 2.060221,2.652887 2.201332,2.652887 0.08467,0 0.141111,-0.04233 0.141111,-0.141111 z"
         style="-inkscape-font-specification:'Latin Modern Roman, '"
         id="path1048" />
      <path
         d="m 75.409628,13.470572 c 0,-1.227665 -1.100665,-1.481665 -1.679221,-1.608665 -0.39511,-0.08467 -0.90311,-0.197555 -0.90311,-0.804333 0,-0.338666 0.296333,-1.298221 1.425221,-1.298221 0.381,0 0.903111,0.141111 1.058333,0.691444 -0.451556,0.05644 -0.564444,0.437444 -0.564444,0.578555 0,0.155222 0.08467,0.395111 0.423333,0.395111 0.239888,0 0.606777,-0.169333 0.606777,-0.776111 0,-0.6491103 -0.578555,-1.1994432 -1.509888,-1.1994432 -1.650998,0 -2.229554,1.3546652 -2.229554,2.0884432 0,1.086554 0.917222,1.28411 1.312333,1.368776 0.620888,0.141111 1.255888,0.282222 1.255888,1.044222 0,0.451555 -0.381,1.580443 -1.834443,1.580443 -0.310445,0 -1.128888,-0.07055 -1.354666,-0.790222 0.719666,-0.07055 0.719666,-0.691443 0.719666,-0.691443 0,-0.268111 -0.183444,-0.451556 -0.479777,-0.451556 -0.324556,0 -0.719666,0.239889 -0.719666,0.874889 0,0.860777 0.818443,1.368776 1.820332,1.368776 2.116665,0 2.652886,-1.721554 2.652886,-2.370665 z"
         style="-inkscape-font-specification:'Latin Modern Roman,  Italic'"
         id="path1050" />
      <path
         d="m 79.71352,12.15824 c 0,-1.100666 -0.155222,-2.8081089 -0.931332,-4.4026632 C 77.935522,6.0199115 76.721967,5.10269 76.580856,5.10269 c -0.08467,0 -0.141111,0.056444 -0.141111,0.141111 0,0.042333 0,0.070555 0.268111,0.3245553 1.382888,1.3969989 2.18722,3.6406638 2.18722,6.5898837 0,2.412998 -0.52211,4.896552 -2.271887,6.67455 -0.183444,0.169334 -0.183444,0.197556 -0.183444,0.239889 0,0.08467 0.05644,0.141111 0.141111,0.141111 0.141111,0 1.41111,-0.959555 2.243665,-2.751664 0.719666,-1.552221 0.888999,-3.118554 0.888999,-4.303886 z"
         style="-inkscape-font-specification:'Latin Modern Roman, '"
         id="path1052" />
    </g>
    <g
       aria-label="Σ"
       id="text939"
       style="font-size:14.1111px;font-family:'Times New Roman';-inkscape-font-specification:'Times New Roman, ';fill:#808080;stroke-width:0.264583">
      <path
         d="m 53.190435,36.451778 h -0.352778 c -0.254,2.356554 -1.213555,2.737553 -3.428997,2.737553 h -3.894664 l 3.541886,-4.007552 c 0.127,-0.141111 0.127,-0.225778 0.127,-0.225778 0,-0.07055 -0.05644,-0.141111 -0.09878,-0.197555 L 46.191329,30.58156 h 3.259664 c 2.384776,0 3.090331,0.508 3.386664,2.737554 h 0.352778 l -0.395111,-3.174998 h -7.831661 c -0.338666,0 -0.366889,0 -0.366889,0.324556 l 3.513664,5.108218 -3.358441,3.824108 c -0.141111,0.155222 -0.141111,0.183444 -0.141111,0.225778 0,0.155222 0.141111,0.155222 0.352777,0.155222 h 7.831661 z"
         style="-inkscape-font-specification:'Latin Modern Math'"
         id="path1063" />
    </g>
    <g
       aria-label="w1"
       transform="rotate(24.982919)"
       id="text947"
       style="font-size:9.87778px;font-family:'Times New Roman';-inkscape-font-specification:'Times New Roman, ';fill:#808080;stroke-width:0.264583">
      <path
         d="m 26.293744,-1.761846 c 0,-0.3457223 -0.118533,-0.6519335 -0.404989,-0.6519335 -0.227189,0 -0.474133,0.2271889 -0.474133,0.4543779 0,0.1284111 0.06914,0.1975556 0.128411,0.2667 0.237067,0.2568223 0.2667,0.5729113 0.2667,0.78034463 0,0.3951112 -0.316089,1.4322781 -0.484011,1.83726707 -0.217311,0.5136446 -0.5334,0.9186335 -0.987778,0.9186335 -0.493889,0 -0.651934,-0.4049889 -0.651934,-0.8198557 0,-0.0889 0.0099,-0.32596673 0.118534,-0.76058905 l 0.414867,-1.65946705 c 0.05927,-0.2173111 0.158044,-0.6124223 0.158044,-0.6519335 0,-0.1086555 -0.07902,-0.2568222 -0.276578,-0.2568222 -0.286455,0 -0.3556,0.2667 -0.375355,0.3457223 l -0.563034,2.25213379 c -0.06914,0.27657784 -0.07902,0.48401122 -0.07902,0.62230013 0,0.10865558 -0.306211,0.92851128 -0.829734,0.92851128 -0.691444,0 -0.691444,-0.7309557 -0.691444,-0.85936682 0,-0.53340011 0.256822,-1.26435583 0.563033,-2.07433378 0.06914,-0.1876778 0.118534,-0.3358445 0.118534,-0.5235223 0,-0.493889 -0.325967,-0.8001002 -0.750712,-0.8001002 -0.918633,0 -1.264356,1.46191141 -1.264356,1.52117809 0,0.0987778 0.09878,0.0987778 0.148167,0.0987778 0.128411,0 0.138289,-0.0197556 0.1778,-0.15804448 0.07902,-0.30621121 0.345723,-1.24460031 0.918634,-1.24460031 0.108655,0 0.217311,0.029633 0.217311,0.2864557 0,0.2370667 -0.09878,0.5037667 -0.237067,0.8890002 -0.493889,1.34337803 -0.493889,1.60020031 -0.493889,1.86690037 0,0.33584453 0.07902,0.67168903 0.335845,0.90875573 0.316089,0.2765779 0.760589,0.3062112 0.928511,0.3062112 0.316089,0 0.661811,-0.1284111 0.958145,-0.6321779 0.148166,0.3654778 0.543278,0.6321779 1.126067,0.6321779 0.592666,0 1.007533,-0.404989 1.303867,-1.10631136 0.296333,-0.67168903 0.681566,-2.19286714 0.681566,-2.71638944 z"
         style="-inkscape-font-specification:'Latin Modern Roman,  Italic'"
         id="path1068" />
      <path
         d="M 28.657987,3.9277552 V 3.728718 h -0.205458 c -0.57785,0 -0.597112,-0.070626 -0.597112,-0.3081867 v -3.60193225 c 0,-0.15409336 0,-0.16693447 -0.147673,-0.16693447 C 27.30967,0.0625802 26.744661,0.0625802 26.539203,0.0625802 v 0.19903725 c 0.128411,0 0.507224,0 0.841093,-0.16693447 V 3.4205313 c 0,0.23114 -0.01926,0.3081867 -0.597112,0.3081867 h -0.205458 v 0.1990372 c 0.22472,-0.019262 0.783308,-0.019262 1.04013,-0.019262 0.256823,0 0.815411,0 1.040131,0.019262 z"
         style="-inkscape-font-specification:'Latin Modern Roman, '"
         id="path1070" />
    </g>
    <g
       aria-label="w2"
       transform="rotate(14.797002)"
       id="text955"
       style="font-size:9.87777px;font-family:'Times New Roman';-inkscape-font-specification:'Times New Roman, ';fill:#808080;stroke-width:0.264583">
      <path
         d="m 28.617251,13.731338 c 0,-0.345722 -0.118533,-0.651933 -0.404989,-0.651933 -0.227189,0 -0.474133,0.227188 -0.474133,0.454377 0,0.128411 0.06914,0.197556 0.128411,0.2667 0.237067,0.256822 0.2667,0.572911 0.2667,0.780344 0,0.395111 -0.316089,1.432277 -0.484011,1.837265 -0.217311,0.513644 -0.533399,0.918633 -0.987777,0.918633 -0.493888,0 -0.651933,-0.404989 -0.651933,-0.819855 0,-0.0889 0.0099,-0.325967 0.118534,-0.760588 l 0.414866,-1.659466 c 0.05927,-0.217311 0.158044,-0.612422 0.158044,-0.651933 0,-0.108655 -0.07902,-0.256822 -0.276577,-0.256822 -0.286456,0 -0.3556,0.2667 -0.375356,0.345722 l -0.563032,2.252132 c -0.06914,0.276577 -0.07902,0.484011 -0.07902,0.622299 0,0.108656 -0.306211,0.928511 -0.829732,0.928511 -0.691444,0 -0.691444,-0.730955 -0.691444,-0.859366 0,-0.5334 0.256822,-1.264355 0.563033,-2.074332 0.06914,-0.187678 0.118533,-0.335844 0.118533,-0.523522 0,-0.493888 -0.325967,-0.800099 -0.750711,-0.800099 -0.918632,0 -1.264354,1.46191 -1.264354,1.521176 0,0.09878 0.09878,0.09878 0.148166,0.09878 0.128411,0 0.138289,-0.01975 0.1778,-0.158044 0.07902,-0.306211 0.345722,-1.244599 0.918633,-1.244599 0.108655,0 0.217311,0.02963 0.217311,0.286455 0,0.237067 -0.09878,0.503766 -0.237067,0.888999 -0.493888,1.343377 -0.493888,1.600199 -0.493888,1.866899 0,0.335844 0.07902,0.671688 0.335844,0.908755 0.316089,0.276577 0.760588,0.306211 0.92851,0.306211 0.316089,0 0.661811,-0.128411 0.958144,-0.632178 0.148167,0.365478 0.543277,0.632178 1.126066,0.632178 0.592666,0 1.007532,-0.404989 1.303866,-1.106311 0.296333,-0.671688 0.681566,-2.192865 0.681566,-2.716386 z"
         style="-inkscape-font-specification:'Latin Modern Roman,  Italic'"
         id="path1077" />
      <path
         d="m 31.174107,18.303758 h -0.160514 c -0.0321,0.192616 -0.07705,0.47512 -0.141252,0.571429 -0.04494,0.05136 -0.4687,0.05136 -0.609952,0.05136 H 29.10669 l 0.680578,-0.661317 c 1.001606,-0.886036 1.386839,-1.232745 1.386839,-1.8748 0,-0.731943 -0.57785,-1.245587 -1.361157,-1.245587 -0.725522,0 -1.200643,0.59069 -1.200643,1.162119 0,0.359551 0.321028,0.359551 0.340289,0.359551 0.10915,0 0.333869,-0.07705 0.333869,-0.340289 0,-0.166934 -0.11557,-0.333869 -0.340289,-0.333869 -0.05136,0 -0.06421,0 -0.08347,0.0064 0.147672,-0.417336 0.494382,-0.654896 0.866774,-0.654896 0.58427,0 0.860354,0.520064 0.860354,1.04655 0,0.513644 -0.321028,1.020867 -0.674158,1.418941 l -1.232746,1.373998 c -0.07063,0.07063 -0.07063,0.08347 -0.07063,0.23756 h 2.382024 z"
         style="-inkscape-font-specification:'Latin Modern Roman, '"
         id="path1079" />
    </g>
    <g
       aria-label="wn"
       transform="rotate(-27.82817)"
       id="text963"
       style="font-size:9.87777px;font-family:'Times New Roman';-inkscape-font-specification:'Times New Roman, ';fill:#808080;stroke-width:0.264583">
      <path
         d="m -3.22533,53.027051 c 0,-0.345722 -0.1185333,-0.651933 -0.4049886,-0.651933 -0.2271888,0 -0.474133,0.227189 -0.474133,0.454378 0,0.128411 0.069144,0.197555 0.128411,0.266699 0.2370665,0.256822 0.2666998,0.572911 0.2666998,0.780344 0,0.395111 -0.3160887,1.432277 -0.4840107,1.837266 -0.217311,0.513644 -0.5333997,0.918632 -0.9877771,0.918632 -0.4938885,0 -0.6519328,-0.404988 -0.6519328,-0.819855 0,-0.0889 0.00988,-0.325966 0.1185332,-0.760588 l 0.4148664,-1.659465 c 0.059267,-0.217311 0.1580443,-0.612422 0.1580443,-0.651933 0,-0.108656 -0.079022,-0.256822 -0.2765776,-0.256822 -0.2864553,0 -0.3555997,0.266699 -0.3753553,0.345722 l -0.5630329,2.252131 c -0.069144,0.276578 -0.079022,0.484011 -0.079022,0.6223 0,0.108655 -0.3062109,0.92851 -0.8297328,0.92851 -0.6914439,0 -0.6914439,-0.730955 -0.6914439,-0.859366 0,-0.533399 0.2568221,-1.264354 0.5630329,-2.074332 0.069144,-0.187677 0.1185333,-0.335844 0.1185333,-0.523521 0,-0.493889 -0.3259664,-0.8001 -0.7507106,-0.8001 -0.9186326,0 -1.2643546,1.46191 -1.2643546,1.521177 0,0.09878 0.098778,0.09878 0.1481666,0.09878 0.128411,0 0.1382888,-0.01976 0.1777998,-0.158045 0.079022,-0.306211 0.345722,-1.244599 0.9186327,-1.244599 0.1086555,0 0.2173109,0.02963 0.2173109,0.286455 0,0.237067 -0.098778,0.503767 -0.2370665,0.889 -0.4938885,1.343377 -0.4938885,1.600199 -0.4938885,1.866898 0,0.335845 0.079022,0.671689 0.3358442,0.908755 0.3160887,0.276578 0.7605883,0.306211 0.9285104,0.306211 0.3160887,0 0.6618107,-0.128411 0.9581438,-0.632177 0.1481665,0.365477 0.5432773,0.632177 1.1260658,0.632177 0.5926662,0 1.0075326,-0.404988 1.3038657,-1.10631 0.2963331,-0.671689 0.6815662,-2.192865 0.6815662,-2.716387 z"
         style="-inkscape-font-specification:'Latin Modern Roman,  Italic'"
         id="path1086" />
      <path
         d="M -0.11630657,58.716647 V 58.51761 c -0.33386862,0 -0.49438237,0 -0.50080292,-0.192617 v -1.226325 c 0,-0.552167 0,-0.751204 -0.19903706,-0.982344 -0.0898877,-0.109149 -0.30176585,-0.23756 -0.67415775,-0.23756 -0.4687002,0 -0.7704661,0.276083 -0.9502415,0.674157 v -0.674157 l -0.9052976,0.07063 v 0.199037 c 0.4494385,0 0.5008029,0.04494 0.5008029,0.35955 v 1.720708 c 0,0.288925 -0.070626,0.288925 -0.5008029,0.288925 v 0.199037 l 0.7255222,-0.01926 0.7191016,0.01926 V 58.51761 c -0.4301768,0 -0.5008029,0 -0.5008029,-0.288925 v -1.181381 c 0,-0.667738 0.4558591,-1.027288 0.8667743,-1.027288 0.4044947,0 0.4751207,0.346709 0.4751207,0.712681 v 1.495988 c 0,0.288925 -0.070626,0.288925 -0.5008029,0.288925 v 0.199037 l 0.72552219,-0.01926 z"
         style="-inkscape-font-specification:'Latin Modern Math'"
         id="path1088" />
    </g>
    <g
       aria-label="xn"
       transform="rotate(-0.52230975)"
       id="text971"
       style="font-size:9.87777px;font-family:'Times New Roman';-inkscape-font-specification:'Times New Roman, ';fill:#808080;stroke-width:0.264583">
      <path
         d="m 6.5378097,60.285786 c 0,-0.09878 -0.079022,-0.09878 -0.1481665,-0.09878 -0.1185333,0 -0.128411,0.0099 -0.1777999,0.167922 -0.2666998,0.849489 -0.7605883,1.234722 -1.1754547,1.234722 -0.1975554,0 -0.4642552,-0.118534 -0.4642552,-0.632178 0,-0.237066 0.1086555,-0.66181 0.1876777,-0.997655 l 0.3358442,-1.353254 c 0.1382887,-0.513644 0.4049885,-1.056922 0.8692438,-1.056922 0.029633,0 0.2765775,0 0.4346219,0.138289 -0.3951109,0.09878 -0.3951109,0.474133 -0.3951109,0.474133 0,0.128411 0.0889,0.316089 0.345722,0.316089 0.1777999,0 0.4840108,-0.138289 0.4840108,-0.523522 0,-0.503766 -0.5729107,-0.622299 -0.8593661,-0.622299 -0.5432773,0 -0.8692438,0.48401 -0.9680215,0.671688 -0.2173109,-0.592666 -0.7013217,-0.671688 -0.9482659,-0.671688 -0.9877771,0 -1.5211767,1.293987 -1.5211767,1.521176 0,0.09878 0.098778,0.09878 0.1481666,0.09878 0.128411,0 0.128411,-0.0099 0.1777998,-0.167922 0.2666998,-0.849488 0.7803439,-1.234722 1.1754547,-1.234722 0.2864554,0 0.474133,0.227189 0.474133,0.6223 0,0.237066 -0.1185332,0.721077 -0.2074332,1.086555 l -0.2271887,0.898877 c -0.1580443,0.642055 -0.3654775,1.432277 -0.9581437,1.432277 -0.029633,0 -0.2666998,0 -0.4346219,-0.138289 0.2963331,-0.07902 0.385233,-0.325967 0.385233,-0.474133 0,-0.256822 -0.2074332,-0.316089 -0.3358442,-0.316089 -0.2469442,0 -0.4938885,0.207433 -0.4938885,0.5334 0,0.385233 0.4148664,0.612422 0.8692438,0.612422 0.474133,0 0.8000994,-0.375356 0.9680215,-0.671689 0.1975554,0.563033 0.6815662,0.671689 0.9383882,0.671689 1.0174103,0 1.5211766,-1.323622 1.5211766,-1.521177 z"
         style="-inkscape-font-specification:'Latin Modern Roman,  Italic'"
         id="path1095" />
      <path
         d="m 9.7357447,63.673861 v -0.199037 c -0.3338686,0 -0.4943824,0 -0.5008029,-0.192616 v -1.226326 c 0,-0.552167 0,-0.751204 -0.1990371,-0.982344 -0.089888,-0.109149 -0.3017659,-0.23756 -0.6741578,-0.23756 -0.4687002,0 -0.770466,0.276084 -0.9502414,0.674158 v -0.674158 l -0.9052976,0.07063 v 0.199037 c 0.4494385,0 0.5008029,0.04494 0.5008029,0.359551 v 1.720707 c 0,0.288925 -0.070626,0.288925 -0.5008029,0.288925 v 0.199037 l 0.7255222,-0.01926 0.7191016,0.01926 v -0.199037 c -0.4301769,0 -0.5008029,0 -0.5008029,-0.288925 v -1.181381 c 0,-0.667737 0.455859,-1.027288 0.8667743,-1.027288 0.4044946,0 0.4751207,0.34671 0.4751207,0.712681 v 1.495988 c 0,0.288925 -0.070626,0.288925 -0.5008029,0.288925 v 0.199037 l 0.7255222,-0.01926 z"
         style="-inkscape-font-specification:'Latin Modern Roman, '"
         id="path1097" />
    </g>
    <g
       aria-label="x2"
       transform="rotate(-0.52230975)"
       id="text979"
       style="font-size:9.87777px;font-family:'Times New Roman';-inkscape-font-specification:'Times New Roman, ';fill:#808080;stroke-width:0.264583">
      <path
         d="m 7.1427611,24.210999 c 0,-0.09878 -0.079022,-0.09878 -0.1481665,-0.09878 -0.1185333,0 -0.1284111,0.0099 -0.1777999,0.167922 -0.2666998,0.849488 -0.7605883,1.234721 -1.1754547,1.234721 -0.1975554,0 -0.4642552,-0.118533 -0.4642552,-0.632177 0,-0.237066 0.1086555,-0.661811 0.1876776,-0.997655 l 0.3358442,-1.353254 c 0.1382888,-0.513644 0.4049886,-1.056922 0.8692438,-1.056922 0.029633,0 0.2765776,0 0.4346219,0.138289 -0.3951108,0.09878 -0.3951108,0.474133 -0.3951108,0.474133 0,0.128411 0.0889,0.316089 0.345722,0.316089 0.1777998,0 0.4840107,-0.138289 0.4840107,-0.523522 0,-0.503766 -0.5729107,-0.6223 -0.859366,-0.6223 -0.5432774,0 -0.8692438,0.484011 -0.9680215,0.671689 -0.2173109,-0.592666 -0.7013217,-0.671689 -0.948266,-0.671689 -0.987777,0 -1.5211766,1.293988 -1.5211766,1.521177 0,0.09878 0.098778,0.09878 0.1481666,0.09878 0.128411,0 0.128411,-0.0099 0.1777998,-0.167922 0.2666998,-0.849489 0.7803439,-1.234722 1.1754547,-1.234722 0.2864553,0 0.474133,0.227189 0.474133,0.6223 0,0.237066 -0.1185333,0.721077 -0.2074332,1.086555 l -0.2271887,0.898877 c -0.1580443,0.642055 -0.3654775,1.432276 -0.9581437,1.432276 -0.029633,0 -0.2666998,0 -0.4346219,-0.138288 0.2963331,-0.07902 0.385233,-0.325967 0.385233,-0.474133 0,-0.256822 -0.2074332,-0.316089 -0.3358442,-0.316089 -0.2469443,0 -0.4938885,0.207433 -0.4938885,0.5334 0,0.385233 0.4148663,0.612421 0.8692438,0.612421 0.474133,0 0.8000994,-0.375355 0.9680215,-0.671688 0.1975554,0.563033 0.6815661,0.671688 0.9383882,0.671688 1.0174103,0 1.5211766,-1.323621 1.5211766,-1.521176 z"
         style="-inkscape-font-specification:'Latin Modern Roman,  Italic'"
         id="path1104" />
      <path
         d="M 9.7885287,26.481898 H 9.628015 c -0.032103,0.192617 -0.077047,0.475121 -0.1412521,0.571429 -0.044944,0.05137 -0.4687002,0.05137 -0.6099523,0.05137 H 7.7211115 l 0.6805784,-0.661317 c 1.0016058,-0.886036 1.3868388,-1.232746 1.3868388,-1.874801 0,-0.731942 -0.5778495,-1.245587 -1.3611566,-1.245587 -0.7255222,0 -1.2006429,0.590691 -1.2006429,1.16212 0,0.359551 0.3210275,0.359551 0.3402891,0.359551 0.1091494,0 0.3338686,-0.07705 0.3338686,-0.340289 0,-0.166935 -0.1155699,-0.333869 -0.3402891,-0.333869 -0.051364,0 -0.064205,0 -0.083467,0.0064 0.1476727,-0.417336 0.4943824,-0.654896 0.8667743,-0.654896 0.5842701,0 0.8603538,0.520064 0.8603538,1.046549 0,0.513644 -0.3210276,1.020868 -0.6741578,1.418942 l -1.2327457,1.373998 c -0.070626,0.07063 -0.070626,0.08347 -0.070626,0.23756 h 2.3820241 z"
         style="-inkscape-font-specification:'Latin Modern Roman, '"
         id="path1106" />
    </g>
    <g
       aria-label="x1"
       transform="rotate(-0.52230975)"
       id="text987"
       style="font-size:9.87777px;font-family:'Times New Roman';-inkscape-font-specification:'Times New Roman, ';fill:#808080;stroke-width:0.264583">
      <path
         d="m 7.3682734,10.038354 c 0,-0.098778 -0.079022,-0.098778 -0.1481666,-0.098778 -0.1185332,0 -0.128411,0.00988 -0.1777998,0.1679226 -0.2666998,0.849488 -0.7605884,1.234721 -1.1754547,1.234721 -0.1975554,0 -0.4642552,-0.118533 -0.4642552,-0.632177 0,-0.237067 0.1086554,-0.661811 0.1876776,-0.9976553 L 5.9261189,8.3591331 c 0.1382888,-0.513644 0.4049886,-1.0569214 0.8692438,-1.0569214 0.029633,0 0.2765776,0 0.4346219,0.1382888 -0.3951108,0.098778 -0.3951108,0.474133 -0.3951108,0.474133 0,0.128411 0.0889,0.3160886 0.3457219,0.3160886 0.1777999,0 0.4840108,-0.1382888 0.4840108,-0.5235218 0,-0.5037663 -0.5729107,-0.6222995 -0.859366,-0.6222995 -0.5432774,0 -0.8692438,0.4840107 -0.9680215,0.6716883 C 5.619908,7.1639229 5.1358973,7.0849008 4.888953,7.0849008 c -0.987777,0 -1.5211766,1.2939879 -1.5211766,1.5211766 0,0.098778 0.098778,0.098778 0.1481665,0.098778 0.128411,0 0.128411,-0.00988 0.1777999,-0.1679221 0.2666998,-0.8494882 0.7803439,-1.2347213 1.1754547,-1.2347213 0.2864553,0 0.4741329,0.2271887 0.4741329,0.6222995 0,0.2370665 -0.1185332,0.7210773 -0.2074331,1.0865548 L 4.9087086,9.9099431 C 4.7506642,10.551998 4.543231,11.34222 3.9505648,11.34222 c -0.029633,0 -0.2666998,0 -0.4346219,-0.138289 0.2963331,-0.07902 0.3852331,-0.325966 0.3852331,-0.474133 0,-0.256822 -0.2074332,-0.316089 -0.3358442,-0.316089 -0.2469443,0 -0.4938885,0.207434 -0.4938885,0.5334 0,0.385233 0.4148663,0.612422 0.8692437,0.612422 0.474133,0 0.8000995,-0.375356 0.9680216,-0.671689 0.1975554,0.563033 0.6815661,0.671689 0.9383881,0.671689 1.0174104,0 1.5211767,-1.323621 1.5211767,-1.521177 z"
         style="-inkscape-font-specification:'Latin Modern Roman,  Italic'"
         id="path1113" />
      <path
         d="M 9.8214201,13.426429 V 13.227393 H 9.6159628 c -0.5778486,0 -0.5971102,-0.07063 -0.5971102,-0.308186 V 9.3172839 c 0,-0.154093 0,-0.1669341 -0.1476724,-0.1669341 C 8.4731067,9.5612644 7.9080992,9.5612644 7.702642,9.5612644 v 0.1990367 c 0.1284107,0 0.5072226,0 0.8410907,-0.166934 v 3.3258399 c 0,0.231139 -0.019262,0.308186 -0.5971102,0.308186 H 7.7411652 v 0.199036 c 0.2247189,-0.01926 0.7833059,-0.01926 1.0401274,-0.01926 0.2568216,0 0.8154086,0 1.0401275,0.01926 z"
         style="-inkscape-font-specification:'Latin Modern Roman, '"
         id="path1115" />
    </g>
    <g
       aria-label="y"
       id="text991"
       style="font-size:9.87778px;font-family:'Times New Roman';-inkscape-font-specification:'Times New Roman, ';fill:#808080;stroke-width:0.265">
      <path
         d="m 104.85418,25.678969 v -0.306211 c -0.22719,0.01976 -0.51365,0.02963 -0.74084,0.02963 l -0.85936,-0.02963 v 0.306211 c 0.30621,0.0099 0.46425,0.1778 0.46425,0.424745 0,0.09878 -0.01,0.118533 -0.0593,0.237066 l -0.99766,2.429934 -1.09643,-2.657122 c -0.0395,-0.09878 -0.0593,-0.138289 -0.0593,-0.177801 0,-0.256822 0.36548,-0.256822 0.55316,-0.256822 v -0.306211 l -1.07668,0.02963 c -0.2667,0 -0.66181,-0.0099 -0.95815,-0.02963 v 0.306211 c 0.47414,0 0.66181,0 0.8001,0.345722 l 1.48167,3.60539 -0.24694,0.582789 c -0.21732,0.543278 -0.49389,1.224845 -1.12607,1.224845 -0.0494,0 -0.27658,0 -0.46426,-0.1778 0.30621,-0.03951 0.38524,-0.256822 0.38524,-0.414867 0,-0.256822 -0.18768,-0.414867 -0.41487,-0.414867 -0.19756,0 -0.41487,0.128411 -0.41487,0.424745 0,0.4445 0.41487,0.8001 0.90876,0.8001 0.6223,0 1.02729,-0.563033 1.26435,-1.126067 l 1.73849,-4.217812 c 0.25683,-0.6223 0.76059,-0.632178 0.91864,-0.632178 z"
         style="-inkscape-font-specification:'Latin Modern Roman, '"
         id="path1122" />
    </g>
    <g
       aria-label="^"
       id="text995"
       style="font-size:9.87778px;font-family:Calibri;-inkscape-font-specification:Calibri;text-align:center;text-orientation:sideways;text-anchor:middle;fill:#808080;stroke:#808080;stroke-width:0.265;stroke-linecap:round">
      <g
         id="path1127">
        <path
           style="color:#000000;-inkscape-font-specification:'Latin Modern Roman,  Italic';stroke:none;stroke-linecap:butt;-inkscape-stroke:none"
           d="m 105.25471,23.759287 -2.4003,-1.580445 -3.190521,1.580445 0.05927,0.217311 2.973211,-1.214967 2.39042,1.214967 z"
           id="path1132" />
        <path
           style="color:#000000;-inkscape-font-specification:'Latin Modern Roman,  Italic';stroke:none;stroke-linecap:butt;-inkscape-stroke:none"
           d="m 102.86328,22.025391 -3.355468,1.664062 0.126954,0.466797 3.054684,-1.25 2.43555,1.238281 0.32227,-0.417969 -0.11914,-0.07813 z m -0.0176,0.30664 2.2168,1.458985 -0.0137,0.01758 -2.3457,-1.19336 -2.46094,1.00586 z"
           id="path1134" />
      </g>
    </g>
    <g
       aria-label="1"
       transform="rotate(-0.52230975)"
       id="text999"
       style="font-size:9.87777px;font-family:'Times New Roman';-inkscape-font-specification:'Times New Roman, ';fill:#aaa055;stroke-width:0.264583">
      <path
         d="M 8.3745532,-6.6610441 V -6.967255 H 8.0584645 c -0.8889993,0 -0.9186326,-0.1086555 -0.9186326,-0.474133 v -5.541429 c 0,-0.237067 0,-0.256822 -0.2271888,-0.256822 -0.6124217,0.632177 -1.4816655,0.632177 -1.7977542,0.632177 v 0.306211 c 0.1975554,0 0.7803439,0 1.293988,-0.256822 v 5.116685 c 0,0.3555998 -0.029633,0.474133 -0.9186327,0.474133 H 5.1741556 v 0.3062109 c 0.3457219,-0.029633 1.2050879,-0.029633 1.6001988,-0.029633 0.3951108,0 1.2544768,0 1.6001988,0.029633 z"
         style="-inkscape-font-specification:'Latin Modern Roman, '"
         id="path1136" />
    </g>
    <g
       aria-label="w0"
       transform="rotate(36.858453)"
       id="text1007"
       style="font-size:9.87778px;font-family:'Times New Roman';-inkscape-font-specification:'Times New Roman, ';fill:#aaa055;stroke-width:0.264583">
      <path
         d="m 16.433154,-19.49429 c 0,-0.345722 -0.118533,-0.651934 -0.404989,-0.651934 -0.227189,0 -0.474133,0.227189 -0.474133,0.454378 0,0.128411 0.06914,0.197556 0.128411,0.2667 0.237067,0.256823 0.2667,0.572912 0.2667,0.780345 0,0.395111 -0.316089,1.432278 -0.484011,1.837267 -0.217311,0.513645 -0.5334,0.918634 -0.987778,0.918634 -0.493889,0 -0.651934,-0.404989 -0.651934,-0.819856 0,-0.0889 0.0099,-0.325967 0.118534,-0.760589 l 0.414867,-1.659467 c 0.05927,-0.217311 0.158044,-0.612423 0.158044,-0.651934 0,-0.108655 -0.07902,-0.256822 -0.276578,-0.256822 -0.286455,0 -0.3556,0.2667 -0.375355,0.345722 l -0.563034,2.252134 c -0.06914,0.276578 -0.07902,0.484011 -0.07902,0.6223 0,0.108656 -0.306211,0.928512 -0.829734,0.928512 -0.691444,0 -0.691444,-0.730956 -0.691444,-0.859367 0,-0.5334 0.256822,-1.264356 0.563033,-2.074334 0.06915,-0.187678 0.118534,-0.335845 0.118534,-0.523522 0,-0.493889 -0.325967,-0.800101 -0.750712,-0.800101 -0.918633,0 -1.264356,1.461912 -1.264356,1.521179 0,0.09878 0.09878,0.09878 0.148167,0.09878 0.128411,0 0.138289,-0.01975 0.1778,-0.158044 0.07902,-0.306211 0.345723,-1.2446 0.918634,-1.2446 0.108655,0 0.217311,0.02963 0.217311,0.286455 0,0.237067 -0.09878,0.503767 -0.237067,0.889 -0.493889,1.343378 -0.493889,1.600201 -0.493889,1.866901 0,0.335844 0.07902,0.671689 0.335845,0.908756 0.316089,0.276577 0.760589,0.306211 0.928511,0.306211 0.316089,0 0.661811,-0.128411 0.958145,-0.632178 0.148166,0.365478 0.543278,0.632178 1.126067,0.632178 0.592666,0 1.007533,-0.404989 1.303867,-1.106312 0.296333,-0.671689 0.681566,-2.192867 0.681566,-2.716389 z"
         style="-inkscape-font-specification:'Latin Modern Roman,  Italic'"
         id="path1141" />
      <path
         d="m 19.060639,-15.859267 c 0,-0.513644 -0.0321,-1.027289 -0.256822,-1.50241 -0.295345,-0.616374 -0.821831,-0.719102 -1.091494,-0.719102 -0.385234,0 -0.853934,0.166934 -1.117177,0.764046 -0.205458,0.443018 -0.237561,0.943822 -0.237561,1.457466 0,0.481542 0.02568,1.059392 0.288925,1.547354 0.276084,0.520065 0.744785,0.648476 1.059392,0.648476 0.34671,0 0.834672,-0.134831 1.117177,-0.744784 0.205458,-0.443019 0.23756,-0.943822 0.23756,-1.451046 z m -0.532906,-0.07705 c 0,0.481542 0,0.91814 -0.07063,1.329056 -0.09631,0.609952 -0.46228,0.802569 -0.751205,0.802569 -0.250402,0 -0.629215,-0.160514 -0.744785,-0.776887 -0.07063,-0.385234 -0.07063,-0.975925 -0.07063,-1.354738 0,-0.410915 0,-0.834672 0.05137,-1.181382 0.12199,-0.764046 0.603532,-0.821831 0.764046,-0.821831 0.211878,0 0.635635,0.11557 0.757626,0.751205 0.06421,0.359551 0.06421,0.847513 0.06421,1.252008 z"
         style="-inkscape-font-specification:'Latin Modern Roman, '"
         id="path1143" />
    </g>
  </g>
</svg>
