<?xml version="1.0" encoding="UTF-8" standalone="no"?>
<svg
   class="main-svg"
   width="290"
   height="290"
   viewBox="0 0 290 290"
   version="1.1"
   id="svg196"
   xmlns="http://www.w3.org/2000/svg"
   xmlns:svg="http://www.w3.org/2000/svg">
  <defs
     id="defs-02eb47">
    <g
       class="clips"
       id="g16">
      <clipPath
         id="clip02eb47xyplot"
         class="plotclip">
        <rect
           width="240"
           height="220"
           id="rect4"
           x="0"
           y="0" />
      </clipPath>
      <clipPath
         class="axesclip"
         id="clip02eb47x">
        <rect
           x="80"
           y="0"
           width="240"
           height="400"
           id="rect7" />
      </clipPath>
      <clipPath
         class="axesclip"
         id="clip02eb47y">
        <rect
           x="0"
           y="100"
           width="400"
           height="220"
           id="rect10" />
      </clipPath>
      <clipPath
         class="axesclip"
         id="clip02eb47xy">
        <rect
           x="80"
           y="100"
           width="240"
           height="220"
           id="rect13" />
      </clipPath>
    </g>
    <g
       class="gradients"
       id="g18" />
    <g
       class="patterns"
       id="g20" />
    <marker
       style="overflow:visible"
       refX="0"
       refY="0"
       orient="auto-start-reverse"
       markerWidth="5.3244081"
       markerHeight="6.155385"
       viewBox="0 0 5.3244081 6.1553851"
       preserveAspectRatio="xMidYMid"
       id="TriangleStart8226">
      <path
         transform="scale(0.5)"
         style="fill:#808080;fill-rule:evenodd;stroke:#808080;stroke-width:1pt"
         d="M 5.77,0 -2.88,5 V -5 Z"
         id="path4229" />
    </marker>
    <marker
       style="overflow:visible"
       refX="0"
       refY="0"
       orient="auto-start-reverse"
       markerWidth="5.3244081"
       markerHeight="6.155385"
       viewBox="0 0 5.3244081 6.1553851"
       preserveAspectRatio="xMidYMid"
       id="TriangleStart7071">
      <path
         transform="scale(0.5)"
         style="fill:#808080;fill-rule:evenodd;stroke:#808080;stroke-width:1pt"
         d="M 5.77,0 -2.88,5 V -5 Z"
         id="path4232" />
    </marker>
  </defs>
  <g
     class="bglayer"
     id="g23" />
  <g
     class="layer-below"
     id="g29">
    <g
       class="imagelayer"
       id="g25" />
    <g
       class="shapelayer"
       id="g27" />
  </g>
  <g
     class="layer-subplot"
     id="g35">
    <g
       class="shapelayer"
       id="g31" />
    <g
       class="imagelayer"
       id="g33" />
  </g>
  <g
     class="minor-gridlayer"
     id="g41">
    <g
       class="x"
       id="g37" />
    <g
       class="y"
       id="g39" />
  </g>
  <g
     class="gridlayer"
     id="g57"
     transform="translate(-56.869773,-70.250896)">
    <g
       class="x"
       id="g45">
      <path
         class="xgrid crisp"
         transform="translate(200)"
         d="M 0,100 V 320"
         style="stroke:#808080;stroke-width:0.5px;stroke-opacity:1"
         id="path43" />
    </g>
    <g
       class="y"
       id="g55">
      <path
         class="ygrid crisp"
         transform="translate(0,265.91)"
         d="M 80,0 H 320"
         style="stroke:#808080;stroke-width:0.5px;stroke-opacity:1"
         id="path47" />
      <path
         class="ygrid crisp"
         transform="translate(0,222.82)"
         d="M 80,0 H 320"
         style="stroke:#808080;stroke-width:0.5px;stroke-opacity:1"
         id="path49" />
      <path
         class="ygrid crisp"
         transform="translate(0,179.73)"
         d="M 80,0 H 320"
         style="stroke:#808080;stroke-width:0.5px;stroke-opacity:1"
         id="path51" />
      <path
         class="ygrid crisp"
         transform="translate(0,136.64)"
         d="M 80,0 H 320"
         style="stroke:#808080;stroke-width:0.5px;stroke-opacity:1"
         id="path53" />
    </g>
  </g>
  <g
     class="zerolinelayer"
     id="g63">
    <path
       class="xzl zl crisp"
       d="M 23.130227,16.965352 V 249.7491"
       style="stroke:#808080;stroke-width:3px;stroke-opacity:1;marker-start:url(#TriangleStart8226)"
       id="path59" />
    <path
       class="yzl zl crisp"
       d="M 23.130227,238.7491 H 276.45712"
       style="fill:none;stroke:#808080;stroke-width:3px;stroke-opacity:1;marker-end:url(#TriangleStart7071)"
       id="path61" />
  </g>
  <path
     class="xlines-below"
     id="path65"
     d="" />
  <path
     class="ylines-below"
     id="path67"
     d="" />
  <g
     class="overlines-below"
     id="g69" />
  <g
     class="xaxislayer-below"
     id="g71" />
  <g
     class="yaxislayer-below"
     id="g73" />
  <g
     class="overaxes-below"
     id="g75" />
  <g
     class="plot"
     transform="translate(23.130227,29.749104)"
     clip-path="url(#clip02eb47xyplot)"
     id="g107">
    <g
       class="scatterlayer mlayer"
       id="g105">
      <g
         class="trace scatter trace0d5ec8"
         style="opacity:1;stroke-miterlimit:2"
         id="g89">
        <g
           class="fills"
           id="g77" />
        <g
           class="errorbars"
           id="g79" />
        <g
           class="lines"
           id="g83">
          <path
             class="js-line"
             d="m 2.42,11 2.43,29.87 2.42,17.47 4.85,22.01 2.43,7.86 4.84,12.39 2.43,5.08 7.27,12.39 2.43,3.45 9.69,11.56 2.43,2.46 9.69,8.65 2.43,1.92 12.12,8.47 2.42,1.51 14.55,8.11 2.42,1.21 19.4,8.65 2.42,0.97 24.24,8.64 2.43,0.78 29.09,8.37 2.42,0.62 33.94,7.96 2.43,0.52 L 240,209"
             style="opacity:1;vector-effect:non-scaling-stroke;fill:none;stroke:#636efa;stroke-width:3px;stroke-opacity:1"
             id="path81" />
        </g>
        <g
           class="points"
           id="g85" />
        <g
           class="text"
           id="g87" />
      </g>
      <g
         class="trace scatter trace4a85cc"
         style="opacity:1;stroke-miterlimit:2"
         id="g103">
        <g
           class="fills"
           id="g91" />
        <g
           class="errorbars"
           id="g93" />
        <g
           class="lines"
           id="g97">
          <path
             class="js-line"
             d="m 0,209 43.64,-8.65 2.42,-0.53 33.94,-8.29 2.42,-0.66 29.1,-8.79 2.42,-0.82 21.82,-8.19 2.42,-1.02 19.4,-9.1 2.42,-1.29 14.55,-8.65 2.42,-1.62 12.12,-9.2 2.43,-2.11 9.69,-9.61 2.43,-2.78 7.27,-9.62 2.42,-3.75 7.28,-13.72 2.42,-5.75 4.85,-14.5 2.42,-9.62 2.43,-12.39 2.42,-17.47 2.43,-29.87"
             style="opacity:1;vector-effect:non-scaling-stroke;fill:none;stroke:#ef553b;stroke-width:3px;stroke-opacity:1"
             id="path95" />
        </g>
        <g
           class="points"
           id="g99" />
        <g
           class="text"
           id="g101" />
      </g>
    </g>
  </g>
  <g
     class="overplot"
     id="g109" />
  <path
     class="xlines-above crisp"
     d="M 0,0"
     style="fill:none"
     id="path111" />
  <path
     class="ylines-above crisp"
     d="M 0,0"
     style="fill:none"
     id="path113" />
  <g
     class="overlines-above"
     id="g115" />
  <g
     class="xaxislayer-above"
     id="g129"
     style="fill:#808080;fill-opacity:1"
     transform="translate(-56.869773,-70.250896)">
    <g
       class="xtick"
       id="g119"
       style="fill:#808080;fill-opacity:1">
      <text
         text-anchor="middle"
         x="0"
         y="333"
         transform="translate(80)"
         style="font-size:12px;font-family:'Open Sans', verdana, arial, sans-serif;white-space:pre;opacity:1;fill:#808080;fill-opacity:1"
         id="text117">0</text>
    </g>
    <g
       class="xtick"
       id="g123"
       style="fill:#808080;fill-opacity:1">
      <text
         text-anchor="middle"
         x="0"
         y="333"
         style="font-size:12px;font-family:'Open Sans', verdana, arial, sans-serif;white-space:pre;opacity:1;fill:#808080;fill-opacity:1"
         transform="translate(200)"
         id="text121">0.5</text>
    </g>
    <g
       class="xtick"
       id="g127"
       style="fill:#808080;fill-opacity:1">
      <text
         text-anchor="middle"
         x="0"
         y="333"
         style="font-size:12px;font-family:'Open Sans', verdana, arial, sans-serif;white-space:pre;opacity:1;fill:#808080;fill-opacity:1"
         transform="translate(320)"
         id="text125">1</text>
    </g>
  </g>
  <g
     class="yaxislayer-above"
     id="g151"
     transform="translate(-61.938639,-70.58882)"
     style="fill:#808080;fill-opacity:1">
    <g
       class="ytick"
       id="g133"
       style="fill:#808080;fill-opacity:1">
      <text
         text-anchor="end"
         x="79"
         y="4.1999998"
         transform="translate(0,309)"
         style="font-size:12px;font-family:'Open Sans', verdana, arial, sans-serif;white-space:pre;opacity:1;fill:#808080;fill-opacity:1"
         id="text131">0</text>
    </g>
    <g
       class="ytick"
       id="g137"
       style="fill:#808080;fill-opacity:1">
      <text
         text-anchor="end"
         x="79"
         y="4.1999998"
         style="font-size:12px;font-family:'Open Sans', verdana, arial, sans-serif;white-space:pre;opacity:1;fill:#808080;fill-opacity:1"
         transform="translate(0,265.91)"
         id="text135">1</text>
    </g>
    <g
       class="ytick"
       id="g141"
       style="fill:#808080;fill-opacity:1">
      <text
         text-anchor="end"
         x="79"
         y="4.1999998"
         style="font-size:12px;font-family:'Open Sans', verdana, arial, sans-serif;white-space:pre;opacity:1;fill:#808080;fill-opacity:1"
         transform="translate(0,222.82)"
         id="text139">2</text>
    </g>
    <g
       class="ytick"
       id="g145"
       style="fill:#808080;fill-opacity:1">
      <text
         text-anchor="end"
         x="79"
         y="4.1999998"
         style="font-size:12px;font-family:'Open Sans', verdana, arial, sans-serif;white-space:pre;opacity:1;fill:#808080;fill-opacity:1"
         transform="translate(0,179.73)"
         id="text143">3</text>
    </g>
    <g
       class="ytick"
       id="g149"
       style="fill:#808080;fill-opacity:1">
      <text
         text-anchor="end"
         x="79"
         y="4.1999998"
         style="font-size:12px;font-family:'Open Sans', verdana, arial, sans-serif;white-space:pre;opacity:1;fill:#808080;fill-opacity:1"
         transform="translate(0,136.64)"
         id="text147">4</text>
    </g>
  </g>
  <g
     class="overaxes-above"
     id="g153" />
  <g
     class="polarlayer"
     id="g159" />
  <g
     class="smithlayer"
     id="g161" />
  <g
     class="ternarylayer"
     id="g163" />
  <g
     class="geolayer"
     id="g165" />
  <g
     class="funnelarealayer"
     id="g167" />
  <g
     class="pielayer"
     id="g169" />
  <g
     class="iciclelayer"
     id="g171" />
  <g
     class="treemaplayer"
     id="g173" />
  <g
     class="sunburstlayer"
     id="g175" />
  <g
     class="glimages"
     id="g177" />
  <defs
     id="topdefs-02eb47">
    <g
       class="clips"
       id="g179" />
  </defs>
  <g
     class="layer-above"
     id="g186">
    <g
       class="imagelayer"
       id="g182" />
    <g
       class="shapelayer"
       id="g184" />
  </g>
  <g
     class="infolayer"
     id="g194">
    <g
       class="g-gtitle"
       id="g188" />
    <g
       class="g-xtitle"
       id="g190" />
    <g
       class="g-ytitle"
       id="g192" />
  </g>
  <g
     aria-label="z"
     id="text1605"
     style="font-style:italic;font-size:29.3333px;font-family:'Latin Modern Roman';-inkscape-font-specification:'Latin Modern Roman,  Italic';text-orientation:sideways;fill:#808080;stroke-width:0.1;stroke-linecap:round"
     transform="translate(-56.869773,-70.250896)">
    <path
       d="m 204.47256,351.8476 c 0,-0.29333 -0.352,-0.29333 -0.44,-0.29333 -0.352,0 -0.38133,0.088 -0.49867,0.46933 -0.528,1.46667 -1.93599,2.464 -3.19733,2.464 -0.58666,0 -1.056,-0.20533 -1.64266,-0.46933 -0.88,-0.38133 -1.232,-0.49867 -1.81867,-0.49867 -0.14666,0 -0.38133,0 -0.528,0.0293 0.20534,-0.23467 0.82134,-0.968 1.64267,-1.78933 l 4.25333,-4.19467 c 1.73066,-1.70133 3.13866,-3.93066 3.13866,-4.19466 0,-0.29333 -0.23467,-0.29333 -0.41066,-0.29333 -0.352,0 -0.38134,0.0293 -0.55734,0.38133 -0.968,1.672 -1.34933,1.81867 -1.81866,1.81867 -0.528,0 -0.82133,-0.29334 -1.37867,-1.056 -0.352,-0.46934 -0.85066,-1.144 -1.78933,-1.144 -2.17066,0 -3.43199,2.75733 -3.43199,3.34399 0,0.264 0.20533,0.32267 0.43999,0.32267 0.352,0 0.38134,-0.0587 0.528,-0.41067 0.23467,-0.64533 1.08534,-1.37866 2.17067,-1.37866 0.58666,0 1.11466,0.23467 1.76,0.528 0.968,0.44 1.29066,0.44 1.73066,0.44 -0.44,0.49866 -0.704,0.82133 -1.17333,1.29066 l -4.81066,4.78133 c -1.64267,1.61333 -3.05067,3.784 -3.05067,4.07733 0,0.29333 0.264,0.29333 0.44,0.29333 0.32267,0 0.352,-0.0587 0.46934,-0.264 0.41066,-0.616 1.20266,-1.93599 2.31733,-1.93599 0.64533,0 0.88,0.32266 1.408,1.05599 0.46933,0.58667 0.90933,1.144 1.81866,1.144 2.84533,0 4.42933,-3.81333 4.42933,-4.51733 z"
       id="path3690" />
  </g>
  <g
     aria-label="-ln(z)"
     id="text1665"
     style="font-style:italic;font-size:29.3333px;font-family:'Latin Modern Roman';-inkscape-font-specification:'Latin Modern Roman,  Italic';text-orientation:sideways;fill:#636ef9;fill-opacity:0.901961;stroke-width:0.1;stroke-linecap:round"
     transform="translate(-56.869773,-70.250896)">
    <path
       d="m 100.99935,118.19287 c 0.0587,-0.176 0.23466,-0.82133 0.23466,-0.93867 0,-0.35199 -0.264,-0.35199 -0.73333,-0.35199 h -5.719994 c -0.586666,0 -0.645332,0 -0.762665,0.38133 -0.05867,0.176 -0.205333,0.73333 -0.205333,0.88 0,0.38133 0.234666,0.38133 0.762665,0.38133 h 5.631997 c 0.55733,0 0.704,0 0.792,-0.352 z"
       id="path3659" />
    <path
       d="m 110.00466,119.83554 c 0,-0.29334 -0.23466,-0.29334 -0.44,-0.29334 -0.14666,0 -0.32266,0 -0.41066,0.14667 l -0.20534,0.73333 c -0.49866,2.05333 -1.05599,3.28533 -1.87733,3.28533 -0.76266,0 -0.76266,-0.792 -0.76266,-1.20266 0,-0.20534 0,-0.64534 0.176,-1.34934 l 4.19466,-16.74931 c 0.0293,-0.088 0.088,-0.38133 0.088,-0.38133 0,-0.264 -0.176,-0.352 -0.41067,-0.352 -0.088,0 -0.38133,0.0293 -0.46933,0.0587 l -2.904,0.23467 c -0.352,0.0293 -0.67466,0.0587 -0.67466,0.616 0,0.32267 0.29333,0.32267 0.704,0.32267 1.40799,0 1.46666,0.20533 1.46666,0.49866 0,0.088 -0.088,0.49867 -0.088,0.49867 l -3.66666,14.66665 c -0.0293,0.11733 -0.176,0.704 -0.176,1.144 0,1.55466 1.056,2.63999 2.464,2.63999 1.11466,0 1.70133,-0.792 2.08266,-1.52533 0.49867,-1.02666 0.90933,-2.90399 0.90933,-2.99199 z"
       id="path3661" />
    <path
       d="m 126.48999,119.83554 c 0,-0.29334 -0.23466,-0.29334 -0.44,-0.29334 -0.38133,0 -0.38133,0.0587 -0.49866,0.49867 -0.23467,0.792 -1.02667,3.66666 -2.728,3.66666 -0.616,0 -0.64533,-0.44 -0.64533,-0.85066 0,-0.73334 0.29333,-1.496 0.528,-2.2 0.58666,-1.55467 1.78933,-4.84 1.78933,-6.54133 0,-2.40533 -1.61333,-3.05066 -3.05067,-3.05066 -2.40533,0 -3.81332,1.76 -4.19466,2.31733 -0.20533,-1.43733 -1.20266,-2.31733 -2.46399,-2.31733 -1.056,0 -1.64267,0.67466 -2.112,1.55466 -0.55733,1.17334 -0.93867,2.96267 -0.93867,2.96267 0,0.29333 0.29334,0.29333 0.44,0.29333 0.38133,0 0.41067,-0.0293 0.55733,-0.67467 0.528,-2.05333 1.08534,-3.49066 1.99467,-3.49066 0.76266,0 0.76266,0.85067 0.76266,1.17333 0,0.46934 -0.088,1.02667 -0.20533,1.496 l -2.2,8.79999 c -0.0587,0.176 -0.088,0.32267 -0.088,0.41067 0,0.32266 0.23467,0.76266 0.82134,0.76266 0.352,0 0.85066,-0.20533 1.056,-0.76266 l 1.17333,-4.69333 c 0.14666,-0.64533 0.32266,-1.26133 0.46933,-1.90666 0.38133,-1.496 0.38133,-1.52534 0.88,-2.376 0.41067,-0.704 1.73066,-2.904 3.95999,-2.904 1.29067,0 1.34934,1.32 1.34934,1.936 0,1.81866 -1.29067,5.30933 -1.70134,6.48266 -0.38133,0.99733 -0.46933,1.26133 -0.46933,1.87733 0,1.29066 0.82133,2.34666 2.22933,2.34666 2.728,0 3.72533,-4.37066 3.72533,-4.51732 z"
       id="path3663" />
    <path
       d="m 133.73533,131.07019 c 0,0 0,-0.11733 -0.20534,-0.41067 -1.58399,-2.40533 -1.81866,-4.89866 -1.81866,-6.95199 0,-3.98933 1.73066,-14.87198 8.77066,-20.85598 0.41066,-0.41066 0.44,-0.43999 0.44,-0.52799 0,-0.20534 -0.11734,-0.29334 -0.29334,-0.29334 -0.32266,0 -3.69599,2.376 -6.24799,6.54133 -3.22666,5.30933 -4.136,10.94132 -4.136,14.07998 0,1.73067 0.264,3.57866 0.792,5.04533 0.73334,1.96533 1.99467,3.66666 2.40533,3.66666 0.176,0 0.29334,-0.11733 0.29334,-0.29333 z"
       id="path3665" />
    <path
       d="m 150.48465,119.83554 c 0,-0.29334 -0.352,-0.29334 -0.44,-0.29334 -0.352,0 -0.38133,0.088 -0.49866,0.46934 -0.528,1.46666 -1.936,2.46399 -3.19733,2.46399 -0.58667,0 -1.056,-0.20533 -1.64267,-0.46933 -0.88,-0.38133 -1.232,-0.49867 -1.81866,-0.49867 -0.14667,0 -0.38134,0 -0.528,0.0293 0.20533,-0.23467 0.82133,-0.968 1.64266,-1.78933 l 4.25333,-4.19467 c 1.73067,-1.70133 3.13866,-3.93066 3.13866,-4.19466 0,-0.29333 -0.23466,-0.29333 -0.41066,-0.29333 -0.352,0 -0.38134,0.0293 -0.55734,0.38133 -0.96799,1.672 -1.34933,1.81867 -1.81866,1.81867 -0.528,0 -0.82133,-0.29334 -1.37866,-1.056 -0.352,-0.46934 -0.85067,-1.144 -1.78934,-1.144 -2.17066,0 -3.43199,2.75733 -3.43199,3.34399 0,0.264 0.20533,0.32267 0.44,0.32267 0.352,0 0.38133,-0.0587 0.528,-0.41067 0.23466,-0.64533 1.08533,-1.37866 2.17066,-1.37866 0.58667,0 1.11467,0.23467 1.76,0.528 0.968,0.44 1.29066,0.44 1.73066,0.44 -0.44,0.49866 -0.704,0.82133 -1.17333,1.29066 l -4.81066,4.78133 c -1.64266,1.61333 -3.05066,3.784 -3.05066,4.07733 0,0.29333 0.264,0.29333 0.44,0.29333 0.32266,0 0.352,-0.0587 0.46933,-0.264 0.41067,-0.616 1.20266,-1.93599 2.31733,-1.93599 0.64533,0 0.88,0.32266 1.408,1.05599 0.46933,0.58667 0.90933,1.144 1.81866,1.144 2.84533,0 4.42933,-3.81333 4.42933,-4.51732 z"
       id="path3667" />
    <path
       d="m 160.98599,110.74221 c 0,-1.73066 -0.264,-3.57866 -0.792,-5.04533 -0.73333,-1.96533 -1.99467,-3.66666 -2.40533,-3.66666 -0.176,0 -0.29334,0.11734 -0.29334,0.29334 0,0 0,0.11733 0.20534,0.41066 1.584,2.40533 1.81866,4.89866 1.81866,6.95199 0,3.98933 -1.73066,14.87199 -8.77065,20.85598 -0.41067,0.41067 -0.44,0.44 -0.44,0.528 0,0.20533 0.11733,0.29333 0.29333,0.29333 0.32267,0 3.69599,-2.376 6.24799,-6.54132 3.22666,-5.30933 4.136,-10.94132 4.136,-14.07999 z"
       id="path3669" />
  </g>
  <g
     aria-label="-ln(1-z)"
     id="text1665-3"
     style="font-style:italic;font-size:29.3333px;font-family:'Latin Modern Roman';-inkscape-font-specification:'Latin Modern Roman,  Italic';text-orientation:sideways;fill:#ef553b;fill-opacity:0.886275;stroke-width:0.1;stroke-linecap:round"
     transform="translate(-56.869773,-70.250896)">
    <path
       d="m 225.72597,119.51843 c 0.0587,-0.176 0.23467,-0.82133 0.23467,-0.93866 0,-0.352 -0.264,-0.352 -0.73334,-0.352 h -5.71999 c -0.58667,0 -0.64533,0 -0.76267,0.38133 -0.0587,0.176 -0.20533,0.73333 -0.20533,0.88 0,0.38133 0.23467,0.38133 0.76267,0.38133 h 5.63199 c 0.55733,0 0.704,0 0.792,-0.352 z"
       id="path3620" />
    <path
       d="m 234.73129,121.1611 c 0,-0.29334 -0.23467,-0.29334 -0.44,-0.29334 -0.14667,0 -0.32267,0 -0.41067,0.14667 l -0.20533,0.73333 c -0.49867,2.05333 -1.056,3.28533 -1.87733,3.28533 -0.76267,0 -0.76267,-0.792 -0.76267,-1.20266 0,-0.20534 0,-0.64534 0.176,-1.34933 l 4.19466,-16.74932 c 0.0293,-0.088 0.088,-0.38133 0.088,-0.38133 0,-0.264 -0.176,-0.352 -0.41066,-0.352 -0.088,0 -0.38134,0.0293 -0.46934,0.0587 l -2.90399,0.23466 c -0.352,0.0293 -0.67467,0.0587 -0.67467,0.616 0,0.32267 0.29333,0.32267 0.704,0.32267 1.408,0 1.46666,0.20533 1.46666,0.49866 0,0.088 -0.088,0.49867 -0.088,0.49867 l -3.66666,14.66665 c -0.0293,0.11733 -0.176,0.704 -0.176,1.144 0,1.55466 1.056,2.63999 2.464,2.63999 1.11467,0 1.70133,-0.79199 2.08266,-1.52533 0.49867,-1.02666 0.90934,-2.90399 0.90934,-2.99199 z"
       id="path3622" />
    <path
       d="m 251.21662,121.1611 c 0,-0.29334 -0.23467,-0.29334 -0.44,-0.29334 -0.38134,0 -0.38134,0.0587 -0.49867,0.49867 -0.23467,0.792 -1.02667,3.66666 -2.728,3.66666 -0.616,0 -0.64533,-0.44 -0.64533,-0.85066 0,-0.73334 0.29333,-1.496 0.528,-2.2 0.58667,-1.55467 1.78933,-4.84 1.78933,-6.54133 0,-2.40533 -1.61333,-3.05066 -3.05066,-3.05066 -2.40533,0 -3.81333,1.76 -4.19466,2.31733 -0.20534,-1.43733 -1.20267,-2.31733 -2.464,-2.31733 -1.056,0 -1.64267,0.67467 -2.112,1.55467 -0.55733,1.17333 -0.93866,2.96266 -0.93866,2.96266 0,0.29333 0.29333,0.29333 0.44,0.29333 0.38133,0 0.41066,-0.0293 0.55733,-0.67466 0.528,-2.05334 1.08533,-3.49067 1.99466,-3.49067 0.76267,0 0.76267,0.85067 0.76267,1.17333 0,0.46934 -0.088,1.02667 -0.20534,1.496 l -2.19999,8.79999 c -0.0587,0.176 -0.088,0.32267 -0.088,0.41067 0,0.32267 0.23466,0.76266 0.82133,0.76266 0.352,0 0.85067,-0.20533 1.056,-0.76266 l 1.17333,-4.69333 c 0.14667,-0.64533 0.32267,-1.26133 0.46933,-1.90666 0.38134,-1.496 0.38134,-1.52533 0.88,-2.376 0.41067,-0.704 1.73067,-2.904 3.96,-2.904 1.29066,0 1.34933,1.32 1.34933,1.936 0,1.81867 -1.29067,5.30933 -1.70133,6.48266 -0.38133,0.99733 -0.46933,1.26133 -0.46933,1.87733 0,1.29067 0.82133,2.34666 2.22933,2.34666 2.72799,0 3.72533,-4.37066 3.72533,-4.51732 z"
       id="path3624" />
    <path
       d="m 258.46195,132.39575 c 0,0 0,-0.11733 -0.20533,-0.41067 -1.584,-2.40533 -1.81867,-4.89866 -1.81867,-6.95199 0,-3.98933 1.73067,-14.87198 8.77066,-20.85597 0.41067,-0.41067 0.44,-0.44 0.44,-0.528 0,-0.20534 -0.11733,-0.29334 -0.29333,-0.29334 -0.32267,0 -3.696,2.376 -6.248,6.54133 -3.22666,5.30933 -4.13599,10.94132 -4.13599,14.07998 0,1.73067 0.264,3.57867 0.792,5.04533 0.73333,1.96533 1.99466,3.66666 2.40533,3.66666 0.176,0 0.29333,-0.11733 0.29333,-0.29333 z"
       id="path3626" />
    <path
       d="m 274.74194,124.79843 c 0,-0.352 -0.29333,-0.352 -0.76266,-0.352 h -0.23467 c -0.38133,0 -0.88,-0.0293 -1.26133,-0.0587 -0.64533,-0.088 -0.82133,-0.11733 -0.82133,-0.528 0,-0.176 0.0587,-0.44 0.088,-0.55733 l 4.19466,-16.74932 c 0.0293,-0.088 0.088,-0.38133 0.088,-0.38133 0,-0.23467 -0.176,-0.352 -0.352,-0.352 -0.176,0 -0.20534,0.0293 -0.55733,0.46933 -2.25867,3.02133 -4.312,3.22667 -5.16267,3.31467 -0.14666,0.0293 -0.46933,0.0587 -0.46933,0.55733 0,0.352 0.352,0.352 0.46933,0.352 0.44,0 1.87734,-0.176 3.256,-1.20267 l -3.46133,13.90399 c -0.23467,0.93866 -0.46933,1.232 -2.75733,1.232 h -0.23467 c -0.49866,0 -0.82133,0 -0.82133,0.55733 0,0.352 0.32267,0.352 0.44,0.352 1.26133,0 2.58133,-0.088 3.84266,-0.088 1.29067,0 2.64,0.088 3.93067,0.088 0.20533,0 0.58666,0 0.58666,-0.55733 z"
       id="path3628" />
    <path
       d="m 287.20859,119.51843 c 0.0587,-0.176 0.23466,-0.82133 0.23466,-0.93866 0,-0.352 -0.264,-0.352 -0.73333,-0.352 h -5.71999 c -0.58667,0 -0.64534,0 -0.76267,0.38133 -0.0587,0.176 -0.20533,0.73333 -0.20533,0.88 0,0.38133 0.23466,0.38133 0.76266,0.38133 h 5.632 c 0.55733,0 0.704,0 0.792,-0.352 z"
       id="path3630" />
    <path
       d="m 300.7019,121.1611 c 0,-0.29334 -0.352,-0.29334 -0.44,-0.29334 -0.352,0 -0.38133,0.088 -0.49867,0.46934 -0.528,1.46666 -1.93599,2.46399 -3.19733,2.46399 -0.58666,0 -1.056,-0.20533 -1.64266,-0.46933 -0.88,-0.38133 -1.232,-0.49867 -1.81867,-0.49867 -0.14666,0 -0.38133,0 -0.528,0.0293 0.20534,-0.23467 0.82134,-0.968 1.64267,-1.78933 l 4.25333,-4.19466 c 1.73066,-1.70134 3.13866,-3.93067 3.13866,-4.19467 0,-0.29333 -0.23467,-0.29333 -0.41067,-0.29333 -0.35199,0 -0.38133,0.0293 -0.55733,0.38133 -0.968,1.672 -1.34933,1.81867 -1.81866,1.81867 -0.528,0 -0.82133,-0.29334 -1.37867,-1.056 -0.352,-0.46933 -0.85066,-1.144 -1.78933,-1.144 -2.17066,0 -3.432,2.75733 -3.432,3.344 0,0.264 0.20534,0.32266 0.44,0.32266 0.352,0 0.38134,-0.0587 0.528,-0.41066 0.23467,-0.64534 1.08534,-1.37867 2.17067,-1.37867 0.58666,0 1.11466,0.23467 1.76,0.528 0.96799,0.44 1.29066,0.44 1.73066,0.44 -0.44,0.49867 -0.704,0.82133 -1.17333,1.29067 l -4.81066,4.78132 c -1.64267,1.61333 -3.05067,3.784 -3.05067,4.07733 0,0.29333 0.264,0.29333 0.44,0.29333 0.32267,0 0.352,-0.0587 0.46934,-0.26399 0.41066,-0.616 1.20266,-1.936 2.31733,-1.936 0.64533,0 0.88,0.32266 1.408,1.056 0.46933,0.58666 0.90933,1.14399 1.81866,1.14399 2.84533,0 4.42933,-3.81332 4.42933,-4.51732 z"
       id="path3632" />
    <path
       d="m 311.20323,112.06777 c 0,-1.73066 -0.264,-3.57866 -0.792,-5.04532 -0.73333,-1.96533 -1.99466,-3.66667 -2.40533,-3.66667 -0.176,0 -0.29333,0.11734 -0.29333,0.29334 0,0 0,0.11733 0.20533,0.41066 1.584,2.40533 1.81867,4.89866 1.81867,6.952 0,3.98932 -1.73067,14.87198 -8.77066,20.85597 -0.41067,0.41067 -0.44,0.44 -0.44,0.528 0,0.20533 0.11733,0.29333 0.29333,0.29333 0.32267,0 3.696,-2.37599 6.24799,-6.54132 3.22667,-5.30933 4.136,-10.94132 4.136,-14.07999 z"
       id="path3634" />
  </g>
</svg>
