<?xml version="1.0" encoding="UTF-8" standalone="no"?>
<!-- Created with Inkscape (http://www.inkscape.org/) -->

<svg
   version="1.1"
   id="svg2"
   width="900"
   height="250"
   viewBox="0 0 900 250"
   sodipodi:docname="localOpt.svg"
   inkscape:version="1.2.2 (732a01da63, 2022-12-09)"
   xmlns:inkscape="http://www.inkscape.org/namespaces/inkscape"
   xmlns:sodipodi="http://sodipodi.sourceforge.net/DTD/sodipodi-0.dtd"
   xmlns="http://www.w3.org/2000/svg"
   xmlns:svg="http://www.w3.org/2000/svg">
  <defs
     id="defs6" />
  <sodipodi:namedview
     id="namedview4"
     pagecolor="#505050"
     bordercolor="#ffffff"
     borderopacity="1"
     inkscape:showpageshadow="0"
     inkscape:pageopacity="0"
     inkscape:pagecheckerboard="1"
     inkscape:deskcolor="#505050"
     showgrid="false"
     inkscape:zoom="1.5615672"
     inkscape:cx="349.96894"
     inkscape:cy="23.694146"
     inkscape:window-width="1920"
     inkscape:window-height="1017"
     inkscape:window-x="1912"
     inkscape:window-y="32"
     inkscape:window-maximized="1"
     inkscape:current-layer="g8" />
  <g
     inkscape:groupmode="layer"
     inkscape:label="Image"
     id="g8"
     transform="translate(290.9313,-316.55061)">
    <g
       id="g2165"
       transform="translate(12.03435,20.185005)">
      <path
         style="fill:#b0b0b0"
         d="m -101.98325,328.72923 -1.23411,-1.48701 0.61399,-2.44634 0.61399,-2.44633 2.11521,-0.67134 2.1152,-0.67134 2.0623,2.0623 2.0623,2.06229 -1.15839,2.5424 -1.15839,2.54239 h -2.399 -2.39899 z"
         id="path1070" />
      <path
         style="fill:#b0b0b0"
         d="m -154.95526,348.28869 -1.0316,-1.92756 0.61407,-1.60022 0.61406,-1.60022 1.72774,-0.92466 1.72775,-0.92466 2.1546,1.50914 2.15461,1.50915 v 1.74329 1.7433 l -1.2,1.2 -1.2,1.2 h -2.26482 -2.26481 z"
         id="path1068" />
      <path
         style="fill:#b0b0b0"
         d="m -131.32736,374.54958 -0.66667,-0.66666 v -1.67835 -1.67835 l 2,-1.80997 2,-1.80998 v -1.69002 -1.69003 l -2,-1.80997 -2,-1.80998 v -1.73802 -1.73802 l 1.47292,-0.56522 1.47292,-0.56521 2.92144,2.45822 2.92143,2.45823 h 0.95066 0.95065 l 1.80998,-2 1.80998,-2 h 1.87639 1.8764 l 0.59513,1.55088 0.59513,1.55088 -2.21639,2.35924 -2.2164,2.35924 2.08988,2.08988 2.08988,2.08988 v 2.37755 2.37756 l -1.42817,1.18527 -1.42816,1.18527 -2.98149,-1.54178 -2.98149,-1.54179 -0.41824,-1.25475 -0.41825,-1.25474 -3.24883,2.7337 -3.24882,2.73371 h -0.75661 -0.75661 z"
         id="path1066" />
      <path
         style="fill:#b0b0b0"
         d="m -93.49771,374.21219 -1.81365,-2.00407 1.13723,-2.49593 1.13722,-2.49594 h 2.32144 2.32144 l 1.2,1.2 1.2,1.2 v 1.72857 1.72857 l -1.57143,1.57143 -1.57143,1.57143 h -1.27358 -1.27358 z"
         id="path1064" />
      <path
         style="fill:#b0b0b0"
         d="m -164.75549,376.46634 -1.26146,-0.4244 -1.02372,-1.91284 -1.02373,-1.91285 1.07037,-2 1.07037,-2 h 2.34237 2.34237 l 1.23411,1.48701 1.23411,1.48702 -0.60072,2.39349 -0.60073,2.39349 -1.76094,0.45674 -1.76094,0.45674 z"
         id="path1062" />
      <path
         style="fill:#b0b0b0"
         d="m -139.98325,399.72924 -1.23411,-1.48702 0.60072,-2.39349 0.60073,-2.3935 2.01459,-0.52683 2.01459,-0.52682 2.21039,1.78986 2.21039,1.78986 -1.1926,2.61748 -1.1926,2.61747 h -2.399 -2.39899 z"
         id="path1060" />
      <path
         style="fill:#b0b0b0"
         d="m -195.98325,434.72924 -1.23411,-1.48702 0.61399,-2.44633 0.61399,-2.44634 1.9599,-0.62205 1.9599,-0.62205 2.03778,1.09058 2.03777,1.09059 v 2.26481 2.26482 l -1.2,1.2 -1.2,1.2 h -2.17756 -2.17755 z"
         id="path1058" />
      <path
         style="fill:#b0b0b0"
         d="m -242.4226,440.64482 -1.57143,-1.57143 v -0.70606 -0.70607 l 1.59656,-2.2794 1.59655,-2.27941 2.03885,0.3069 2.03884,0.3069 1.35137,2.04638 1.35138,2.04638 -1.54348,2.20362 -1.54348,2.20362 h -1.87187 -1.87186 z"
         id="path1056" />
      <path
         style="fill:#b0b0b0"
         d="m -94.38977,446.06164 -1.50914,-2.1546 1.01785,-1.90188 1.01786,-1.90188 1.35644,-0.52052 1.35645,-0.52052 2.07814,1.11219 2.07814,1.11219 v 2.26481 2.26482 l -1.2,1.2 -1.2,1.2 h -1.7433 -1.74329 z"
         id="path1054" />
      <path
         style="fill:#b0b0b0"
         d="m -225.65531,464.65655 -0.59851,-1.5597 2.62989,-2.74502 2.6299,-2.74502 v -0.89056 -0.89056 l -2.5311,-2.6419 -2.53109,-2.64189 0.63808,-1.66283 0.63809,-1.66282 h 1.73802 1.73802 l 1.80998,2 1.80998,2 h 1.3855 1.38551 l 2.88732,-2.13469 2.88732,-2.13469 1.57218,0.60331 1.57219,0.6033 v 1.38536 1.38536 l -2.5,2.69755 -2.5,2.69754 v 0.64376 0.64376 l 2.6299,2.74502 2.62989,2.74502 -0.59851,1.5597 -0.59851,1.5597 h -1.8764 -1.87639 l -1.80998,-2 -1.80998,-2 h -1.69002 -1.69002 l -1.80998,2 -1.80998,2 h -1.87639 -1.8764 z"
         id="path1052" />
      <path
         style="fill:#b0b0b0"
         d="m -58.39787,465.91022 -1.7861,-1.30603 0.34497,-2.34184 0.34497,-2.34184 1.75,-1.09702 1.75,-1.09701 1.75,1.09701 1.75,1.09702 0.34497,2.34184 0.34497,2.34184 -1.7861,1.30603 -1.7861,1.30603 h -0.61774 -0.61774 z"
         id="path1050" />
      <path
         style="fill:#b0b0b0"
         d="m -122.49366,464.85715 -1.54574,-2.35909 0.63299,-1.64954 0.63298,-1.64953 2.40269,-0.60304 2.40268,-0.60303 1.48702,1.23411 1.48701,1.23411 v 1.80613 1.80612 l -1.57143,1.57143 -1.57143,1.57143 h -1.40552 -1.40551 z"
         id="path1048" />
      <path
         style="fill:#b0b0b0"
         d="m -190.99403,471.21625 -2,-2 v -0.80887 -0.80887 l 1.29931,-1.77692 1.29932,-1.77692 2.84281,0.33579 2.84282,0.33579 0.83434,2.27352 0.83435,2.27353 -1.97647,1.97647 -1.97648,1.97648 h -1 -1 z"
         id="path1046" />
      <path
         style="fill:#b0b0b0"
         d="m -98.4226,481.64482 -1.57143,-1.57143 v -1.38914 -1.38915 l 1.25,-0.98923 1.25,-0.98924 4.25,-3.66655 4.25,-3.66655 v -1.20933 -1.20932 l -2.5,-2.34863 -2.5,-2.34863 v -1.35707 -1.35707 l 1.5597,-0.59851 1.5597,-0.59851 2.74502,2.62989 2.74502,2.6299 h 0.89056 0.89056 l 2.74502,-2.6299 2.74502,-2.62989 1.5597,0.59851 1.5597,0.59851 v 1.35707 1.35707 l -2.5,2.34863 -2.5,2.34863 v 1.15137 1.15137 l 2.5,2.34863 2.5,2.34863 v 1.35707 1.35707 l -1.55088,0.59513 -1.55088,0.59513 -2.19912,-1.97775 -2.19912,-1.97775 -1.33126,-0.758 -1.33126,-0.75801 -2.91874,2.79633 -2.91874,2.79633 v 1.74148 1.74148 l -1.57143,1.57143 -1.57143,1.57143 h -1.35714 -1.35714 z"
         id="path1044" />
      <path
         style="fill:#b0b0b0"
         d="m -246.79403,485.01625 -1.2,-1.2 v -2.1 -2.1 l 1.2,-1.2 1.2,-1.2 h 2.26482 2.26481 l 1.03519,1.93426 1.03518,1.93426 v 0.99431 0.99431 l -1.57143,1.57143 -1.57143,1.57143 h -1.72857 -1.72857 z"
         id="path1042" />
      <path
         style="fill:#b0b0b0"
         d="m -73.98325,488.72924 -1.23411,-1.48702 0.60072,-2.39349 0.60073,-2.3935 2.08515,-0.54528 2.08516,-0.54527 1.92578,1.92578 1.92579,1.92579 v 0.92857 0.92857 l -1.57143,1.57143 -1.57143,1.57143 h -1.80612 -1.80613 z"
         id="path1040" />
      <path
         style="fill:#b0b0b0"
         d="m -276.63807,518.3656 -0.29323,-7.815 -7,-0.5 -7,-0.5 v -1.5 -1.5 l 7,-0.5 7,-0.5 0.25537,-89.25 0.25538,-89.24999 h -1.30538 -1.30537 l -1.08713,1.08713 -1.08714,1.08713 -0.67741,-1.09608 -0.67742,-1.09608 0.57195,-1.80206 0.57196,-1.80206 3.5622,-3.43899 3.56221,-3.43899 3.91559,4.5 3.91559,4.5 -0.29459,1.5 -0.29459,1.5 -0.94061,-0.17591 -0.94061,-0.17591 -1.7554,-0.68315 -1.75539,-0.68315 0.25539,89.35905 0.2554,89.35906 124.75,0.25389 124.750002,0.25389 v -0.94487 -0.94488 l -1,-0.61803 -1,-0.61803 v -1.44099 -1.44098 h 1.56726 1.56725 l 3.91472,3.25 3.91472,3.25 0.018,1.17208 0.018,1.17207 -4.18,3.57793 -4.18,3.57792 h -1.32 -1.32 v -1.44098 -1.44099 l 1,-0.61803 1,-0.61803 v -0.94099 -0.94098 H -147.38929 -272.34722 l -0.29207,7.73916 -0.29206,7.73915 -1.70677,0.32584 -1.70676,0.32585 -0.29324,-7.815 z"
         id="path1038" />
      <path
         style="fill:#b0b0b0"
         d="M 195.25,329.90082 193,329.06445 v -2.99704 -2.99704 L 195,322 l 2,-1.07037 1.88235,1.00741 1.88235,1.0074 0.61406,1.60022 0.61407,1.60022 -0.96864,1.80991 -0.96863,1.80991 -1.27778,0.48625 -1.27778,0.48625 z"
         id="path1036" />
      <path
         style="fill:#b0b0b0"
         d="m 483.2,334.8 -1.2,-1.2 v -0.72327 -0.72328 l 2.58889,-3.07672 2.5889,-3.07673 -2.63027,-3.12589 -2.63026,-3.12589 0.3697,-1.12411 0.3697,-1.12411 1.97684,-0.29402 1.97685,-0.29402 1.84981,2.04402 L 490.30998,321 H 492 h 1.69002 l 1.80998,-2 1.80998,-2 H 499.15499 501 v 2.27776 2.27776 l -2,1.71245 -2,1.71246 v 1.35479 1.3548 l 2,1.80998 2,1.80998 v 1.87639 1.8764 l -1.5597,0.59851 -1.5597,0.59851 -2.74502,-2.62989 L 492.39056,331 h -1.02096 -1.02097 L 488,333.5 485.65137,336 H 485.02569 484.4 Z"
         id="path1034" />
      <path
         style="fill:#b0b0b0"
         d="m 435.63165,348.8845 -1.48175,-2.1155 0.78294,-2.1345 0.78294,-2.1345 3.07567,-0.3084 3.07567,-0.30841 1.13751,2.12546 1.13751,2.12547 -1.59412,2.43294 L 440.95389,351 h -1.92024 -1.92024 z"
         id="path1032" />
      <path
         style="fill:#b0b0b0"
         d="M 141.75,349.9199 140,348.90062 V 346.65031 344.4 l 1.2,-1.2 1.2,-1.2 h 2.1 2.1 l 1.2,1.2 1.2,1.2 v 1.72857 1.72857 l -1.57143,1.57143 -1.57143,1.57143 -1.17857,-0.0304 -1.17857,-0.0304 -1.75,-1.01928 z"
         id="path1030" />
      <path
         style="fill:#b0b0b0"
         d="m 174.56485,372.07166 -1.74512,-1.92833 0.65679,-2.06934 0.65678,-2.06934 2.44634,-0.61399 2.44633,-0.61399 1.48702,1.23411 1.48701,1.23411 v 2.17755 2.17756 l -1.2,1.2 -1.2,1.2 h -1.64501 -1.64501 z"
         id="path1028" />
      <path
         style="fill:#b0b0b0"
         d="m 202.2,374.8 -1.2,-1.2 v -2.1 -2.1 l 1.2,-1.2 1.2,-1.2 h 2.32144 2.32144 l 1.08144,2.37351 1.08144,2.3735 -1.13806,2.1265 L 207.92963,376 H 205.66482 203.4 Z"
         id="path1026" />
      <path
         style="fill:#b0b0b0"
         d="m 498.2,375.8 -1.2,-1.2 v -2.1 -2.1 l 1.2,-1.2 1.2,-1.2 h 1.64501 1.64501 l 1.81366,2.00406 1.81365,2.00406 -1.13723,2.49594 L 504.04288,377 H 501.72144 499.4 Z"
         id="path1024" />
      <path
         style="fill:#b0b0b0"
         d="m 424.2,375.8 -1.2,-1.2 v -2.1 -2.1 l 1.2,-1.2 1.2,-1.2 h 2.32144 2.32144 l 1.13722,2.49594 1.13723,2.49594 -1.81365,2.00406 L 428.69002,377 H 427.04501 425.4 Z"
         id="path1022" />
      <path
         style="fill:#b0b0b0"
         d="M 129.75,375.9199 128,374.90062 V 372.65031 370.4 l 1.2,-1.2 1.2,-1.2 h 2.1 2.1 l 1.2,1.2 1.2,1.2 v 1.72857 1.72857 l -1.57143,1.57143 -1.57143,1.57143 -1.17857,-0.0304 -1.17857,-0.0304 -1.75,-1.01928 z"
         id="path1020" />
      <path
         style="fill:#b0b0b0"
         d="m 457,381.65499 v -2.34501 l 2,-1.80998 2,-1.80998 V 374.5 373.30998 l -2,-1.80998 -2,-1.80998 v -1.87639 -1.8764 l 1.48523,-0.56994 1.48523,-0.56993 3.20654,2.69812 3.20654,2.69812 1.89163,-2.5968 1.89164,-2.5968 h 2.2166 2.21659 l 1.2,1.2 1.2,1.2 v 2.32144 2.32144 l -2.75,1.18104 -2.75,1.18104 -0.4271,0.30795 -0.4271,0.30795 2.807,2.92987 2.80699,2.92987 -0.59851,1.5597 -0.59851,1.5597 h -1.72667 -1.72666 l -2.66488,-2.55311 -2.66487,-2.55311 -3.0342,2.55311 L 460.21129,384 H 458.60564 457 Z"
         id="path1018" />
      <path
         style="fill:#b0b0b0"
         d="M 450.65499,400.17126 449,398.34252 V 396.87126 395.4 l 1.2,-1.2 1.2,-1.2 h 2.1 2.1 l 1.2,1.2 1.2,1.2 v 2.26482 2.26481 l -1.93426,1.03519 L 454.13148,402 h -0.91075 -0.91075 z"
         id="path1016" />
      <path
         style="fill:#b0b0b0"
         d="m 157.23854,401.3339 -1.26146,-0.50821 -1.02372,-1.91284 L 153.92963,397 155,395 l 1.07037,-2 H 159 h 2.92963 l 1.0316,1.92756 1.0316,1.92756 -0.61407,1.60022 -0.61406,1.60022 -1.81661,0.97222 -1.81661,0.97222 -0.31574,-0.079 -0.31574,-0.0789 -1.26146,-0.50821 z"
         id="path1014" />
      <path
         style="fill:#b0b0b0"
         d="M 140.01805,418.51921 137.65137,416 h -1.6707 -1.67069 l -1.80998,2 -1.80998,2 h -1.87639 -1.8764 l -0.59851,-1.5597 -0.59851,-1.5597 2.62989,-2.74502 L 131,411.39056 V 410.5 409.60944 l -2.65245,-2.76857 -2.65245,-2.76856 1.27489,-1.53615 1.2749,-1.53616 h 1.07284 1.07283 l 2.75015,2.63481 2.75015,2.63481 3.1313,-2.63481 L 142.15345,401 h 0.72328 0.72327 l 1.2,1.2 1.2,1.2 v 0.72327 0.72328 l -2.63481,3.13129 -2.63481,3.1313 2.85675,2.9818 2.85675,2.98181 -1.04338,1.65411 -1.04339,1.6541 -0.98619,0.32873 -0.98619,0.32873 z"
         id="path1012" />
      <path
         style="fill:#b0b0b0"
         d="m 394.38953,434.57273 -0.54769,-1.42728 0.32908,-2.32272 L 394.5,428.5 l 3.21569,-0.3108 3.21569,-0.3108 0.64598,2.57379 0.64597,2.57378 -1.23411,1.48702 L 399.75511,436 h -2.40894 -2.40894 z"
         id="path1010" />
      <path
         style="fill:#b0b0b0"
         d="M 101.25,435.90082 99,435.06445 v -2.99704 -2.99704 l 2.06706,-1.10626 2.06706,-1.10625 2.43294,1.59412 2.43294,1.59413 v 1.04268 1.04269 l -0.97222,1.81661 -0.97222,1.81661 -1.27778,0.48625 -1.27778,0.48625 z"
         id="path1008" />
      <path
         style="fill:#b0b0b0"
         d="m 348.2,440.8 -1.2,-1.2 v -1.6 -1.6 l 1.2,-1.2 1.2,-1.2 h 2.26482 2.26481 l 1.07037,2 1.07037,2 -1.07037,2 -1.07037,2 H 351.66482 349.4 Z"
         id="path1006" />
      <path
         style="fill:#b0b0b0"
         d="M 54.154606,441.39574 52,439.88659 v -1.78831 -1.7883 l 1.928336,-1.74513 1.928337,-1.74512 2.069339,0.65679 2.06934,0.65678 0.596467,2.37651 0.596467,2.37652 -0.649836,1.05146 -0.649837,1.05146 -1.7897,0.95781 -1.7897,0.95782 z"
         id="path1004" />
      <path
         style="fill:#b0b0b0"
         d="m 496.2,446.8 -1.2,-1.2 v -1.6 -1.6 l 1.2,-1.2 1.2,-1.2 h 2.26482 2.26481 l 1.07037,2 1.07037,2 -1.07037,2 -1.07037,2 H 499.66482 497.4 Z"
         id="path1002" />
      <path
         style="fill:#b0b0b0"
         d="m 370.8199,458.50401 -1.13723,-2.49594 1.81365,-2.00406 1.81366,-2.00406 h 1.19002 1.19002 l 1.81366,2.00406 1.81365,2.00406 -1.13723,2.49594 -1.13722,2.49594 H 374.5 371.95712 Z"
         id="path1000" />
      <path
         style="fill:#b0b0b0"
         d="m 75.798731,458.45761 -1.158391,-2.54239 2.137438,-2.13744 2.137438,-2.13744 2.542392,1.15839 L 84,453.95712 v 2.32144 2.32144 l -1.2,1.2 -1.2,1.2 h -2.321439 -2.321439 z"
         id="path998" />
      <path
         style="fill:#b0b0b0"
         d="m 531.2,465.8 -1.2,-1.2 v -1.72857 -1.72857 l 1.57143,-1.57143 L 533.14286,458 H 534.07143 535 l 2,2 2,2 v 0.92857 0.92857 l -1.57143,1.57143 L 535.85714,467 H 534.12857 532.4 Z"
         id="path996" />
      <path
         style="fill:#b0b0b0"
         d="m 468.2,465.8 -1.2,-1.2 v -2.26482 -2.26481 L 469,459 l 2,-1.07037 2,1.07037 2,1.07037 v 2.26481 2.26482 l -1.2,1.2 -1.2,1.2 h -1.6 -1.6 z"
         id="path994" />
      <path
         style="fill:#b0b0b0"
         d="m 235.79873,464.45761 -1.15839,-2.54239 2.0623,-2.0623 2.0623,-2.0623 2.1152,0.67134 2.11521,0.67134 0.61399,2.44634 0.61399,2.44633 -1.23411,1.48702 L 241.75511,467 h -2.39899 -2.399 z"
         id="path992" />
      <path
         style="fill:#b0b0b0"
         d="m 173.01078,465.51299 -1.23411,-1.48702 0.61399,-2.44633 0.61399,-2.44634 2.11521,-0.67134 2.1152,-0.67134 2.0623,2.0623 2.0623,2.0623 -1.15839,2.54239 L 179.04288,467 h -2.399 -2.39899 z"
         id="path990" />
      <path
         style="fill:#b0b0b0"
         d="m 427,466.30472 v -1.69528 l 2.68709,-2.80472 L 432.37418,459 429.68709,456.19528 427,453.39056 v -1.58829 -1.58829 l 1.66282,-0.63809 1.66283,-0.63808 2.64189,2.53109 2.6419,2.5311 h 0.80092 0.80093 l 3.00624,-2.52959 3.00624,-2.52958 1.38812,1.15203 1.38811,1.15203 v 1.07284 1.07283 l -2.63481,2.75015 -2.63481,2.75015 2.67618,3.18046 2.67618,3.18046 -0.37424,1.12411 -0.37423,1.12411 -1.75635,0.3405 -1.75634,0.34051 -2.32572,-2.18489 -2.32571,-2.1849 -1.99477,0.63312 -1.99477,0.63311 -1.21275,1.46128 L 430.75511,468 H 428.87756 427 Z"
         id="path988" />
      <path
         style="fill:#b0b0b0"
         d="M 201.66667,467.33333 201,466.66667 v -1.52862 -1.52861 l 2.68709,-2.80472 2.68709,-2.80472 -2.81883,-2.94223 -2.81883,-2.94222 0.56825,-2.173 0.56826,-2.17301 -1.09434,-1.7523 -1.09433,-1.75231 0.60133,-1.56705 0.60134,-1.56705 1.90188,-1.01786 1.90188,-1.01785 2.1546,1.50914 2.15461,1.50915 v 1.61455 1.61456 l -1.66447,1.83922 -1.66447,1.83922 2.34872,2.50009 2.34871,2.50009 2.62047,-2.51057 L 215.60944,449 h 1.72666 1.72667 l 0.59851,1.5597 0.59851,1.5597 -2.73913,2.85904 -2.73914,2.85904 0.75801,1.33126 0.758,1.33126 2.04491,2.27061 2.04491,2.27061 -1.67979,1.67979 -1.67978,1.67978 -2.81861,-2.70039 L 211.39056,463 h -0.80092 -0.80093 l -2.97108,2.5 -2.97108,2.5 h -0.75661 -0.75661 z"
         id="path986" />
      <path
         style="fill:#b0b0b0"
         d="M 399.57143,471.42857 398,469.85714 v -1.80612 -1.80613 l 1.48701,-1.23411 1.48702,-1.23411 2.44633,0.61399 2.44634,0.61399 0.65678,2.06934 0.65679,2.06934 -1.74512,1.92833 L 403.69002,473 h -1.27358 -1.27358 z"
         id="path984" />
      <path
         style="fill:#b0b0b0"
         d="M 104.57143,471.42857 103,469.85714 V 468.12857 466.4 l 1.2,-1.2 1.2,-1.2 h 2.1 2.1 l 1.2,1.2 1.2,1.2 v 2.1 2.1 l -1.2,1.2 -1.2,1.2 h -1.72857 -1.72857 z"
         id="path982" />
      <path
         style="fill:#b0b0b0"
         d="M 492.25,482.33772 491,481.83333 v -2.88148 -2.88148 L 493,475 l 2,-1.07037 2,1.07037 2,1.07037 v 2.26481 2.26482 l -1.2,1.2 -1.2,1.2 -1.55,-0.079 -1.55,-0.0789 -1.25,-0.50439 z"
         id="path980" />
      <path
         style="fill:#b0b0b0"
         d="M 343.57143,484.42857 342,482.85714 V 481.92857 481 l 2,-2 2,-2 h 0.92857 0.92857 l 1.57143,1.57143 1.57143,1.57143 v 1.72857 1.72857 l -1.2,1.2 -1.2,1.2 h -1.72857 -1.72857 z"
         id="path978" />
      <path
         style="fill:#b0b0b0"
         d="M 49.427058,485.23469 48.354117,484.5 l -0.60162,-1.6352 -0.60162,-1.6352 1.481266,-2.1148 L 50.113408,477 H 52 53.886592 l 1.556704,2.22251 L 57,481.44501 v 0.70607 0.70606 L 55.428571,484.42857 53.857143,486 52.178571,485.98469 50.5,485.96937 Z"
         id="path976" />
      <path
         style="fill:#b0b0b0"
         d="M 516.03207,488.05993 514.92963,486 l 1.10244,-2.05993 1.10245,-2.05993 2.58188,0.30993 2.58188,0.30993 1.09574,1.75 1.09575,1.75 -1.09575,1.75 -1.09574,1.75 -2.58188,0.30993 -2.58188,0.30993 z"
         id="path974" />
      <path
         style="fill:#b0b0b0"
         d="M 204.25,491.28154 203,490.83333 v -1.61194 -1.61195 l 2.65245,-2.76857 2.65245,-2.76856 -1.30254,-1.56947 -1.30254,-1.56946 -2.16436,2.03331 L 201.3711,483 H 199.88555 198.4 l -1.2,-1.2 -1.2,-1.2 v -2.26482 -2.26481 l 2.02067,-1.08143 2.02066,-1.08143 0.91024,0.56256 0.91023,0.56255 0.62812,-1.01631 L 203.11803,473 h 2.13627 2.13626 l 2.62048,2.51057 2.62047,2.51057 2.35856,-2.51057 L 217.34863,473 h 1.85707 1.85707 l 0.59851,1.5597 0.59851,1.5597 L 219.5,479 l -2.75979,2.8806 0.59851,1.5597 0.59851,1.5597 h 1.4244 1.42439 l 0.57561,-1.5 0.5756,-1.5 2.28139,0.0153 2.28138,0.0153 1.33008,0.84319 1.33007,0.84319 -0.33007,2.87966 -0.33008,2.87965 -3.5,0.62683 -3.5,0.62682 -1.548,0.66449 -1.54799,0.66449 -2.37632,-2.52948 -2.37632,-2.52947 h -1.20324 -1.20324 l -1.2902,1.5546 -1.2902,1.55459 -1.58225,0.81028 -1.58224,0.81027 -1.25,-0.4482 z"
         id="path972" />
      <path
         style="fill:#b0b0b0"
         d="M 322.52433,523.83316 322.04761,522.5 321.7738,516 321.5,509.5 314.75,509.20431 308,508.90862 v -1.34732 -1.34732 l 1.58179,-0.60699 L 311.16357,505 H 316.58179 322 V 415.5 326 h -0.8 -0.8 l -1.11287,1.11287 -1.11287,1.11287 -1.08713,-0.67189 L 316,326.88197 v -0.7592 -0.7592 l 3.214,-4.18179 L 322.428,317 h 1.70197 1.70197 l 3.08403,3.8939 L 332,324.78781 V 326.3939 328 h -0.77749 -0.7775 l -2.2225,-1.5567 L 326,324.88659 V 414.9433 505 H 451.65499 577.30998 L 575.65499,503.17126 574,501.34252 V 500.17126 499 h 1.31822 1.31821 l 4.18179,3.214 4.18178,3.214 v 1.61864 1.61863 l -3.94136,3.16737 L 577.11728,515 H 575.55864 574 v -1.44098 -1.44099 l 1,-0.61803 1,-0.61803 v -0.94488 -0.94487 L 451.25,509.24611 326.5,509.5 l -0.5,7.42135 -0.5,7.42135 -1.24947,0.41181 -1.24948,0.41181 z"
         id="path970" />
      <path
         style="fill:#b0b0b0"
         d="M 28.247825,524.79861 27.100877,523.41662 26.800438,516.45831 26.5,509.5 l -6,-0.30491 -6,-0.3049 -0.991641,-0.98674 -0.991641,-0.98673 1.491641,-0.94305 L 15.5,505.03063 21.25,505.01531 27,505 V 415.5 326 h -0.8 -0.8 l -1.2,1.2 -1.2,1.2 -1.186113,-1.18611 -1.186113,-1.18612 2.981148,-3.6833 2.981149,-3.68331 1.646429,-1.03854 1.646428,-1.03854 2.166463,1.95796 2.166463,1.95796 2.015028,2.82704 2.015028,2.82705 -1.122955,1.12295 L 36,328.4 34.8,327.2 33.6,326 H 32.8 32 v 89.5 89.5 h 125.02305 125.02306 l -1.63139,-2.48981 -1.63139,-2.48982 1.57506,-0.6044 1.57505,-0.60441 4.53328,3.71468 4.53328,3.71468 v 0.80162 0.80161 l -4.18,3.57793 L 282.64,515 h -1.26098 -1.26099 l -0.548,-0.88669 -0.54801,-0.8867 1.48899,-1.23575 L 282,510.75511 V 509.87756 509 H 157 32 v 6.80887 6.80887 l -1.302613,1.78143 -1.302613,1.78143 z"
         id="path866" />
      <path
         style="fill:#60bd9b"
         d="m -100.79403,328.01625 -1.2,-1.2 v -1.26482 -1.26481 l 1.93055,-1.03321 1.93056,-1.0332 1.56944,1.56945 1.56945,1.56945 v 0.72857 0.72857 l -1.2,1.2 -1.2,1.2 h -1.1 -1.1 z"
         id="path1170" />
      <path
         style="fill:#60bd9b"
         d="m -153.95398,347.76451 -1.28494,-1.54826 1.28494,-1.54826 1.28494,-1.54826 2.0875,0.29826 2.08751,0.29826 v 2.5 2.5 l -2.08751,0.29826 -2.0875,0.29825 z"
         id="path1168" />
      <path
         style="fill:#60bd9b"
         d="m -130.99403,372.02097 v -1.19528 l 2.68709,-2.80472 2.68709,-2.80472 -2.68709,-2.80472 -2.68709,-2.80472 v -1.19528 -1.19528 h 1.19528 1.19528 l 2.75015,2.63481 2.75015,2.63481 3.1313,-2.63481 3.13129,-2.63481 h 0.75661 0.75661 l 0.68066,0.68067 0.68067,0.68066 -2.68178,2.79918 -2.68177,2.79917 2.7378,2.5373 2.73779,2.53731 -0.33023,1.73285 -0.33024,1.73286 -2.04496,0.29402 -2.04496,0.29402 -1.84981,-2.04402 -1.84982,-2.04402 h -1.19002 -1.19002 l -1.80998,2 -1.80998,2 h -1.34501 -1.34501 z"
         id="path1166" />
      <path
         style="fill:#60bd9b"
         d="m -92.46923,373.59819 -1.61409,-1.61408 0.35417,-1.06249 0.35416,-1.06249 1.60666,-1.01345 1.60665,-1.01345 1.58383,1.31445 1.58382,1.31446 v 1.34237 1.34237 l -1.93055,1.0332 -1.93056,1.0332 z"
         id="path1164" />
      <path
         style="fill:#60bd9b"
         d="m -165.60549,373.78639 -0.60252,-1.57014 0.60252,-1.57014 0.60252,-1.57014 2.25447,0.32014 2.25447,0.32014 v 2.5 2.5 l -2.25447,0.32014 -2.25447,0.32013 z"
         id="path1162" />
      <path
         style="fill:#60bd9b"
         d="m -139.6324,398.71625 -0.57561,-1.5 0.57561,-1.5 0.5756,-1.5 h 2.4244 2.42439 l 0.62424,1.62675 0.62425,1.62675 -1.1397,1.37325 -1.1397,1.37325 h -1.90894 -1.90894 z"
         id="path1160" />
      <path
         style="fill:#60bd9b"
         d="m -194.94787,433.77187 -1.26991,-1.53015 0.58919,-1.53542 0.5892,-1.53541 1.60022,-0.61407 1.60022,-0.61406 1.65551,1.65551 1.65551,1.65551 -1.09023,1.73123 -1.09024,1.73124 -1.48477,0.29289 -1.48478,0.29289 z"
         id="path1158" />
      <path
         style="fill:#60bd9b"
         d="m -241.28518,440.59177 -0.70885,-0.70885 v -2.22635 -2.22634 l 1.5,-0.57561 1.5,-0.5756 1.5541,0.59636 1.55409,0.59636 -0.30409,2.62226 -0.3041,2.62225 -2.04115,0.29218 -2.04115,0.29219 z"
         id="path1156" />
      <path
         style="fill:#60bd9b"
         d="m -94.02355,445.68068 -1.3545,-1.63208 1.051,-1.66617 1.05099,-1.66618 h 2.39102 2.39101 v 3 3 l -2.08751,0.29826 -2.0875,0.29825 z"
         id="path1154" />
      <path
         style="fill:#60bd9b"
         d="m -223.99403,463.83869 v -1.37755 l 1.46127,-1.21275 1.46128,-1.21275 0.6076,-1.9144 0.60761,-1.9144 -2.06888,-2.63015 -2.06888,-2.63016 v -1.36514 -1.36514 h 0.92327 0.92328 l 3.05625,2.57167 3.05626,2.57167 1.27047,-0.72044 1.27047,-0.72043 2.26324,-2.03799 2.26325,-2.03799 1.18016,1.18016 1.18016,1.18016 -2.79058,2.91275 -2.79058,2.91274 0.6359,2.00354 0.6359,2.00355 1.46128,1.21275 1.46127,1.21275 v 1.37755 1.37756 h -1.19528 -1.19528 l -2.80472,-2.68709 -2.80472,-2.68709 -2.80472,2.68709 -2.80472,2.68709 h -1.19528 -1.19528 z"
         id="path1152" />
      <path
         style="fill:#60bd9b"
         d="m -58.88762,464.41507 -1.02892,-1.92254 1.27735,-1.74688 1.27735,-1.74688 1.93391,0.37243 1.9339,0.37244 v 2.98631 2.9863 l -2.18234,0.31068 -2.18234,0.31069 z"
         id="path1150" />
      <path
         style="fill:#60bd9b"
         d="m -122.0636,464.63243 -1.31445,-1.58383 1.051,-1.66617 1.05099,-1.66618 h 2.39102 2.39101 l 0.33749,2.38691 0.33749,2.38691 -1.33749,0.84778 -1.33749,0.84777 -1.12756,0.0153 -1.12755,0.0153 -1.31446,-1.58382 z"
         id="path1148" />
      <path
         style="fill:#60bd9b"
         d="m -190.60549,469.78639 -0.60252,-1.57014 0.60252,-1.57014 0.60252,-1.57013 2.25447,0.32013 2.25447,0.32014 v 2.5 2.5 l -2.25447,0.32014 -2.25447,0.32013 z"
         id="path1146" />
      <path
         style="fill:#60bd9b"
         d="m -97.98346,480.72898 -1.23432,-1.48726 0.58971,-1.53676 0.58971,-1.53676 1.93764,-0.72597 1.93765,-0.72598 3.08452,-3.8875 3.08452,-3.88751 v -0.68818 -0.68818 l -2.5,-2.34863 -2.5,-2.34863 v -1.32568 -1.32569 h 1.32569 1.32568 l 2.34863,2.5 2.34863,2.5 h 1.15137 1.15137 l 2.34863,-2.5 2.34863,-2.5 h 1.32568 1.32569 v 1.10564 1.10565 l -2.5,2.97108 -2.5,2.97108 v 0.74896 0.74896 l 2.5,2.34863 2.5,2.34863 v 1.32568 1.32569 h -1.37756 -1.37755 l -1.2902,-1.5546 -1.2902,-1.55459 -1.93925,-1.03786 -1.93925,-1.03785 -3.393,3.28861 -3.39299,3.28862 v 1.60384 1.60383 l -1.2,1.2 -1.2,1.2 h -1.17756 -1.17755 z"
         id="path1144" />
      <path
         style="fill:#60bd9b"
         d="m -245.94787,483.77187 -1.26991,-1.53015 0.58919,-1.53542 0.5892,-1.53541 1.60022,-0.61407 1.60022,-0.61406 1.65551,1.65551 1.65551,1.65551 -1.09023,1.73123 -1.09024,1.73124 -1.48477,0.29289 -1.48478,0.29289 z"
         id="path1142" />
      <path
         style="fill:#60bd9b"
         d="m -73.68456,487.58033 -0.62776,-1.63593 1.01813,-1.61407 1.01813,-1.61408 h 1.78203 1.78203 l 1.05099,1.66618 1.051,1.66617 -1.31445,1.58383 -1.31446,1.58382 h -1.90894 -1.90894 z"
         id="path1140" />
      <path
         style="fill:#60bd9b"
         d="M 194.38854,327.57014 193.78602,326 l 0.60252,-1.57014 0.60252,-1.57013 2.25447,0.32013 L 199.5,323.5 v 2.5 2.5 l -2.25447,0.32014 -2.25447,0.32013 z"
         id="path1138" />
      <path
         style="fill:#60bd9b"
         d="M 495.69424,332.43044 492.88847,330 h -1.28925 -1.28924 l -1.80998,2 -1.80998,2 H 484.84501 483 v -0.82569 -0.82568 L 485.5,330 488,327.65137 V 326 324.34863 l -2.51324,-2.36107 -2.51325,-2.36107 1.00638,-1.00638 1.00638,-1.00638 2.96637,2.19314 2.96637,2.19313 h 1.38551 1.3855 l 1.80998,-2 1.80998,-2 H 498.65499 500 v 1.34501 1.34501 l -2,1.80998 -2,1.80998 v 2.03056 2.03056 l 2.18676,2.32769 2.18675,2.3277 -0.93675,0.91719 -0.93676,0.91719 z"
         id="path1136" />
      <path
         style="fill:#60bd9b"
         d="m 437.03987,348.54804 -1.20502,-1.45196 0.34627,-1.79804 0.34627,-1.79804 h 2.48631 2.4863 l 0.33749,2.38691 0.33749,2.38691 -1.33749,0.84778 -1.33749,0.84777 -0.62756,0.0153 -0.62755,0.0153 -1.20502,-1.45196 z"
         id="path1134" />
      <path
         style="fill:#60bd9b"
         d="m 142.2,348.8 -1.2,-1.2 v -1.83138 -1.83139 l 1.63592,-0.62776 1.63593,-0.62776 1.55455,0.98059 1.55456,0.98059 0.35416,1.06248 0.35417,1.06249 -1.61608,1.61607 L 144.85714,350 H 144.12857 143.4 Z"
         id="path1132" />
      <path
         style="fill:#60bd9b"
         d="m 175.15226,371.28409 -0.98268,-1.83616 0.9649,-1.72417 0.9649,-1.72418 h 1.98169 1.9817 l 0.62776,1.63592 0.62776,1.63593 -1.01633,1.61407 -1.01633,1.61408 -1.57534,0.31033 -1.57535,0.31033 z"
         id="path1130" />
      <path
         style="fill:#60bd9b"
         d="m 203.04616,373.5552 -1.26991,-1.53015 0.58919,-1.53542 0.5892,-1.53541 1.60022,-0.61407 1.60022,-0.61406 1.65551,1.65551 1.65551,1.65551 -1.09023,1.73123 -1.09024,1.73124 -1.48477,0.29289 -1.48478,0.29289 z"
         id="path1128" />
      <path
         style="fill:#60bd9b"
         d="M 498.66667,375.33291 498,374.66625 v -1.71089 -1.71089 l 1.37325,-1.1397 1.37325,-1.1397 1.54943,0.59458 1.54943,0.59457 0.59457,1.54943 0.59458,1.54943 -1.1397,1.37325 -1.1397,1.37325 h -1.71089 -1.71089 z"
         id="path1126" />
      <path
         style="fill:#60bd9b"
         d="m 425.03987,374.54762 -1.20502,-1.45196 0.34279,-1.79804 0.34279,-1.79804 2.17212,-0.31068 2.17213,-0.31069 1.06568,1.99124 1.06567,1.99124 -1.56944,1.56944 -1.56945,1.56945 h -0.80612 -0.80613 z"
         id="path1124" />
      <path
         style="fill:#60bd9b"
         d="m 130.04616,374.55562 -1.26991,-1.53015 0.58919,-1.53542 0.5892,-1.53541 1.60022,-0.61407 1.60022,-0.61406 1.65551,1.65551 1.65551,1.65551 -1.09023,1.73123 -1.09024,1.73124 -1.48477,0.29289 -1.48478,0.29289 z"
         id="path1122" />
      <path
         style="fill:#60bd9b"
         d="m 458,381.67431 v -1.32568 L 460.5,378 463,375.65137 V 374.5 373.34863 L 460.5,371 458,368.65137 V 367.32569 366 h 1.32569 1.32568 l 2.34863,2.5 2.34863,2.5 h 1.21067 1.21068 l 1.63806,-2.5 1.63807,-2.5 h 1.90956 1.90955 l 0.65001,2.04799 0.65001,2.04799 -1.20507,1.45201 L 473.75511,373 h -1.31854 -1.31854 l -0.63068,1.02047 -0.63069,1.02047 2.628,3.1232 2.628,3.1232 -0.99599,0.99599 -0.996,0.996 -3.13706,-2.63967 L 466.84655,378 h -0.74896 -0.74896 L 463,380.5 460.65137,383 H 459.32569 458 Z"
         id="path1120" />
      <path
         style="fill:#60bd9b"
         d="m 451.5248,399.38195 -1.61409,-1.61409 0.35417,-1.06249 0.35416,-1.06248 1.55456,-0.98059 1.55455,-0.98059 1.63593,0.62776 1.63592,0.62776 v 1.9962 1.9962 l -1.93055,1.0332 -1.93056,1.0332 z"
         id="path1118" />
      <path
         style="fill:#60bd9b"
         d="m 157.03987,399.54804 -1.20502,-1.45196 0.34627,-1.79804 0.34627,-1.79804 H 159 h 2.47261 l 0.34627,1.79804 0.34627,1.79804 -1.20502,1.45196 L 159.75511,401 H 159 158.24489 Z"
         id="path1116" />
      <path
         style="fill:#60bd9b"
         d="m 128,417.89436 v -1.10565 l 2.55311,-3.0342 2.55311,-3.0342 -2.55311,-2.66487 L 128,405.39056 V 403.69528 402 h 0.82569 0.82568 l 2.34863,2.5 2.34863,2.5 h 1.52097 1.52096 l 2.81131,-2.69341 2.81132,-2.6934 1.18681,1.18681 1.18681,1.18681 -2.6934,2.81132 L 140,409.60944 V 411 v 1.39056 l 2.65878,2.77517 2.65879,2.77518 -1.71848,0.65944 -1.71849,0.65944 -2.9403,-2.81698 L 136,413.62582 133.19528,416.31291 130.39056,419 H 129.19528 128 Z"
         id="path1114" />
      <path
         style="fill:#60bd9b"
         d="m 395.14524,433.67501 -1.17975,-1.42151 0.59458,-1.54943 0.59457,-1.54943 1.54943,-0.59457 1.54943,-0.59458 1.42151,1.17975 1.4215,1.17975 -0.29825,2.0875 L 400.5,434.5 l -2.08751,0.29826 -2.0875,0.29825 z"
         id="path1112" />
      <path
         style="fill:#60bd9b"
         d="m 100.36163,433.5 -0.575608,-1.5 0.575608,-1.5 0.5756,-1.5 h 2.4244 2.42439 l 0.62424,1.62675 0.62425,1.62675 -1.1397,1.37325 -1.1397,1.37325 h -1.90894 -1.90894 z"
         id="path1110" />
      <path
         style="fill:#60bd9b"
         d="m 348.30947,439.36408 -0.62776,-1.63593 0.98059,-1.55455 0.98059,-1.55456 0.96899,-0.323 0.96899,-0.323 1.83212,1.33968 1.83211,1.33967 -0.68994,2.17381 -0.68994,2.1738 h -2.46399 -2.464 z"
         id="path1108" />
      <path
         style="fill:#60bd9b"
         d="M 53.627747,439.47231 53,437.83643 v -0.34679 -0.34678 l 1.569446,-1.56945 1.569446,-1.56944 1.991238,1.06567 1.991239,1.06568 -0.310685,2.18234 L 59.5,440.5 l -2.622253,0.3041 -2.622253,0.30409 z"
         id="path1106" />
      <path
         style="fill:#60bd9b"
         d="M 496.66667,446.33333 496,445.66667 v -1.71089 -1.71089 l 1.37325,-1.1397 1.37325,-1.1397 1.54943,0.59458 1.54943,0.59457 0.54594,1.42268 0.54593,1.42268 -0.5756,1.5 -0.57561,1.5 h -2.22634 -2.22635 z"
         id="path1104" />
      <path
         style="fill:#60bd9b"
         d="m 202.10519,445.62675 -1.1397,-1.37325 0.62425,-1.62675 L 202.21398,441 h 2.28602 2.28602 l 0.57561,1.5 0.5756,1.5 -0.5756,1.5 -0.57561,1.5 h -1.77056 -1.77057 z"
         id="path1102" />
      <path
         style="fill:#60bd9b"
         d="m 371.30947,458.36408 -0.62776,-1.63593 1.01813,-1.61407 1.01813,-1.61408 h 1.78203 1.78203 l 1.01813,1.61408 1.01813,1.61407 -0.62776,1.63593 L 377.06277,460 H 374.5 371.93723 Z"
         id="path1100" />
      <path
         style="fill:#60bd9b"
         d="m 77.145241,458.67501 -1.179747,-1.42151 0.594572,-1.54943 0.594572,-1.54943 1.549429,-0.59457 1.549429,-0.59458 1.421509,1.17975 1.421509,1.17975 -0.298257,2.0875 L 82.5,459.5 l -2.087505,0.29826 -2.087506,0.29825 z"
         id="path1098" />
      <path
         style="fill:#60bd9b"
         d="m 531.30947,464.36408 -0.62776,-1.63593 1.01813,-1.61407 1.01813,-1.61408 h 1.78203 1.78203 l 1.05099,1.66618 1.051,1.66617 -1.31445,1.58383 L 535.75511,466 h -1.90894 -1.90894 z"
         id="path1096" />
      <path
         style="fill:#60bd9b"
         d="m 468.03717,464.06945 -1.0332,-1.93056 1.56944,-1.56944 L 470.14286,459 H 471 h 0.85714 l 1.56945,1.56945 1.56944,1.56944 -1.0332,1.93056 L 472.92963,466 H 471 469.07037 Z"
         id="path1094" />
      <path
         style="fill:#60bd9b"
         d="m 237.14079,464.66964 -1.1753,-1.41614 0.59458,-1.54943 0.59457,-1.54943 1.32548,-0.50864 1.32548,-0.50863 1.8472,1.37274 1.8472,1.37275 -1.10718,1.80857 -1.10719,1.80857 -1.48477,0.29289 -1.48478,0.29289 z"
         id="path1092" />
      <path
         style="fill:#60bd9b"
         d="m 174.2,464.8 -1.2,-1.2 v -1.26482 -1.26481 l 1.93055,-1.0332 1.93056,-1.0332 1.56944,1.56944 1.56945,1.56945 v 0.72857 0.72857 l -1.2,1.2 -1.2,1.2 h -1.1 -1.1 z"
         id="path1090" />
      <path
         style="fill:#60bd9b"
         d="M 214.24931,464.55633 211.21129,462 h -1.45066 -1.45065 l -1.80998,2 -1.80998,2 H 203.34501 202 v -1.53138 -1.53139 l 1.52778,-0.58626 1.52778,-0.58627 1.02828,-1.92136 1.02829,-1.92137 -2.55607,-3.03771 L 202,451.84655 V 450.92327 450 h 1.32569 1.32568 l 2.34863,2.5 2.34863,2.5 h 0.74896 0.74896 l 3.13706,-2.63966 3.13706,-2.63967 0.996,0.996 0.99599,0.99599 -2.55633,3.03803 L 214,457.78871 v 0.80093 0.80092 l 2.69341,2.81131 2.6934,2.81132 -1.04973,1.04973 -1.04974,1.04974 z"
         id="path1088" />
      <path
         style="fill:#60bd9b"
         d="M 440.19032,465.50669 437.21129,463 h -1.45066 -1.45065 l -1.80998,2 -1.80998,2 H 429.34501 428 v -1.19528 -1.19528 l 2.68709,-2.80472 2.68709,-2.80472 -2.81699,-2.9403 -2.81698,-2.9403 0.59851,-1.5597 0.59851,-1.5597 h 0.85707 0.85707 l 2.34863,2.5 2.34863,2.5 h 0.93133 0.93133 l 2.97903,-2.50669 2.97902,-2.50668 0.91533,0.5657 0.91533,0.5657 v 1.13627 1.13626 l -2.63481,2.75015 -2.63481,2.75015 2.63481,3.1313 2.63481,3.13129 v 0.86426 0.86426 l -0.91533,0.5657 -0.91533,0.5657 z"
         id="path1086" />
      <path
         style="fill:#60bd9b"
         d="m 400.16251,471.1216 -1.33749,-0.84778 0.33749,-2.38691 L 399.5,465.5 h 2.39101 2.39102 l 1.05099,1.66618 1.051,1.66617 -1.31445,1.58383 -1.31446,1.58382 -1.12755,-0.0153 -1.12756,-0.0153 -1.33749,-0.84777 z"
         id="path1084" />
      <path
         style="fill:#60bd9b"
         d="m 105.04616,470.55562 -1.26991,-1.53015 0.58919,-1.53542 0.5892,-1.53541 1.60022,-0.61407 1.60022,-0.61406 1.65551,1.65551 1.65551,1.65551 -1.09023,1.73123 -1.09024,1.73124 -1.48477,0.29289 -1.48478,0.29289 z"
         id="path1082" />
      <path
         style="fill:#60bd9b"
         d="m 492.14524,480.67501 -1.17975,-1.42151 0.59458,-1.54943 0.59457,-1.54943 1.42268,-0.54594 1.42268,-0.54593 1.5541,0.59636 1.55409,0.59636 -0.30409,2.62226 -0.3041,2.62225 -2.08751,0.29826 -2.0875,0.29825 z"
         id="path1080" />
      <path
         style="fill:#60bd9b"
         d="M 344.23832,483.83832 343,482.6 v -1.17756 -1.17755 l 1.45201,-1.20506 1.45201,-1.20507 2.10613,0.66846 2.10613,0.66846 -0.30814,2.66416 L 349.5,484.5 l -2.01168,0.28832 -2.01168,0.28832 z"
         id="path1078" />
      <path
         style="fill:#60bd9b"
         d="M 49.708849,484.37552 49,483.66667 v -2.22635 -2.22634 l 1.5,-0.57561 1.5,-0.5756 1.554095,0.59636 1.554096,0.59636 -0.304096,2.62226 L 54.5,484.5 l -2.041151,0.29218 -2.041151,0.29219 z"
         id="path1076" />
      <path
         style="fill:#60bd9b"
         d="M 517.72418,488.86552 516,487.90062 v -1.37888 -1.37888 l 1.56945,-1.56945 1.56944,-1.56944 1.93056,1.0332 1.93055,1.0332 V 486 v 1.92963 l -1.77582,0.95039 -1.77583,0.9504 z"
         id="path1074" />
      <path
         style="fill:#60bd9b"
         d="m 204.35527,489.48343 -0.61506,-1.60283 2.83417,-2.95824 2.83418,-2.95824 -2.2044,-2.2044 -2.20439,-2.2044 -1.59644,2.27924 -1.59644,2.27924 -2.15345,-0.3069 L 197.5,481.5 l -0.30814,-2.66416 -0.30814,-2.66416 2.1335,-0.67715 2.1335,-0.67714 0.59349,0.59349 0.59349,0.59348 1.70544,-1.5434 1.70544,-1.5434 3.02006,2.54122 3.02007,2.54122 h 0.95066 0.95065 l 1.80998,-2 1.80998,-2 H 219.15499 221 v 1.32569 1.32568 L 218.5,479 216,481.34863 V 482.17431 483 l 2.09165,2.09165 2.09166,2.09166 1.46505,-2.09166 L 223.11341,483 h 1.82085 1.82085 l 1.26046,1.51876 1.26045,1.51876 -1.80579,1.99537 -1.80579,1.99538 -1.88021,-0.59675 -1.88021,-0.59676 -1.48816,1.23507 -1.48817,1.23507 -2.76856,-2.65245 L 213.39056,486 h -1.07283 -1.07284 l -1.2902,1.5546 -1.2902,1.55459 -1.84708,0.98853 -1.84708,0.98853 z"
         id="path864" />
      <path
         style="fill:#d54937"
         d="m -100.79403,328.01625 -1.2,-1.2 v -1.26482 -1.26481 l 1.93055,-1.03321 1.93056,-1.0332 1.56944,1.56945 1.56945,1.56945 v 0.72857 0.72857 l -1.2,1.2 -1.2,1.2 h -1.1 -1.1 z"
         id="path1236" />
      <path
         style="fill:#d54937"
         d="m -153.95398,347.76451 -1.28494,-1.54826 1.28494,-1.54826 1.28494,-1.54826 2.0875,0.29826 2.08751,0.29826 v 2.5 2.5 l -2.08751,0.29826 -2.0875,0.29825 z"
         id="path1234" />
      <path
         style="fill:#d54937"
         d="m -130.99403,372.02097 v -1.19528 l 2.68709,-2.80472 2.68709,-2.80472 -2.68709,-2.80472 -2.68709,-2.80472 v -1.19528 -1.19528 h 1.19528 1.19528 l 2.75015,2.63481 2.75015,2.63481 3.1313,-2.63481 3.13129,-2.63481 h 0.75661 0.75661 l 0.68066,0.68067 0.68067,0.68066 -2.68178,2.79918 -2.68177,2.79917 2.7378,2.5373 2.73779,2.53731 -0.33023,1.73285 -0.33024,1.73286 -2.04496,0.29402 -2.04496,0.29402 -1.84981,-2.04402 -1.84982,-2.04402 h -1.19002 -1.19002 l -1.80998,2 -1.80998,2 h -1.34501 -1.34501 z"
         id="path1232" />
      <path
         style="fill:#d54937"
         d="m -92.46923,373.59819 -1.61409,-1.61408 0.35417,-1.06249 0.35416,-1.06249 1.60666,-1.01345 1.60665,-1.01345 1.58383,1.31445 1.58382,1.31446 v 1.34237 1.34237 l -1.93055,1.0332 -1.93056,1.0332 z"
         id="path1230" />
      <path
         style="fill:#d54937"
         d="m -165.60549,373.78639 -0.60252,-1.57014 0.60252,-1.57014 0.60252,-1.57014 2.25447,0.32014 2.25447,0.32014 v 2.5 2.5 l -2.25447,0.32014 -2.25447,0.32013 z"
         id="path1228" />
      <path
         style="fill:#d54937"
         d="m -139.6324,398.71625 -0.57561,-1.5 0.57561,-1.5 0.5756,-1.5 h 2.4244 2.42439 l 0.62424,1.62675 0.62425,1.62675 -1.1397,1.37325 -1.1397,1.37325 h -1.90894 -1.90894 z"
         id="path1226" />
      <path
         style="fill:#d54937"
         d="m -194.82372,433.46625 -0.90005,-1.75 0.4482,-1.25 0.44821,-1.25 h 2.30967 2.30968 l 0.62424,1.62675 0.62425,1.62675 -1.1397,1.37325 -1.1397,1.37325 h -1.34237 -1.34237 z"
         id="path1224" />
      <path
         style="fill:#d54937"
         d="m -240.84242,440.33111 -1.3484,-0.85451 0.35861,-1.88018 0.35861,-1.88017 2.24426,-0.32014 2.24425,-0.32013 0.60741,1.58287 0.6074,1.58287 -1.23432,1.48726 -1.23432,1.48727 -0.62755,-0.0153 -0.62756,-0.0153 -1.34839,-0.85451 z"
         id="path1222" />
      <path
         style="fill:#d54937"
         d="m -223.99403,463.83869 v -1.37755 l 1.5546,-1.2902 1.55459,-1.2902 0.94181,-1.75979 0.94181,-1.75979 -2.56807,-3.05198 -2.56808,-3.05199 0.64664,-1.04628 0.64664,-1.04628 3.00175,2.52581 3.00176,2.52581 h 1.26829 1.26828 l 1.80998,-2 1.80998,-2 h 1.34501 1.34501 v 1.34501 1.34501 l -2,1.80998 -2,1.80998 v 1.69002 1.69002 l 2,1.80998 2,1.80998 v 1.34501 1.34501 h -0.60564 -0.60565 l -2.97108,-2.5 -2.97108,-2.5 h -0.84655 -0.84655 l -2.97108,2.5 -2.97108,2.5 h -0.60565 -0.60564 z"
         id="path1220" />
      <path
         style="fill:#d54937"
         d="m -190.60549,469.78639 -0.60252,-1.57014 0.60252,-1.57014 0.60252,-1.57013 2.25447,0.32013 2.25447,0.32014 v 2.5 2.5 l -2.25447,0.32014 -2.25447,0.32013 z"
         id="path1218" />
      <path
         style="fill:#d54937"
         d="m -245.55931,483.79217 -1.75968,-1.2867 0.6398,-1.66729 0.6398,-1.66729 1.66729,-0.6398 1.66729,-0.6398 1.2867,1.75968 1.28671,1.75968 -0.50863,1.32548 -0.50864,1.32548 -1.32548,0.50864 -1.32548,0.50863 z"
         id="path1216" />
      <path
         style="fill:#d54937"
         d="M 194.38854,327.57014 193.78602,326 l 0.60252,-1.57014 0.60252,-1.57013 2.25447,0.32013 L 199.5,323.5 v 2.5 2.5 l -2.25447,0.32014 -2.25447,0.32013 z"
         id="path1214" />
      <path
         style="fill:#d54937"
         d="M 495.69424,332.43044 492.88847,330 h -1.28925 -1.28924 l -1.80998,2 -1.80998,2 H 484.84501 483 v -0.82569 -0.82568 L 485.5,330 488,327.65137 V 326 324.34863 l -2.51324,-2.36107 -2.51325,-2.36107 1.00638,-1.00638 1.00638,-1.00638 2.96637,2.19314 2.96637,2.19313 h 1.38551 1.3855 l 1.80998,-2 1.80998,-2 H 498.65499 500 v 1.34501 1.34501 l -2,1.80998 -2,1.80998 v 2.03056 2.03056 l 2.18676,2.32769 2.18675,2.3277 -0.93675,0.91719 -0.93676,0.91719 z"
         id="path1212" />
      <path
         style="fill:#d54937"
         d="M 436.70885,348.37552 436,347.66667 v -1.76595 -1.76594 l 2.10066,-0.66673 2.10067,-0.66672 0.99311,0.99311 0.99312,0.99312 -0.354,1.85622 -0.35399,1.85622 -2.03094,0.29218 -2.03093,0.29219 z"
         id="path1210" />
      <path
         style="fill:#d54937"
         d="m 141.59053,347.37533 -0.66402,-1.73041 1.4592,-1.45921 1.45921,-1.4592 1.64768,0.63227 1.64767,0.63228 -0.32013,2.25447 L 146.5,348.5 l -2.12272,0.30287 -2.12272,0.30287 z"
         id="path1208" />
      <path
         style="fill:#d54937"
         d="M 176.1532,371.7532 175,370.6 v -1.69301 -1.69301 l 1.62675,-0.62424 1.62675,-0.62425 1.37325,1.1397 1.37325,1.1397 v 1.34237 1.34237 l -1.8468,0.98838 -1.84681,0.98838 z"
         id="path1206" />
      <path
         style="fill:#d54937"
         d="m 424.35878,373.4926 -0.63227,-1.64768 1.4592,-1.45921 1.45921,-1.4592 1.73041,0.66402 1.73041,0.66403 -0.30287,2.12272 L 429.5,374.5 l -2.25447,0.32014 -2.25447,0.32013 z"
         id="path1204" />
      <path
         style="fill:#d54937"
         d="m 203.2,373.8 -1.2,-1.2 v -1.17756 -1.17755 l 1.37325,-1.1397 1.37325,-1.1397 1.62675,0.62425 1.62675,0.62424 v 2.28602 2.28602 l -1.58179,0.60699 L 204.83643,375 H 204.61821 204.4 Z"
         id="path1202" />
      <path
         style="fill:#d54937"
         d="m 129.58974,373.37329 -0.62425,-1.62675 1.1397,-1.37325 1.1397,-1.37325 h 1.34237 1.34237 l 0.90006,1.75 0.90005,1.75 -0.4482,1.25 -0.44821,1.25 h -2.30967 -2.30968 z"
         id="path1200" />
      <path
         style="fill:#d54937"
         d="m 499.04616,374.55566 -1.26991,-1.53015 0.6074,-1.58287 0.60741,-1.58287 2.25447,0.32013 2.25447,0.32014 v 2.4863 2.48631 l -1.59196,0.30658 -1.59196,0.30659 z"
         id="path1198" />
      <path
         style="fill:#d54937"
         d="m 458.46573,381.94459 -0.68421,-1.10707 2.60924,-2.72346 L 463,375.3906 v -0.89056 -0.89056 l -2.69341,-2.81131 -2.6934,-2.81132 1.06482,-1.06482 1.06482,-1.06482 2.77461,2.57141 2.77461,2.57142 h 1.23896 1.23897 l 1.63806,-2.5 1.63807,-2.5 h 1.3545 1.3545 l 1.1397,1.37325 1.1397,1.37325 -0.62756,1.63538 -0.62755,1.63538 -2.3897,0.59978 -2.3897,0.59978 v 1.7366 1.7366 l 2,1.80998 2,1.80998 v 1.34501 1.34501 h -0.82569 -0.82568 l -2.34863,-2.5 -2.34863,-2.5 h -1.24896 -1.24896 l -3.00176,2.52581 -3.00175,2.52581 z"
         id="path1196" />
      <path
         style="fill:#d54937"
         d="m 451.36163,398.50004 -0.57561,-1.5 0.57561,-1.5 0.5756,-1.5 h 1.40894 1.40894 l 1.1397,1.37325 1.1397,1.37325 -0.62425,1.62675 -0.62424,1.62675 h -1.92439 -1.9244 z"
         id="path1194" />
      <path
         style="fill:#d54937"
         d="M 156.38854,398.57014 155.78602,397 l 0.60252,-1.57014 0.60252,-1.57013 2.25447,0.32013 L 161.5,394.5 v 2.5 2.5 l -2.25447,0.32014 -2.25447,0.32013 z"
         id="path1192" />
      <path
         style="fill:#d54937"
         d="m 128,417.67431 v -1.32568 L 130.5,414 133,411.65137 V 410.5 409.34863 L 130.5,407 128,404.65137 V 403.82569 403 h 1.34501 1.34501 l 1.80998,2 1.80998,2 H 136 h 1.69002 l 1.80998,-2 1.80998,-2 H 142.65499 144 v 1.19528 1.19528 l -2.68709,2.80472 -2.68709,2.80472 2.68709,2.80472 L 144,416.60944 V 417.80472 419 h -0.60564 -0.60565 l -2.97108,-2.5 -2.97108,-2.5 H 136 135.15345 l -2.97108,2.5 -2.97108,2.5 H 128.60564 128 Z"
         id="path1190" />
      <path
         style="fill:#d54937"
         d="m 100.48655,432.95763 -0.685224,-2.15896 0.993114,-0.99311 0.99312,-0.99312 1.85622,0.35747 1.85622,0.35748 v 2.48631 2.4863 l -2.16411,0.3083 -2.16411,0.30829 z"
         id="path1188" />
      <path
         style="fill:#d54937"
         d="m 54.081988,439.1532 -0.98838,-1.84681 1.153196,-1.15319 L 55.4,435 h 1.693011 1.693011 l 0.624242,1.62675 0.624242,1.62675 -1.139698,1.37325 L 57.755111,441 h -1.342372 -1.342371 z"
         id="path1186" />
      <path
         style="fill:#d54937"
         d="m 202.10519,445.62675 -1.1397,-1.37325 0.62425,-1.62675 L 202.21398,441 h 2.28602 2.28602 l 0.57561,1.5 0.5756,1.5 -0.5756,1.5 -0.57561,1.5 h -1.77056 -1.77057 z"
         id="path1184" />
      <path
         style="fill:#d54937"
         d="M 77.361626,458.5 76.786022,457 77.361626,455.5 77.93723,454 H 80 82.06277 l 0.58049,1.51273 0.580491,1.51274 -1.23432,1.48726 L 80.755111,460 H 79.34617 77.93723 Z"
         id="path1182" />
      <path
         style="fill:#d54937"
         d="m 237.14079,464.66964 -1.1753,-1.41614 0.59458,-1.54943 0.59457,-1.54943 1.32548,-0.50864 1.32548,-0.50863 1.8472,1.37274 1.8472,1.37275 -1.10718,1.80857 -1.10719,1.80857 -1.48477,0.29289 -1.48478,0.29289 z"
         id="path1180" />
      <path
         style="fill:#d54937"
         d="m 174.2,464.8 -1.2,-1.2 v -1.26482 -1.26481 l 1.93055,-1.0332 1.93056,-1.0332 1.56944,1.56944 1.56945,1.56945 v 0.72857 0.72857 l -1.2,1.2 -1.2,1.2 h -1.1 -1.1 z"
         id="path1178" />
      <path
         style="fill:#d54937"
         d="M 214.24931,464.55633 211.21129,462 h -1.45066 -1.45065 l -1.80998,2 -1.80998,2 H 203.34501 202 v -1.53138 -1.53139 l 1.52778,-0.58626 1.52778,-0.58627 1.02828,-1.92136 1.02829,-1.92137 -2.55607,-3.03771 L 202,451.84655 V 450.92327 450 h 1.32569 1.32568 l 2.34863,2.5 2.34863,2.5 h 0.74896 0.74896 l 3.13706,-2.63966 3.13706,-2.63967 0.996,0.996 0.99599,0.99599 -2.55633,3.03803 L 214,457.78871 v 0.80093 0.80092 l 2.69341,2.81131 2.6934,2.81132 -1.04973,1.04973 -1.04974,1.04974 z"
         id="path1176" />
      <path
         style="fill:#d54937"
         d="m 105.57143,470.42857 -1.56746,-1.56746 1.0332,-1.93056 1.0332,-1.93055 h 1.26481 1.26482 l 1.2,1.2 1.2,1.2 v 1.26482 1.26481 l -1.93055,1.0332 -1.93056,1.0332 z"
         id="path1174" />
      <path
         style="fill:#d54937"
         d="m 50.010569,483.51273 -1.23432,-1.48726 0.607405,-1.58287 0.607404,-1.58287 2.244256,0.32013 2.244255,0.32014 0.358608,1.88017 0.358609,1.88018 -1.348393,0.85451 -1.348393,0.85451 -0.627555,0.0153 -0.627556,0.0153 -1.23432,-1.48727 z"
         id="path862" />
      <path
         style="fill:#3f5e91"
         d="m -194.82372,433.46625 -0.90005,-1.75 0.4482,-1.25 0.44821,-1.25 h 2.30967 2.30968 l 0.62424,1.62675 0.62425,1.62675 -1.1397,1.37325 -1.1397,1.37325 h -1.34237 -1.34237 z"
         id="path1280" />
      <path
         style="fill:#3f5e91"
         d="m -240.84242,440.33111 -1.3484,-0.85451 0.35861,-1.88018 0.35861,-1.88017 2.24426,-0.32014 2.24425,-0.32013 0.60741,1.58287 0.6074,1.58287 -1.23432,1.48726 -1.23432,1.48727 -0.62755,-0.0153 -0.62756,-0.0153 -1.34839,-0.85451 z"
         id="path1278" />
      <path
         style="fill:#3f5e91"
         d="m -223.99403,463.83869 v -1.37755 l 1.5546,-1.2902 1.55459,-1.2902 0.94181,-1.75979 0.94181,-1.75979 -2.56807,-3.05198 -2.56808,-3.05199 0.64664,-1.04628 0.64664,-1.04628 3.00175,2.52581 3.00176,2.52581 h 1.26829 1.26828 l 1.80998,-2 1.80998,-2 h 1.34501 1.34501 v 1.34501 1.34501 l -2,1.80998 -2,1.80998 v 1.69002 1.69002 l 2,1.80998 2,1.80998 v 1.34501 1.34501 h -0.60564 -0.60565 l -2.97108,-2.5 -2.97108,-2.5 h -0.84655 -0.84655 l -2.97108,2.5 -2.97108,2.5 h -0.60565 -0.60564 z"
         id="path1276" />
      <path
         style="fill:#3f5e91"
         d="m -190.60549,469.78639 -0.60252,-1.57014 0.60252,-1.57014 0.60252,-1.57013 2.25447,0.32013 2.25447,0.32014 v 2.5 2.5 l -2.25447,0.32014 -2.25447,0.32013 z"
         id="path1274" />
      <path
         style="fill:#3f5e91"
         d="m -245.55931,483.79217 -1.75968,-1.2867 0.6398,-1.66729 0.6398,-1.66729 1.66729,-0.6398 1.66729,-0.6398 1.2867,1.75968 1.28671,1.75968 -0.50863,1.32548 -0.50864,1.32548 -1.32548,0.50864 -1.32548,0.50863 z"
         id="path1272" />
      <path
         style="fill:#3f5e91"
         d="M 194.38854,327.57014 193.78602,326 l 0.60252,-1.57014 0.60252,-1.57013 2.25447,0.32013 L 199.5,323.5 v 2.5 2.5 l -2.25447,0.32014 -2.25447,0.32013 z"
         id="path1270" />
      <path
         style="fill:#3f5e91"
         d="M 436.70885,348.37552 436,347.66667 v -1.76595 -1.76594 l 2.10066,-0.66673 2.10067,-0.66672 0.99311,0.99311 0.99312,0.99312 -0.354,1.85622 -0.35399,1.85622 -2.03094,0.29218 -2.03093,0.29219 z"
         id="path1268" />
      <path
         style="fill:#3f5e91"
         d="m 141.59053,347.37533 -0.66402,-1.73041 1.4592,-1.45921 1.45921,-1.4592 1.64768,0.63227 1.64767,0.63228 -0.32013,2.25447 L 146.5,348.5 l -2.12272,0.30287 -2.12272,0.30287 z"
         id="path1266" />
      <path
         style="fill:#3f5e91"
         d="M 176.1532,371.7532 175,370.6 v -1.69301 -1.69301 l 1.62675,-0.62424 1.62675,-0.62425 1.37325,1.1397 1.37325,1.1397 v 1.34237 1.34237 l -1.8468,0.98838 -1.84681,0.98838 z"
         id="path1264" />
      <path
         style="fill:#3f5e91"
         d="m 424.35878,373.4926 -0.63227,-1.64768 1.4592,-1.45921 1.45921,-1.4592 1.73041,0.66402 1.73041,0.66403 -0.30287,2.12272 L 429.5,374.5 l -2.25447,0.32014 -2.25447,0.32013 z"
         id="path1262" />
      <path
         style="fill:#3f5e91"
         d="m 203.2,373.8 -1.2,-1.2 v -1.17756 -1.17755 l 1.37325,-1.1397 1.37325,-1.1397 1.62675,0.62425 1.62675,0.62424 v 2.28602 2.28602 l -1.58179,0.60699 L 204.83643,375 H 204.61821 204.4 Z"
         id="path1260" />
      <path
         style="fill:#3f5e91"
         d="m 129.58974,373.37329 -0.62425,-1.62675 1.1397,-1.37325 1.1397,-1.37325 h 1.34237 1.34237 l 0.90006,1.75 0.90005,1.75 -0.4482,1.25 -0.44821,1.25 h -2.30967 -2.30968 z"
         id="path1258" />
      <path
         style="fill:#3f5e91"
         d="m 499.04616,374.55566 -1.26991,-1.53015 0.6074,-1.58287 0.60741,-1.58287 2.25447,0.32013 2.25447,0.32014 v 2.4863 2.48631 l -1.59196,0.30658 -1.59196,0.30659 z"
         id="path1256" />
      <path
         style="fill:#3f5e91"
         d="m 458.46573,381.94459 -0.68421,-1.10707 2.60924,-2.72346 L 463,375.3906 v -0.89056 -0.89056 l -2.69341,-2.81131 -2.6934,-2.81132 1.06482,-1.06482 1.06482,-1.06482 2.77461,2.57141 2.77461,2.57142 h 1.23896 1.23897 l 1.63806,-2.5 1.63807,-2.5 h 1.3545 1.3545 l 1.1397,1.37325 1.1397,1.37325 -0.62756,1.63538 -0.62755,1.63538 -2.3897,0.59978 -2.3897,0.59978 v 1.7366 1.7366 l 2,1.80998 2,1.80998 v 1.34501 1.34501 h -0.82569 -0.82568 l -2.34863,-2.5 -2.34863,-2.5 h -1.24896 -1.24896 l -3.00176,2.52581 -3.00175,2.52581 z"
         id="path1254" />
      <path
         style="fill:#3f5e91"
         d="m 451.36163,398.50004 -0.57561,-1.5 0.57561,-1.5 0.5756,-1.5 h 1.40894 1.40894 l 1.1397,1.37325 1.1397,1.37325 -0.62425,1.62675 -0.62424,1.62675 h -1.92439 -1.9244 z"
         id="path1252" />
      <path
         style="fill:#3f5e91"
         d="M 156.38854,398.57014 155.78602,397 l 0.60252,-1.57014 0.60252,-1.57013 2.25447,0.32013 L 161.5,394.5 v 2.5 2.5 l -2.25447,0.32014 -2.25447,0.32013 z"
         id="path1250" />
      <path
         style="fill:#3f5e91"
         d="m 128,417.67431 v -1.32568 L 130.5,414 133,411.65137 V 410.5 409.34863 L 130.5,407 128,404.65137 V 403.82569 403 h 1.34501 1.34501 l 1.80998,2 1.80998,2 H 136 h 1.69002 l 1.80998,-2 1.80998,-2 H 142.65499 144 v 1.19528 1.19528 l -2.68709,2.80472 -2.68709,2.80472 2.68709,2.80472 L 144,416.60944 V 417.80472 419 h -0.60564 -0.60565 l -2.97108,-2.5 -2.97108,-2.5 H 136 135.15345 l -2.97108,2.5 -2.97108,2.5 H 128.60564 128 Z"
         id="path1248" />
      <path
         style="fill:#3f5e91"
         d="m 100.48655,432.95763 -0.685224,-2.15896 0.993114,-0.99311 0.99312,-0.99312 1.85622,0.35747 1.85622,0.35748 v 2.48631 2.4863 l -2.16411,0.3083 -2.16411,0.30829 z"
         id="path1246" />
      <path
         style="fill:#3f5e91"
         d="m 54.081988,439.1532 -0.98838,-1.84681 1.153196,-1.15319 L 55.4,435 h 1.693011 1.693011 l 0.624242,1.62675 0.624242,1.62675 -1.139698,1.37325 L 57.755111,441 h -1.342372 -1.342371 z"
         id="path1244" />
      <path
         style="fill:#3f5e91"
         d="M 77.361626,458.5 76.786022,457 77.361626,455.5 77.93723,454 H 80 82.06277 l 0.58049,1.51273 0.580491,1.51274 -1.23432,1.48726 L 80.755111,460 H 79.34617 77.93723 Z"
         id="path1242" />
      <path
         style="fill:#3f5e91"
         d="m 105.57143,470.42857 -1.56746,-1.56746 1.0332,-1.93056 1.0332,-1.93055 h 1.26481 1.26482 l 1.2,1.2 1.2,1.2 v 1.26482 1.26481 l -1.93055,1.0332 -1.93056,1.0332 z"
         id="path1240" />
      <path
         style="fill:#3f5e91"
         d="m 50.010569,483.51273 -1.23432,-1.48726 0.607405,-1.58287 0.607404,-1.58287 2.244256,0.32013 2.244255,0.32014 0.358608,1.88017 0.358609,1.88018 -1.348393,0.85451 -1.348393,0.85451 -0.627555,0.0153 -0.627556,0.0153 -1.23432,-1.48727 z"
         id="path860" />
    </g>
  </g>
</svg>
