<?xml version="1.0" encoding="UTF-8" standalone="no"?>
<!-- Created with Inkscape (http://www.inkscape.org/) -->

<svg
   version="1.1"
   id="svg2"
   width="1398"
   height="1000"
   viewBox="0 0 1398 1000"
   sodipodi:docname="ML_branches.svg"
   inkscape:version="1.2.2 (732a01da63, 2022-12-09)"
   xmlns:inkscape="http://www.inkscape.org/namespaces/inkscape"
   xmlns:sodipodi="http://sodipodi.sourceforge.net/DTD/sodipodi-0.dtd"
   xmlns="http://www.w3.org/2000/svg"
   xmlns:svg="http://www.w3.org/2000/svg">
  <defs
     id="defs6" />
  <sodipodi:namedview
     id="namedview4"
     pagecolor="#505050"
     bordercolor="#ffffff"
     borderopacity="1"
     inkscape:showpageshadow="0"
     inkscape:pageopacity="0"
     inkscape:pagecheckerboard="1"
     inkscape:deskcolor="#505050"
     showgrid="false"
     inkscape:zoom="0.837"
     inkscape:cx="801.07527"
     inkscape:cy="332.13859"
     inkscape:window-width="1920"
     inkscape:window-height="1017"
     inkscape:window-x="1912"
     inkscape:window-y="32"
     inkscape:window-maximized="1"
     inkscape:current-layer="g8" />
  <g
     inkscape:groupmode="layer"
     inkscape:label="Image"
     id="g8">
    <path
       style="fill:#24a9e0"
       d="m 284.66567,558.425 c -13.89605,-4.95901 -19.63491,-22.66427 -10.87818,-33.56084 3.85424,-4.7961 3.85539,-4.6609 -0.11979,-14.18659 -2.30022,-5.51201 -3.66481,-7.63755 -4.66942,-7.27326 -17.35858,6.29442 -49.00704,0.25409 -64.58058,-12.32566 -9.12023,-7.36699 -20.69334,-21.30692 -22.70862,-27.35277 -0.9015,-2.70448 -19.79138,5.28041 -19.79138,8.36595 0,22.86868 -35.35573,26.87982 -42.84399,4.8607 -6.91382,-20.33 19.02466,-37.77363 34.87523,-23.45359 l 3.79826,3.4315 5.83525,-1.97556 c 11.93006,-4.03901 13.60462,-5.00375 12.86048,-7.40916 -8.47551,-27.39686 9.71264,-67.08456 37.14276,-81.04785 3.61584,-1.84064 3.70148,-0.99605 -1.56117,-15.39612 -3.31636,-9.07447 -3.44215,-9.25 -6.62886,-9.25 -23.25447,0 -26.63714,-35.95582 -4.00172,-42.53612 21.45229,-6.23635 36.7836,18.81268 22.15495,36.19784 l -2.44286,2.90317 2.98305,7.96756 c 1.64068,4.38215 3.46606,9.23683 4.05641,10.78817 0.88447,2.32425 1.49854,2.7139 3.4895,2.2142 23.9079,-6.0005 52.81671,2.32176 69.96452,20.14136 l 4.1818,4.34564 5.8182,-3.50675 5.81819,-3.50675 2.55027,5.24584 c 1.40265,2.88521 4.21515,7.84208 6.25,11.01526 3.77145,5.88125 4.43207,7.73058 2.76153,7.73058 -2.43043,0 -9.97611,5.58705 -9.45396,7 11.12716,30.11043 -4.83013,73.27281 -32.29443,87.35219 -4.62454,2.37074 -4.64993,2.67552 -0.98403,11.81364 l 3.34337,8.33417 4.41362,0.55234 c 11.37179,1.4231 19.41804,10.5535 19.34158,21.94766 -0.0995,14.82839 -14.94234,25.47573 -28.67998,20.57325 z M 406.9177,215.70874 c 0,-6.7632 -0.64233,-7.85699 -4.61405,-7.85699 -21.38052,0 -51.18865,-32.04447 -55.52417,-59.68984 l -1.28438,-8.18983 -10.27341,-0.31017 -10.27342,-0.31016 -1.13657,2.74993 c -9.47081,22.91443 -48.15611,8.59451 -41.03067,-15.18809 5.92653,-19.78102 42.13667,-21.84393 42.13667,-2.40055 0,1.08262 8.93052,2.33871 16.62764,2.33871 4.73629,0 4.24434,0.71896 6.38824,-9.33597 3.09677,-14.52385 13.64961,-30.533889 26.98412,-40.938419 l 3.5,-2.730949 -5.16596,-9.747332 -5.16596,-9.747332 -5.83404,-0.583833 c -21.675,-2.169096 -28.69201,-27.227159 -11.17732,-39.914731 18.98212,-13.7505838 43.35722,10.349062 30.40429,30.060711 l -2.34076,3.562147 5.47396,10.023548 5.47396,10.023548 7.16591,-2.452966 c 14.37067,-4.919226 39.9131,-3.726738 51.91592,2.423775 1.5125,0.775039 2.75,1.005101 2.75,0.51125 0,-0.493851 2.50751,-5.077082 5.57224,-10.184958 l 5.57224,-9.287047 -2.68034,-4.924671 c -9.11743,-16.751719 6.67856,-36.8964994 24.92546,-31.787684 24.00252,6.720291 19.20178,43.030911 -5.68925,43.030911 -4.5699,0 -5.55299,0.338555 -6.53353,2.25 -1.13747,2.217355 -1.87512,3.502847 -7.51946,13.104003 l -2.85263,4.85241 3.85263,3.118565 C 480.62654,89.55897 488.34,103.08123 493.33234,125.10175 l 0.62346,2.75 h 10.85963 10.85963 l 1.27764,-3.0845 c 9.16034,-22.11502 45.34883,-11.47829 41.56003,12.21556 -3.39631,21.23935 -33.61756,26.12826 -41.64941,6.73765 -2.25805,-5.45142 -22.54488,-3.70798 -23.52538,2.02176 -5.12923,29.97385 -33.66772,61.85079 -55.58845,62.09123 -4.22642,0.0464 -4.83179,1.03305 -4.83179,7.87529 v 6.64301 h -13 -13 z"
       id="path1613"
       sodipodi:nodetypes="ssssssssscssssssscsssscccsssssscsssssscccsssssscccssscccsssscssssscsscccsssssscccs" />
    <path
       style="fill:#ef5d50"
       d="m 1143.0185,573.47872 c -19.3736,-3.40946 -23.5949,-32.04675 -5.968,-40.48685 l 3.8443,-1.8407 0.011,-9.14301 c 0.012,-9.7804 -0.2949,-10.35699 -5.5187,-10.35699 -10.3606,0 -29.5667,-10.09591 -41.0398,-21.57311 l -8.0703,-8.0731 -8.6798,4.93609 -8.6799,4.93609 -0.022,5.13702 c -0.081,18.93779 -22.0866,29.09588 -36.172,16.69744 -19.4396,-17.11137 2.1609,-48.31034 24.7185,-35.70263 l 4.7298,2.64351 5.6228,-3.23909 c 3.0926,-1.7815 6.9729,-3.98479 8.6229,-4.89619 3.4339,-1.89677 3.4344,-1.57883 -0.021,-12.86603 -4.3906,-14.34405 -4.3731,-24.39348 0.077,-44 0.7468,-3.29047 -8.8804,-9.79531 -11.4174,-7.71447 -0.8144,0.66796 0.5088,-1.50659 2.9403,-4.83233 2.4316,-3.32574 5.7711,-8.8372 7.4211,-12.2477 3.4779,-7.18862 3.1989,-7.09669 9.9003,-3.26255 l 5.1437,2.94294 4.978,-5.01027 c 9.5693,-9.63134 20.7334,-15.65265 35.5992,-19.20034 l 9.1151,-2.17528 -0.6351,-11.5 c -0.3584,-6.48892 -1.0879,-11.65338 -1.6742,-11.852 -22.2666,-7.54351 -15.8189,-43.23447 7.7909,-43.12604 22.5408,0.10352 30.0224,31.11879 10.0321,41.58904 l -2.75,1.44036 v 11.84549 11.84549 l 5.1208,0.6793 c 14.8802,1.97392 30.3811,9.877 41.6588,21.23962 l 7.2797,7.33439 8.7203,-5.29945 8.7204,-5.29946 0.5252,-6.44837 c 1.6956,-20.81544 24.6838,-29.31041 38.093,-14.07672 16.1049,18.29607 -4.7445,44.75245 -26.5629,33.70656 l -4.7837,-2.4218 -8.8858,5.52265 c -9.9652,6.19353 -9.5556,5.55561 -6.9877,10.88311 6.4173,13.31389 7.243,35.15135 1.9407,51.32661 -2.4,7.32169 -3.4339,5.79733 8.3278,12.27916 6.3286,3.48771 6.7476,3.58435 8.2661,1.90646 12.9161,-14.27215 39.2676,3.33235 34.5327,23.07 -5.7382,23.91945 -40.6836,20.26925 -42.9344,-4.48468 l -0.531,-5.84028 -8,-4.29269 -8,-4.29269 -6.1854,7.28313 c -9.5783,11.27826 -27.5151,21.80452 -40.8146,23.95212 -9.2903,1.5002 -8.503,0.4968 -8.4742,10.79974 l 0.026,9.23095 4.0558,1.87136 c 22.4288,10.34861 9.6512,44.79558 -15.0066,40.45619 z m -180.31204,-351.2167 -0.28876,-6.88915 -5.5,-1.40057 c -28.87166,-7.35211 -55,-39.18345 -55,-67.00479 0,-1.92125 -20.94836,-0.0411 -21.54496,1.93366 -6.24793,20.68147 -41.45504,12.19688 -41.45504,-9.99029 0,-22.81057 35.62964,-29.9063 42.43902,-8.45183 1.13267,3.56872 21.56098,4.86518 21.56098,1.36835 0,-13.90135 15.90641,-40.061807 30,-49.339457 2.22421,-1.464175 2.35704,-1.883503 1.20409,-3.8012 -0.71276,-1.185512 -2.90715,-5.166 -4.87644,-8.845527 -4.87533,-9.109331 -4.6206,-8.898525 -11.34033,-9.384586 -24.47385,-1.770279 -26.84043,-37.557361 -2.84025,-42.949844 19.48999,-4.37911 34.37646,18.174782 22.60303,34.244939 l -1.90524,2.600559 5.57216,9.975929 5.57217,9.975929 7.2554,-2.425416 c 14.51736,-4.85302 39.04154,-3.714311 50.90691,2.363717 2.4479,1.253943 5.8485,-1.0564 5.8485,-3.973466 0,-0.248905 1.9711,-3.786529 4.3802,-7.861387 l 4.3802,-7.408832 -2.3525,-3.898066 c -11.8387,-19.615879 10.7956,-41.859123 30.3366,-29.812501 18.3128,11.289454 11.238,38.383791 -10.522,40.296236 l -6.4485,0.566739 -5.7532,9.955577 -5.7533,9.955578 3.6563,2.64861 c 12.3959,8.97951 27.0114,34.195019 27.0628,46.690239 l 0.013,3.25 h 10.7973 10.7972 l 3.4528,-5.24747 c 13.2589,-20.15095 45.3998,-7.63167 40.0561,15.60238 -4.6768,20.33442 -33.0725,24.15036 -41.3054,5.55081 l -1.2858,-2.90572 h -9.6741 c -11.7793,0 -12.8377,0.3473 -12.8377,4.21264 0,24.8668 -33.8468,62.64942 -56.26052,62.80267 -4.23424,0.029 -4.94502,1.28581 -4.58076,8.10012 l 0.34128,6.38457 h -13.21124 -13.21123 z"
       id="path1611"
       sodipodi:nodetypes="cscssscccssscsscssssscsscscsscccsscccssscssssssscccssscsccccsscssssssssscccsssscssscccsccccssccsssscccc" />
    <path
       style="fill:#54a50c;fill-opacity:1"
       d="m 684.29381,990.60175 c -14.10175,-9.44979 -13.07483,-30.20191 1.87389,-37.86764 l 3.75,-1.92301 v -12.47967 -12.47968 h -2.88992 c -27.15608,0 -67.707,-24.76157 -82.62432,-50.45282 -0.97464,-1.67858 -7.13611,0.98657 -21.48576,9.29369 -0.93864,0.54339 -1.71849,3.07464 -2.08383,6.76375 -1.92552,19.44331 -23.58214,27.45668 -37.25409,13.78473 -17.81517,-17.81517 5.16658,-46.64247 26.98893,-33.85372 l 4.44611,2.60559 7.20144,-3.68694 c 5.78478,-2.96166 10.25124,-5.41911 14.42903,-7.93886 0.12517,-0.0755 -1.36105,-4.58207 -3.30271,-10.01461 -9.68423,-27.09529 -7.89023,-61.06704 4.50825,-85.36979 2.67067,-5.23487 3.26355,-4.4977 -10.61751,-13.20143 l -10.76193,-6.74798 -3.02244,2.15217 c -16.96755,12.08196 -40.36566,-9.22622 -30.92787,-28.1654 10.24872,-20.5665 39.92258,-14.24938 41.22363,8.7759 l 0.37662,6.66531 11.49065,7.21252 11.49064,7.21252 2.06865,-2.76732 c 15.4262,-20.63628 43.636,-37.88083 69.27065,-42.34491 l 6.47578,-1.12771 V 691.9991 679.35175 h 13 13 v 12.53574 12.53575 l 9.25,1.84805 c 26.98142,5.39061 54.8634,23.42171 68.7708,44.47365 l 1.52081,2.30207 12.47919,-7.42401 12.4792,-7.42402 0.57542,-6.42361 c 2.23492,-24.94926 35.35508,-28.98185 42.49255,-5.17374 5.74721,19.17065 -17.58671,36.24902 -32.98146,24.13951 l -2.43667,-1.91669 -11.82492,6.96656 c -6.50371,3.8316 -12.37433,7.32524 -13.04582,7.76365 -0.91435,0.59694 -0.51608,2.30365 1.58614,6.79709 11.90085,25.43779 12.11989,65.38402 0.48648,88.71676 -3.42805,6.87551 -4.61687,5.39111 11.64828,14.54437 2.475,1.39281 5.32508,3.09753 6.33352,3.78828 1.54893,1.06095 2.71306,0.79114 7.5,-1.73829 16.16269,-8.54039 35.98905,6.44763 31.3707,23.71513 -6.69676,25.03846 -40.88438,22.47222 -43.12935,-3.23744 l -0.57487,-6.58354 -11,-6.40192 -11,-6.40192 -3,3.72394 c -22.94217,28.47842 -44.35677,40.50786 -81.75,45.92227 l -3.75,0.54299 v 12.33336 12.33337 l 2.86871,1.18826 c 6.73429,2.78943 12.13129,11.42022 12.13129,19.40014 0,17.21746 -19.4819,27.88099 -33.62389,18.40424 z"
       id="path1609"
       sodipodi:nodetypes="sscccsssssscssssscssscccsscccccccsscccssscssssssssscccsscccsss" />
    <path
       style="fill:#169daf"
       d="M 404.61902,442.55764 C 288.77758,429.07153 268.41618,269.57756 377.19737,227.75956 c 86.29852,-33.17515 175.72429,53.50637 144.22968,139.80364 -2.14919,5.88891 -2.61165,8.22925 -1.75567,8.88472 0.63915,0.48944 5.31584,3.24052 10.39264,6.11351 11.40316,6.45312 10.8983,5.19113 5.63896,14.09558 -2.4364,4.125 -5.06829,8.9625 -5.84864,10.75 -1.68589,3.86177 -2.91002,4.01316 -7.53874,0.93232 -1.91517,-1.27472 -6.50986,-3.99128 -10.21041,-6.03679 l -6.72828,-3.71912 -1.77172,2.27267 c -13.46025,17.26614 -36.37172,32.24373 -58.48859,38.23492 -15.01116,4.06633 -26.72982,5.06946 -40.49758,3.46663 z"
       id="path1607"
       sodipodi:nodetypes="ssssssssscsss" />
    <path
       style="fill:#7c7769"
       d="m 683.4177,678.80694 c -28.05321,-2.36833 -53.00592,-10.28113 -80,-25.36897 -1.85187,-1.03506 -9.61228,-6.18111 -15.5,-10.27828 -56.29528,-39.17497 -85.9749,-116.63491 -71.48608,-186.56938 32.31663,-155.9855 233.08178,-201.4831 329.61985,-74.69877 82.69792,108.60793 21.65768,267.92687 -112.63377,293.98136 -18.06089,3.50408 -32.91971,4.37601 -50,2.93404 z"
       id="path1605"
       sodipodi:nodetypes="sssssss" />
    <path
       style="fill:#e32251"
       d="m 964.91914,443.72446 c -29.25436,-3.38563 -54.63278,-16.92739 -73.65379,-39.30121 l -4.15236,-4.88428 -3.84764,2.29328 c -2.11621,1.26131 -5.87265,3.42272 -8.34765,4.80315 -2.475,1.38042 -5.38763,3.11882 -6.47251,3.86311 -2.79628,1.9184 -4.2882,1.68253 -5.07697,-0.80266 -0.37634,-1.18574 -3.06149,-6.11795 -5.967,-10.96045 l -5.28274,-8.80456 3.64961,-2.19303 c 2.00728,-1.20617 6.79961,-3.98198 10.64961,-6.16848 3.85,-2.18649 7.15645,-4.11137 7.34767,-4.27751 0.19121,-0.16614 -0.63347,-2.92062 -1.83262,-6.12107 -34.63356,-92.43417 65.04363,-182.08815 153.48495,-138.05101 91.2039,45.41271 78.4896,180.45701 -19.5,207.11801 -14.82366,4.03322 -27.18938,5.08486 -40.99856,3.48671 z"
       id="path1603"
       sodipodi:nodetypes="sscssssscsssssss" />
    <text
       xml:space="preserve"
       style="font-style:normal;font-variant:normal;font-weight:normal;font-stretch:normal;font-size:64px;font-family:Consolas;-inkscape-font-specification:Consolas;text-align:center;text-anchor:middle;fill:#ffffff;fill-opacity:1;stroke:none;stroke-width:1;stroke-linecap:round;stroke-dasharray:none"
       x="696.64062"
       y="475.70312"
       id="text1722"><tspan
         sodipodi:role="line"
         id="tspan1720"
         x="696.64062"
         y="475.70312"
         style="font-style:normal;font-variant:normal;font-weight:normal;font-stretch:normal;font-size:64px;font-family:Consolas;-inkscape-font-specification:Consolas;text-align:center;text-anchor:middle">Machine</tspan><tspan
         sodipodi:role="line"
         x="696.64062"
         y="555.70312"
         style="font-style:normal;font-variant:normal;font-weight:normal;font-stretch:normal;font-size:64px;font-family:Consolas;-inkscape-font-specification:Consolas;text-align:center;text-anchor:middle"
         id="tspan1930">Learning</tspan></text>
    <text
       xml:space="preserve"
       style="font-style:normal;font-variant:normal;font-weight:normal;font-stretch:normal;font-size:29.3333px;font-family:Consolas;-inkscape-font-specification:Consolas;text-align:center;text-anchor:middle;fill:#ffffff;fill-opacity:1;stroke:none;stroke-width:1;stroke-linecap:round;stroke-dasharray:none"
       x="698.3327"
       y="816.8808"
       id="text3406"><tspan
         sodipodi:role="line"
         id="tspan3404"
         x="698.3327"
         y="816.8808"
         style="font-size:29.3333px">Reinforcement</tspan><tspan
         sodipodi:role="line"
         x="698.3327"
         y="853.54742"
         id="tspan3408"
         style="font-size:29.3333px">Learning</tspan></text>
    <text
       xml:space="preserve"
       style="font-style:normal;font-variant:normal;font-weight:normal;font-stretch:normal;font-size:29.3333px;font-family:Consolas;-inkscape-font-specification:Consolas;text-align:center;text-anchor:middle;fill:#54a50c;fill-opacity:1;stroke:none;stroke-width:1;stroke-linecap:round;stroke-dasharray:none"
       x="929.29211"
       y="735.83032"
       id="text3412"><tspan
         sodipodi:role="line"
         id="tspan3410"
         x="929.29211"
         y="735.83032"
         style="font-style:normal;font-variant:normal;font-weight:normal;font-stretch:normal;font-family:Calibri;-inkscape-font-specification:Calibri;fill:#54a50c;fill-opacity:1">game AI</tspan></text>
    <text
       xml:space="preserve"
       style="font-style:normal;font-variant:normal;font-weight:normal;font-stretch:normal;font-size:29.3333px;font-family:Consolas;-inkscape-font-specification:Consolas;text-align:center;text-anchor:middle;fill:#54a50c;fill-opacity:1;stroke:none;stroke-width:1;stroke-linecap:round;stroke-dasharray:none"
       x="870.52423"
       y="881.98267"
       id="text3416"><tspan
         sodipodi:role="line"
         id="tspan3414"
         x="870.52423"
         y="881.98267"
         style="font-style:normal;font-variant:normal;font-weight:normal;font-stretch:normal;font-family:Calibri;-inkscape-font-specification:Calibri;text-align:start;text-anchor:start;fill:#54a50c;fill-opacity:1">skill</tspan><tspan
         sodipodi:role="line"
         x="870.52423"
         y="918.86414"
         id="tspan3812"
         style="font-style:normal;font-variant:normal;font-weight:normal;font-stretch:normal;font-family:Calibri;-inkscape-font-specification:Calibri;text-align:start;text-anchor:start;fill:#54a50c;fill-opacity:1">acquasition</tspan></text>
    <text
       xml:space="preserve"
       style="font-style:normal;font-variant:normal;font-weight:normal;font-stretch:normal;font-size:29.3333px;font-family:Consolas;-inkscape-font-specification:Consolas;text-align:center;text-anchor:middle;fill:#54a50c;fill-opacity:1;stroke:none;stroke-width:1;stroke-linecap:round;stroke-dasharray:none"
       x="833.82843"
       y="986.7392"
       id="text3420"><tspan
         sodipodi:role="line"
         id="tspan3418"
         x="833.82843"
         y="986.7392"
         style="font-style:normal;font-variant:normal;font-weight:normal;font-stretch:normal;font-family:Calibri;-inkscape-font-specification:Calibri;fill:#54a50c;fill-opacity:1">learning tasks</tspan></text>
    <text
       xml:space="preserve"
       style="font-style:normal;font-variant:normal;font-weight:normal;font-stretch:normal;font-size:29.3333px;font-family:Consolas;-inkscape-font-specification:Consolas;text-align:center;text-anchor:middle;fill:#54a50c;fill-opacity:1;stroke:none;stroke-width:1;stroke-linecap:round;stroke-dasharray:none"
       x="480.69745"
       y="913.24066"
       id="text3424"><tspan
         sodipodi:role="line"
         id="tspan3422"
         x="480.69745"
         y="913.24066"
         style="font-style:normal;font-variant:normal;font-weight:normal;font-stretch:normal;font-family:Calibri;-inkscape-font-specification:Calibri;fill:#54a50c;fill-opacity:1">robot</tspan><tspan
         sodipodi:role="line"
         x="480.69745"
         y="950.12213"
         id="tspan3810"
         style="font-style:normal;font-variant:normal;font-weight:normal;font-stretch:normal;font-family:Calibri;-inkscape-font-specification:Calibri;fill:#54a50c;fill-opacity:1">navigation</tspan></text>
    <text
       xml:space="preserve"
       style="font-style:normal;font-variant:normal;font-weight:normal;font-stretch:normal;font-size:29.3333px;font-family:Consolas;-inkscape-font-specification:Consolas;text-align:center;text-anchor:middle;fill:#54a50c;fill-opacity:1;stroke:none;stroke-width:1;stroke-linecap:round;stroke-dasharray:none"
       x="465.49088"
       y="717.24451"
       id="text3428"><tspan
         sodipodi:role="line"
         id="tspan3426"
         x="465.49088"
         y="717.24451"
         style="font-style:normal;font-variant:normal;font-weight:normal;font-stretch:normal;font-family:Calibri;-inkscape-font-specification:Calibri;fill:#54a50c;fill-opacity:1">real-time</tspan><tspan
         sodipodi:role="line"
         x="465.49088"
         y="754.12598"
         id="tspan3808"
         style="font-style:normal;font-variant:normal;font-weight:normal;font-stretch:normal;font-family:Calibri;-inkscape-font-specification:Calibri;fill:#54a50c;fill-opacity:1">decisions</tspan></text>
    <text
       xml:space="preserve"
       style="font-style:normal;font-variant:normal;font-weight:normal;font-stretch:normal;font-size:29.3333px;font-family:Consolas;-inkscape-font-specification:Consolas;text-align:center;text-anchor:middle;fill:#ffffff;fill-opacity:1;stroke:none;stroke-width:1;stroke-linecap:round;stroke-dasharray:none"
       x="977.38123"
       y="323.11487"
       id="text3406-2"><tspan
         sodipodi:role="line"
         x="977.38123"
         y="323.11487"
         style="font-size:29.3333px"
         id="tspan3852">Supervised</tspan><tspan
         sodipodi:role="line"
         x="977.38123"
         y="359.78149"
         id="tspan3408-5"
         style="font-size:29.3333px">Learning</tspan></text>
    <text
       xml:space="preserve"
       style="font-style:normal;font-variant:normal;font-weight:normal;font-stretch:normal;font-size:29.3333px;font-family:Consolas;-inkscape-font-specification:Consolas;text-align:center;text-anchor:middle;fill:#ffffff;fill-opacity:1;stroke:none;stroke-width:1;stroke-linecap:round;stroke-dasharray:none"
       x="415.65118"
       y="327.23907"
       id="text3406-1"><tspan
         sodipodi:role="line"
         id="tspan3404-4"
         x="415.65118"
         y="327.23907"
         style="font-size:29.3333px">Unsupervised</tspan><tspan
         sodipodi:role="line"
         x="415.65118"
         y="363.9057"
         id="tspan3408-4"
         style="font-size:29.3333px">Learning</tspan></text>
    <text
       xml:space="preserve"
       style="font-style:normal;font-variant:normal;font-weight:normal;font-stretch:normal;font-size:29.3333px;font-family:Calibri;-inkscape-font-specification:Calibri;text-align:center;text-anchor:middle;fill:#ffffff;fill-opacity:1;stroke:none;stroke-width:1;stroke-linecap:round;stroke-dasharray:none"
       x="1146.8602"
       y="445.25583"
       id="text3406-6"><tspan
         sodipodi:role="line"
         x="1146.8602"
         y="445.25583"
         style="font-style:normal;font-variant:normal;font-weight:normal;font-stretch:normal;font-size:29.3333px;font-family:Calibri;-inkscape-font-specification:Calibri"
         id="tspan3900">Regression</tspan></text>
    <text
       xml:space="preserve"
       style="font-style:normal;font-variant:normal;font-weight:normal;font-stretch:normal;font-size:24px;font-family:Consolas;-inkscape-font-specification:Consolas;text-align:center;text-anchor:middle;fill:#ffffff;fill-opacity:1;stroke:none;stroke-width:1;stroke-linecap:round;stroke-dasharray:none"
       x="976.9989"
       y="144.8783"
       id="text3406-9"><tspan
         sodipodi:role="line"
         x="976.9989"
         y="144.8783"
         id="tspan3408-59"
         style="font-style:normal;font-variant:normal;font-weight:normal;font-stretch:normal;font-size:24px;font-family:Calibri;-inkscape-font-specification:Calibri">Classification</tspan></text>
    <text
       xml:space="preserve"
       style="font-style:normal;font-variant:normal;font-weight:normal;font-stretch:normal;font-size:29.3333px;font-family:Calibri;-inkscape-font-specification:Calibri;text-align:center;text-anchor:middle;fill:#ffffff;fill-opacity:1;stroke:none;stroke-width:1;stroke-linecap:round;stroke-dasharray:none"
       x="248.20251"
       y="440.05331"
       id="text3406-6-4"><tspan
         sodipodi:role="line"
         x="248.20251"
         y="440.05331"
         style="font-style:normal;font-variant:normal;font-weight:normal;font-stretch:normal;font-size:29.3333px;font-family:Calibri;-inkscape-font-specification:Calibri"
         id="tspan3900-2">Clustering</tspan></text>
    <text
       xml:space="preserve"
       style="font-style:normal;font-variant:normal;font-weight:normal;font-stretch:normal;font-size:29.3333px;font-family:Calibri;-inkscape-font-specification:Calibri;text-align:center;text-anchor:middle;fill:#169daf;fill-opacity:1;stroke:none;stroke-width:1;stroke-linecap:round;stroke-dasharray:none"
       x="81.070671"
       y="515.84985"
       id="text3406-6-1"><tspan
         sodipodi:role="line"
         x="81.070671"
         y="515.84985"
         style="font-style:normal;font-variant:normal;font-weight:normal;font-stretch:normal;font-size:29.3333px;font-family:Calibri;-inkscape-font-specification:Calibri;fill:#169daf;fill-opacity:1"
         id="tspan3900-4">targeted</tspan><tspan
         sodipodi:role="line"
         x="81.070671"
         y="552.51648"
         style="font-style:normal;font-variant:normal;font-weight:normal;font-stretch:normal;font-size:29.3333px;font-family:Calibri;-inkscape-font-specification:Calibri;fill:#169daf;fill-opacity:1"
         id="tspan4048">marketing</tspan></text>
    <text
       xml:space="preserve"
       style="font-style:normal;font-variant:normal;font-weight:normal;font-stretch:normal;font-size:29.3333px;font-family:Calibri;-inkscape-font-specification:Calibri;text-align:center;text-anchor:middle;fill:#169daf;fill-opacity:1;stroke:none;stroke-width:1;stroke-linecap:round;stroke-dasharray:none"
       x="295.62311"
       y="585.17682"
       id="text3406-6-1-7"><tspan
         sodipodi:role="line"
         x="295.62311"
         y="585.17682"
         style="font-style:normal;font-variant:normal;font-weight:normal;font-stretch:normal;font-size:29.3333px;font-family:Calibri;-inkscape-font-specification:Calibri;fill:#169daf;fill-opacity:1"
         id="tspan4048-7">customer</tspan><tspan
         sodipodi:role="line"
         x="295.62311"
         y="621.84344"
         style="font-style:normal;font-variant:normal;font-weight:normal;font-stretch:normal;font-size:29.3333px;font-family:Calibri;-inkscape-font-specification:Calibri;fill:#169daf;fill-opacity:1"
         id="tspan5645">segmentation</tspan></text>
    <text
       xml:space="preserve"
       style="font-style:normal;font-variant:normal;font-weight:normal;font-stretch:normal;font-size:29.3333px;font-family:Calibri;-inkscape-font-specification:Calibri;text-align:center;text-anchor:middle;fill:#169daf;fill-opacity:1;stroke:none;stroke-width:1;stroke-linecap:round;stroke-dasharray:none"
       x="129.55382"
       y="291.26996"
       id="text3406-6-1-3"><tspan
         sodipodi:role="line"
         x="129.55382"
         y="291.26996"
         style="font-style:normal;font-variant:normal;font-weight:normal;font-stretch:normal;font-size:29.3333px;font-family:Calibri;-inkscape-font-specification:Calibri;fill:#169daf;fill-opacity:1"
         id="tspan4048-4">recommender</tspan><tspan
         sodipodi:role="line"
         x="129.55382"
         y="327.93658"
         style="font-style:normal;font-variant:normal;font-weight:normal;font-stretch:normal;font-size:29.3333px;font-family:Calibri;-inkscape-font-specification:Calibri;fill:#169daf;fill-opacity:1"
         id="tspan5641">systems</tspan></text>
    <text
       xml:space="preserve"
       style="font-style:normal;font-variant:normal;font-weight:normal;font-stretch:normal;font-size:29.3333px;font-family:Calibri;-inkscape-font-specification:Calibri;text-align:center;text-anchor:middle;fill:#169daf;fill-opacity:1;stroke:none;stroke-width:1;stroke-linecap:round;stroke-dasharray:none"
       x="213.3642"
       y="125.74323"
       id="text3406-6-1-9"><tspan
         sodipodi:role="line"
         x="213.36418"
         y="125.74323"
         style="font-style:normal;font-variant:normal;font-weight:normal;font-stretch:normal;font-size:29.3333px;font-family:Calibri;-inkscape-font-specification:Calibri;fill:#169daf;fill-opacity:1"
         id="tspan4048-0">big data</tspan><tspan
         sodipodi:role="line"
         x="213.3642"
         y="162.40985"
         style="font-style:normal;font-variant:normal;font-weight:normal;font-stretch:normal;font-size:29.3333px;font-family:Calibri;-inkscape-font-specification:Calibri;fill:#169daf;fill-opacity:1"
         id="tspan5649">visualization</tspan></text>
    <text
       xml:space="preserve"
       style="font-style:normal;font-variant:normal;font-weight:normal;font-stretch:normal;font-size:29.3333px;font-family:Calibri;-inkscape-font-specification:Calibri;text-align:center;text-anchor:middle;fill:#169daf;fill-opacity:1;stroke:none;stroke-width:1;stroke-linecap:round;stroke-dasharray:none"
       x="262.2243"
       y="24.471769"
       id="text3406-6-1-0"><tspan
         sodipodi:role="line"
         x="262.2243"
         y="24.471769"
         style="font-style:normal;font-variant:normal;font-weight:normal;font-stretch:normal;font-size:29.3333px;font-family:Calibri;-inkscape-font-specification:Calibri;fill:#169daf;fill-opacity:1"
         id="tspan4048-74">meaningful</tspan><tspan
         sodipodi:role="line"
         x="262.2243"
         y="61.138393"
         style="font-style:normal;font-variant:normal;font-weight:normal;font-stretch:normal;font-size:29.3333px;font-family:Calibri;-inkscape-font-specification:Calibri;fill:#169daf;fill-opacity:1"
         id="tspan5653">compression</tspan></text>
    <text
       xml:space="preserve"
       style="font-style:normal;font-variant:normal;font-weight:normal;font-stretch:normal;font-size:29.3333px;font-family:Calibri;-inkscape-font-specification:Calibri;text-align:center;text-anchor:middle;fill:#169daf;fill-opacity:1;stroke:none;stroke-width:1;stroke-linecap:round;stroke-dasharray:none"
       x="560.53314"
       y="22.082285"
       id="text3406-6-1-1"><tspan
         sodipodi:role="line"
         x="560.53314"
         y="22.082285"
         style="font-style:normal;font-variant:normal;font-weight:normal;font-stretch:normal;font-size:29.3333px;font-family:Calibri;-inkscape-font-specification:Calibri;fill:#169daf;fill-opacity:1"
         id="tspan4048-6">structure</tspan><tspan
         sodipodi:role="line"
         x="560.53314"
         y="58.748909"
         style="font-style:normal;font-variant:normal;font-weight:normal;font-stretch:normal;font-size:29.3333px;font-family:Calibri;-inkscape-font-specification:Calibri;fill:#169daf;fill-opacity:1"
         id="tspan5657">discovery</tspan></text>
    <text
       xml:space="preserve"
       style="font-style:normal;font-variant:normal;font-weight:normal;font-stretch:normal;font-size:29.3333px;font-family:Calibri;-inkscape-font-specification:Calibri;text-align:center;text-anchor:middle;fill:#169daf;fill-opacity:1;stroke:none;stroke-width:1;stroke-linecap:round;stroke-dasharray:none"
       x="609.27112"
       y="129.52426"
       id="text3406-6-1-16"><tspan
         sodipodi:role="line"
         x="609.27112"
         y="129.52426"
         style="font-style:normal;font-variant:normal;font-weight:normal;font-stretch:normal;font-size:29.3333px;font-family:Calibri;-inkscape-font-specification:Calibri;fill:#169daf;fill-opacity:1"
         id="tspan4048-5">feature</tspan><tspan
         sodipodi:role="line"
         x="609.27112"
         y="166.19089"
         style="font-style:normal;font-variant:normal;font-weight:normal;font-stretch:normal;font-size:29.3333px;font-family:Calibri;-inkscape-font-specification:Calibri;fill:#169daf;fill-opacity:1"
         id="tspan6387">elicitation</tspan></text>
    <text
       xml:space="preserve"
       style="font-style:normal;font-variant:normal;font-weight:normal;font-stretch:normal;font-size:24px;font-family:Consolas;-inkscape-font-specification:Consolas;text-align:center;text-anchor:middle;fill:#ffffff;fill-opacity:1;stroke:none;stroke-width:1;stroke-linecap:round;stroke-dasharray:none"
       x="419.32507"
       y="134.37119"
       id="text3406-9-0"><tspan
         sodipodi:role="line"
         x="419.32507"
         y="134.37119"
         id="tspan3408-59-6"
         style="font-style:normal;font-variant:normal;font-weight:normal;font-stretch:normal;font-size:24px;font-family:Calibri;-inkscape-font-specification:Calibri">Dimensionality</tspan><tspan
         sodipodi:role="line"
         x="419.32507"
         y="164.54697"
         style="font-style:normal;font-variant:normal;font-weight:normal;font-stretch:normal;font-size:24px;font-family:Calibri;-inkscape-font-specification:Calibri"
         id="tspan7148">reduction</tspan></text>
    <text
       xml:space="preserve"
       style="font-style:normal;font-variant:normal;font-weight:normal;font-stretch:normal;font-size:29.3333px;font-family:Consolas;-inkscape-font-specification:Consolas;text-align:center;text-anchor:middle;fill:#e32251;fill-opacity:1;stroke:none;stroke-width:1;stroke-linecap:round;stroke-dasharray:none"
       x="967.39941"
       y="478.61951"
       id="text3412-1"><tspan
         sodipodi:role="line"
         id="tspan3410-1"
         x="967.39941"
         y="478.61951"
         style="font-style:normal;font-variant:normal;font-weight:normal;font-stretch:normal;font-family:Calibri;-inkscape-font-specification:Calibri;fill:#e32251;fill-opacity:1">population</tspan><tspan
         sodipodi:role="line"
         x="967.39941"
         y="515.50098"
         style="font-style:normal;font-variant:normal;font-weight:normal;font-stretch:normal;font-family:Calibri;-inkscape-font-specification:Calibri;fill:#e32251;fill-opacity:1"
         id="tspan7969">growth</tspan><tspan
         sodipodi:role="line"
         x="967.39941"
         y="552.38245"
         style="font-style:normal;font-variant:normal;font-weight:normal;font-stretch:normal;font-family:Calibri;-inkscape-font-specification:Calibri;fill:#e32251;fill-opacity:1"
         id="tspan7971">prediciton</tspan></text>
    <text
       xml:space="preserve"
       style="font-style:normal;font-variant:normal;font-weight:normal;font-stretch:normal;font-size:29.3333px;font-family:Consolas;-inkscape-font-specification:Consolas;text-align:center;text-anchor:middle;fill:#e32251;fill-opacity:1;stroke:none;stroke-width:1;stroke-linecap:round;stroke-dasharray:none"
       x="1158.5583"
       y="594.50958"
       id="text3412-19"><tspan
         sodipodi:role="line"
         id="tspan3410-6"
         x="1158.5583"
         y="594.50958"
         style="font-style:normal;font-variant:normal;font-weight:normal;font-stretch:normal;font-family:Calibri;-inkscape-font-specification:Calibri;fill:#e32251;fill-opacity:1">estimating</tspan><tspan
         sodipodi:role="line"
         x="1158.5583"
         y="631.39105"
         style="font-style:normal;font-variant:normal;font-weight:normal;font-stretch:normal;font-family:Calibri;-inkscape-font-specification:Calibri;fill:#e32251;fill-opacity:1"
         id="tspan7990">life expectancy</tspan></text>
    <text
       xml:space="preserve"
       style="font-style:normal;font-variant:normal;font-weight:normal;font-stretch:normal;font-size:29.3333px;font-family:Consolas;-inkscape-font-specification:Consolas;text-align:center;text-anchor:middle;fill:#e32251;fill-opacity:1;stroke:none;stroke-width:1;stroke-linecap:round;stroke-dasharray:none"
       x="1318.6538"
       y="513.26703"
       id="text3412-2"><tspan
         sodipodi:role="line"
         id="tspan3410-5"
         x="1318.6538"
         y="513.26703"
         style="font-style:normal;font-variant:normal;font-weight:normal;font-stretch:normal;font-family:Calibri;-inkscape-font-specification:Calibri;fill:#e32251;fill-opacity:1">market</tspan><tspan
         sodipodi:role="line"
         x="1318.6538"
         y="550.1485"
         style="font-style:normal;font-variant:normal;font-weight:normal;font-stretch:normal;font-family:Calibri;-inkscape-font-specification:Calibri;fill:#e32251;fill-opacity:1"
         id="tspan8009">forecasting</tspan></text>
    <text
       xml:space="preserve"
       style="font-style:normal;font-variant:normal;font-weight:normal;font-stretch:normal;font-size:29.3333px;font-family:Consolas;-inkscape-font-specification:Consolas;text-align:center;text-anchor:middle;fill:#e32251;fill-opacity:1;stroke:none;stroke-width:1;stroke-linecap:round;stroke-dasharray:none"
       x="1324.6276"
       y="381.84531"
       id="text3412-22"><tspan
         sodipodi:role="line"
         id="tspan3410-4"
         x="1324.6276"
         y="381.84531"
         style="font-style:normal;font-variant:normal;font-weight:normal;font-stretch:normal;font-family:Calibri;-inkscape-font-specification:Calibri;fill:#e32251;fill-opacity:1">weather</tspan><tspan
         sodipodi:role="line"
         x="1324.6276"
         y="418.72678"
         style="font-style:normal;font-variant:normal;font-weight:normal;font-stretch:normal;font-family:Calibri;-inkscape-font-specification:Calibri;fill:#e32251;fill-opacity:1"
         id="tspan8047">forecasting</tspan></text>
    <text
       xml:space="preserve"
       style="font-style:normal;font-variant:normal;font-weight:normal;font-stretch:normal;font-size:29.3333px;font-family:Consolas;-inkscape-font-specification:Consolas;text-align:center;text-anchor:middle;fill:#e32251;fill-opacity:1;stroke:none;stroke-width:1;stroke-linecap:round;stroke-dasharray:none"
       x="1240.9956"
       y="289.8501"
       id="text3412-9"><tspan
         sodipodi:role="line"
         id="tspan3410-3"
         x="1240.9956"
         y="289.8501"
         style="font-style:normal;font-variant:normal;font-weight:normal;font-stretch:normal;font-family:Calibri;-inkscape-font-specification:Calibri;fill:#e32251;fill-opacity:1">advertising popularity</tspan><tspan
         sodipodi:role="line"
         x="1240.9956"
         y="326.73157"
         style="font-style:normal;font-variant:normal;font-weight:normal;font-stretch:normal;font-family:Calibri;-inkscape-font-specification:Calibri;fill:#e32251;fill-opacity:1"
         id="tspan8045">predicitonI</tspan></text>
    <text
       xml:space="preserve"
       style="font-style:normal;font-variant:normal;font-weight:normal;font-stretch:normal;font-size:29.3333px;font-family:Consolas;-inkscape-font-specification:Consolas;text-align:center;text-anchor:middle;fill:#e32251;fill-opacity:1;stroke:none;stroke-width:1;stroke-linecap:round;stroke-dasharray:none"
       x="1184.777"
       y="166.94513"
       id="text3412-9-2"><tspan
         sodipodi:role="line"
         x="1184.777"
         y="166.94513"
         style="font-style:normal;font-variant:normal;font-weight:normal;font-stretch:normal;font-family:Calibri;-inkscape-font-specification:Calibri;fill:#e32251;fill-opacity:1"
         id="tspan8045-4">diagnostics</tspan></text>
    <text
       xml:space="preserve"
       style="font-style:normal;font-variant:normal;font-weight:normal;font-stretch:normal;font-size:29.3333px;font-family:Calibri;-inkscape-font-specification:Calibri;text-align:start;text-anchor:start;fill:#e32251;fill-opacity:1;stroke:none;stroke-width:1;stroke-linecap:round;stroke-dasharray:none"
       x="1066.9056"
       y="40.621269"
       id="text8571"><tspan
         sodipodi:role="line"
         id="tspan8569"
         x="1066.9056"
         y="40.621269">customer retention</tspan></text>
    <text
       xml:space="preserve"
       style="font-style:normal;font-variant:normal;font-weight:normal;font-stretch:normal;font-size:29.3333px;font-family:Consolas;-inkscape-font-specification:Consolas;text-align:center;text-anchor:middle;fill:#e32251;fill-opacity:1;stroke:none;stroke-width:1;stroke-linecap:round;stroke-dasharray:none"
       x="835.91205"
       y="40.302349"
       id="text3412-9-9"><tspan
         sodipodi:role="line"
         x="835.91205"
         y="40.302349"
         style="font-style:normal;font-variant:normal;font-weight:normal;font-stretch:normal;font-family:Calibri;-inkscape-font-specification:Calibri;fill:#e32251;fill-opacity:1"
         id="tspan8045-3">image</tspan><tspan
         sodipodi:role="line"
         x="835.91205"
         y="77.183823"
         style="font-style:normal;font-variant:normal;font-weight:normal;font-stretch:normal;font-family:Calibri;-inkscape-font-specification:Calibri;fill:#e32251;fill-opacity:1"
         id="tspan8621">classification</tspan></text>
    <text
       xml:space="preserve"
       style="font-style:normal;font-variant:normal;font-weight:normal;font-stretch:normal;font-size:29.3333px;font-family:Consolas;-inkscape-font-specification:Consolas;text-align:center;text-anchor:middle;fill:#e32251;fill-opacity:1;stroke:none;stroke-width:1;stroke-linecap:round;stroke-dasharray:none"
       x="784.53809"
       y="147.82924"
       id="text3412-9-4"><tspan
         sodipodi:role="line"
         x="784.53809"
         y="147.82924"
         style="font-style:normal;font-variant:normal;font-weight:normal;font-stretch:normal;font-family:Calibri;-inkscape-font-specification:Calibri;fill:#e32251;fill-opacity:1"
         id="tspan8045-8">identity</tspan><tspan
         sodipodi:role="line"
         x="784.53809"
         y="184.71071"
         style="font-style:normal;font-variant:normal;font-weight:normal;font-stretch:normal;font-family:Calibri;-inkscape-font-specification:Calibri;fill:#e32251;fill-opacity:1"
         id="tspan8619">fraud detection</tspan></text>
  </g>
</svg>
