<?xml version="1.0" encoding="UTF-8" standalone="no"?>
<!-- Created with Inkscape (http://www.inkscape.org/) -->

<svg
   version="1.1"
   id="svg10145"
   width="914"
   height="379"
   viewBox="0 0 914 379"
   sodipodi:docname="t-shirt_size.svg"
   inkscape:version="1.2.2 (732a01da63, 2022-12-09)"
   xmlns:inkscape="http://www.inkscape.org/namespaces/inkscape"
   xmlns:sodipodi="http://sodipodi.sourceforge.net/DTD/sodipodi-0.dtd"
   xmlns="http://www.w3.org/2000/svg"
   xmlns:svg="http://www.w3.org/2000/svg">
  <defs
     id="defs10149" />
  <sodipodi:namedview
     id="namedview10147"
     pagecolor="#505050"
     bordercolor="#ffffff"
     borderopacity="1"
     inkscape:showpageshadow="0"
     inkscape:pageopacity="0"
     inkscape:pagecheckerboard="1"
     inkscape:deskcolor="#505050"
     showgrid="false"
     inkscape:zoom="1.3238512"
     inkscape:cx="443.02562"
     inkscape:cy="189.59835"
     inkscape:window-width="1920"
     inkscape:window-height="1017"
     inkscape:window-x="1912"
     inkscape:window-y="32"
     inkscape:window-maximized="1"
     inkscape:current-layer="g10864" />
  <g
     inkscape:groupmode="layer"
     inkscape:label="Image"
     id="g10151">
    <path
       style="fill:#113bfb"
       d="m 200.25218,352.5 c 0.0111,-2.2 0.21589,-2.98225 0.45508,-1.73834 0.23919,1.24391 0.23011,3.04391 -0.0202,4 -0.25029,0.95609 -0.446,-0.0617 -0.4349,-2.26166 z m 28.04748,-2.5 c 0,-3.025 0.18747,-4.2625 0.41659,-2.75 0.22913,1.5125 0.22913,3.9875 0,5.5 -0.22912,1.5125 -0.41659,0.275 -0.41659,-2.75 z m 24.95252,1.5 c 0.0111,-2.2 0.21589,-2.98225 0.45508,-1.73834 0.23919,1.24391 0.23011,3.04391 -0.0202,4 -0.25029,0.95609 -0.446,-0.0617 -0.4349,-2.26166 z M 223,348.5 c 0,-0.275 0.225,-0.5 0.5,-0.5 0.275,0 0.5,0.225 0.5,0.5 0,0.275 -0.225,0.5 -0.5,0.5 -0.275,0 -0.5,-0.225 -0.5,-0.5 z m -22.74782,-5 c 0.0111,-2.2 0.21589,-2.98225 0.45508,-1.73834 0.23919,1.24391 0.23011,3.04391 -0.0202,4 -0.25029,0.95609 -0.446,-0.0617 -0.4349,-2.26166 z M 228,340.5 c 0,-0.275 0.225,-0.5 0.5,-0.5 0.275,0 0.5,0.225 0.5,0.5 0,0.275 -0.225,0.5 -0.5,0.5 -0.275,0 -0.5,-0.225 -0.5,-0.5 z M 95.315629,315.57999 C 88.508115,313.82604 84.711547,311.36572 77.759128,304.20271 69.828851,296.03222 69,293.6115 69,278.6211 c 0,-18.52653 0.750801,-20.05822 19.129412,-39.02523 8.141804,-8.40248 16.505928,-16.40185 18.586938,-17.7764 7.85054,-5.18543 9.95542,-6.35767 16.24997,-9.0498 5.37752,-2.29992 6.69007,-2.54185 7.7951,-1.43682 1.10504,1.10504 0.18461,1.80933 -5.46632,4.18272 -11.87629,4.98805 -19.43105,10.79447 -34.74492,26.70415 -17.68164,18.36958 -18.552096,20.10931 -18.546442,37.06779 0.0032,9.67949 0.295225,11.69065 2.135692,14.70979 9.608862,15.76256 20.196659,20.72279 42.15292,19.74807 6.71421,-0.29807 15.58265,-1.32244 19.70765,-2.27638 15.69174,-3.62884 32.77167,-8.81626 39.77193,-12.07931 3.99957,-1.86432 7.50952,-3.38968 7.7999,-3.38968 0.29038,0 4.99159,-2.95264 10.44714,-6.56141 18.38198,-12.15946 21.55313,-18.56024 14.50071,-29.2688 -1.91418,-2.90654 -4.1929,-6.78623 -5.06381,-8.62154 -0.87091,-1.83532 -4.74592,-6.42198 -8.61112,-10.19259 -3.86521,-3.77061 -8.81442,-9.23674 -10.99825,-12.14696 -5.02465,-6.69593 -10.21314,-9.24533 -34.0965,-16.75354 -9.82006,-3.08713 -11.75,-4.02032 -11.75,-5.68149 0,-1.49038 0.43782,-1.81424 1.75,-1.29453 4.05811,1.60728 12.47464,4.50975 23.25,8.01784 14.62558,4.76158 18.80375,7.23676 24.13403,14.29716 2.36921,3.13822 5.66352,6.83086 7.32069,8.20586 6.21309,5.15519 8.42455,7.6671 10.97804,12.46956 1.44363,2.7151 3.24592,5.63267 4.00509,6.48349 2.90011,3.25024 6.56215,11.48804 6.56215,14.76163 0,3.4976 -1.29313,6.7213 -3.63587,9.06405 -0.726,0.726 -1.66743,1.86028 -2.09207,2.52063 -1.27954,1.98983 -9.44614,8.18373 -14.77206,11.20379 -2.75,1.55939 -5.675,3.39102 -6.5,4.07029 -5.32922,4.3879 -28.73364,12.75918 -49,17.52632 -11.00889,2.58955 -37.03289,3.45163 -44.684371,1.48023 z M 559.0067,311.42385 c -15.6131,-4.81315 -19.17411,-6.90513 -24.71227,-14.51762 -1.76306,-2.42343 -4.26823,-5.75623 -5.56704,-7.40623 -4.27987,-5.43711 -5.23075,-9.29587 -5.17487,-21 0.1292,-27.06254 7.6559,-38.88947 29.2485,-45.95904 4.68842,-1.53502 7.01099,-1.62074 20.09783,-0.74178 8.13824,0.54659 15.65278,1.41424 16.69897,1.92811 1.0462,0.51387 3.47718,1.73554 5.40218,2.71482 4.12833,2.10015 12.2257,4.66552 12.82732,4.0639 0.23136,-0.23135 -2.32414,-3.70235 -5.67887,-7.71333 -6.11509,-7.3113 -13.90286,-19.39808 -19.27577,-29.91638 C 580.52388,188.27816 580,185.98479 580,180.30061 c 0,-6.11398 0.29998,-7.2338 2.48858,-9.28988 2.18998,-2.05738 3.72077,-2.39271 12.75751,-2.79461 11.61494,-0.51658 21.47605,1.61179 31.97539,6.90138 3.14682,1.58538 6.07182,2.87249 6.5,2.86026 1.12896,-0.0322 -3.26291,-3.46723 -10.72148,-8.38551 -6.96458,-4.59254 -10.47245,-7.7529 -15.97171,-14.38942 -9.65055,-11.64631 -15.73265,-30.04381 -13.07287,-39.5436 2.46558,-8.80619 11.99332,-15.48922 31.04458,-21.775561 16.81982,-5.550033 31.93398,-4.914476 40.14915,1.688289 1.45702,1.171057 8.75939,5.201992 16.22748,8.957642 11.03346,5.54864 15.02696,8.18171 21.30761,14.04892 6.98987,6.52975 19.45546,14.81867 32.7527,21.77872 6.68666,3.49993 14.41007,10.32988 20.21981,17.88075 l 4.81808,6.26201 -0.32837,21.5 c -0.25718,16.83884 0.0398,23.65884 1.36984,31.45782 2.07573,12.17142 1.62586,18.6975 -1.51969,22.04579 -6.41806,6.83171 -15.82698,5.4365 -38.99661,-5.78263 -7.975,-3.86163 -18.50512,-9.42861 -23.40026,-12.37107 C 692.7046,218.40746 688.28203,216 687.77182,216 c -0.51022,0 0.62787,1.81729 2.52907,4.03842 3.54102,4.13689 4.91997,7.24108 8.64528,19.46158 4.70557,15.43618 3.92689,19.81747 -4.19593,23.60842 -4.47544,2.08871 -6.52542,2.38253 -16.18732,2.32015 -8.04988,-0.052 -13.11543,-0.64797 -18.5991,-2.18828 -6.92068,-1.94396 -23.98332,-9.9075 -29.96382,-13.98483 -1.375,-0.93743 0.0647,0.85863 3.19928,3.99126 4.04275,4.04019 5.89674,6.74821 6.37863,9.31689 1.36945,7.29976 -1.75259,24.1569 -5.955,32.15348 -5.21346,9.92044 -19.3923,17.2062 -39.31446,20.20162 -13.27346,1.99574 -19.48636,1.38067 -35.30175,-3.49486 z M 597.5,311.01406 c 2.75,-0.62979 8.825,-2.33494 13.5,-3.78922 7.22257,-2.24677 9.34966,-3.44828 14.15367,-7.99484 3.10952,-2.94287 6.0902,-6.56103 6.62373,-8.04034 2.2811,-6.32476 4.16028,-14.10531 4.78208,-19.7997 0.94787,-8.68053 -0.82852,-11.81355 -11.67695,-20.59471 C 618.5105,245.63747 616,242.97507 616,241.37527 c 0,-2.38554 -3.77705,-5.92388 -7.33246,-6.86906 -10.42835,-2.77229 -12.91475,-3.66257 -20.14782,-7.21414 -1.70327,-0.83634 -8.54755,-1.88067 -15.97324,-2.43727 -12.13463,-0.90955 -13.42414,-0.83038 -19.51973,1.19854 -14.0454,4.67501 -20.30379,10.84869 -23.76836,23.44666 C 526.38571,259.94571 526,262.17481 526,268.33107 c 0,11.00375 4.23264,19.68098 15,30.75113 3.87479,3.98376 5.75043,5.00379 13.5,7.34172 4.95,1.49335 11.475,3.5795 14.5,4.63589 6.09947,2.13007 19.09027,2.10922 28.5,-0.0458 z m 94.1849,-50.08067 c 4.06068,-1.53855 7.3151,-4.92138 7.3151,-7.60372 0,-1.27694 -0.85906,-4.911 -1.90902,-8.07569 -1.04997,-3.16469 -2.70525,-8.45398 -3.67842,-11.75398 -3.28767,-11.1485 -17.86915,-26.73058 -29.663,-31.69854 -0.96275,-0.40554 -4.11275,-2.50459 -7,-4.66455 -2.88726,-2.15997 -10.38904,-6.49177 -16.67063,-9.62621 -6.28159,-3.13445 -12.65666,-6.93459 -14.16682,-8.44475 -4.40356,-4.40355 -20.01235,-8.41647 -30.57969,-7.86182 C 584.88903,171.75227 583,173.13847 583,180.25386 c 0,5.68864 1.34127,8.91314 8.69286,20.89823 2.91893,4.75866 5.30929,9.03366 5.31192,9.5 0.003,0.46635 1.67498,2.64791 3.71634,4.84791 2.04136,2.2 5.24594,6.025 7.12128,8.5 11.57144,15.27154 32.84317,29.80274 52.1576,35.63004 8.33818,2.51568 26.51212,3.26326 31.6849,1.30335 z M 626,246.55902 c 0,-0.24254 -0.45,-0.7191 -1,-1.05902 -0.55,-0.33992 -1,-0.14148 -1,0.44098 0,0.58246 0.45,1.05902 1,1.05902 0.55,0 1,-0.19844 1,-0.44098 z m 128.82193,-7.64679 c 3.709,-1.29296 4.73068,-4.87242 3.74033,-13.10429 -0.35121,-2.91937 -0.88443,-17.61541 -1.18491,-32.65788 l -0.54634,-27.34993 -4.45183,-5.85378 c -6.15468,-8.09287 -13.30476,-13.9181 -23.87918,-19.45457 -4.95,-2.59168 -9.675,-5.27511 -10.5,-5.96317 -0.825,-0.68807 -3.525,-2.42759 -6,-3.8656 -2.475,-1.43801 -7.85397,-5.77953 -11.95326,-9.64782 -6.5355,-6.1672 -9.67548,-8.13028 -25.5,-15.94229 -23.10161,-11.404464 -26.26633,-12.3891 -35.57599,-11.068752 -3.9222,0.556269 -8.02717,1.490863 -9.12214,2.076875 -1.09498,0.586013 -4.5097,1.721551 -7.58828,2.523419 C 611.769,101.33708 598,110.45341 598,114.66697 c 0,0.74809 -0.52412,2.19942 -1.16472,3.22518 -1.70464,2.72956 1.38155,14.73817 6.29211,24.48314 5.04839,10.01847 11.62678,17.56859 19.87261,22.80809 5.47632,3.47971 16.27012,11.82801 18,13.92181 1.83149,2.21678 17.30953,14.4945 21,16.65791 2.475,1.45089 9,5.60181 14.5,9.22427 5.5,3.62246 12.25,7.66517 15,8.98382 2.75,1.31864 7.25,3.83078 10,5.58253 9.56852,6.09516 33.91139,17.65626 39.939,18.96814 7.69741,1.6753 9.5426,1.72912 13.38293,0.39037 z m -519.77745,5.03631 c -10.59153,-1.32855 -27.22919,-7.24329 -32.24373,-11.46275 -1.75341,-1.47539 -4.25992,-3.09007 -5.57004,-3.58817 -4.34587,-1.6523 -23.70964,-16.50102 -27.23071,-20.88133 -0.275,-0.34211 -2.3,-1.92627 -4.5,-3.52036 -2.2,-1.59409 -5.14336,-4.0453 -6.5408,-5.44714 -1.39744,-1.40183 -4.77244,-4.61738 -7.5,-7.14566 -7.8262,-7.2544 -8.15519,-7.80934 -11.50768,-19.41132 -2.9621,-10.25095 -3.14731,-11.80062 -2.74795,-22.99181 0.63165,-17.70092 2.7012,-20.83067 20.85047,-31.53186 5.2403,-3.0898 15.58749,-7.13443 24.44596,-9.55573 19.932,-5.44804 20.74312,-5.57767 32.49911,-5.19392 6.34519,0.20713 12.19666,0.78447 13.00326,1.28297 0.80659,0.49851 6.42353,3.44449 12.48208,6.54664 6.05855,3.10214 12.81555,6.82147 15.01555,8.26516 6.2212,4.0825 17.47835,13.09573 17.48975,14.00346 0.006,0.4492 1.12339,2.27612 2.48388,4.05983 3.26632,4.28236 8.52637,14.19658 8.52637,16.07063 0,0.81673 0.63396,2.96273 1.40879,4.76889 3.8149,8.89264 4.8638,14.74998 5.60213,31.28393 0.41753,9.35 1.32172,20.375 2.00931,24.5 1.41317,8.47784 0.57281,13.36482 -3.2681,19.00513 -2.72631,4.00354 -3.65579,4.53033 -16.64893,9.43608 -5.36696,2.02637 -27.06863,2.88587 -38.05872,1.50733 z M 271.5,239.08542 c 11.01459,-3.38623 13.73343,-5.06702 16.31403,-10.08542 1.97795,-3.84646 2.22762,-5.44401 1.71909,-11 -0.32721,-3.575 -0.99043,-14.825 -1.47382,-25 -0.48339,-10.175 -1.33215,-20.075 -1.88613,-22 -1.64157,-5.70423 -2.87758,-9.27433 -4.58732,-13.25 -0.88698,-2.0625 -1.37732,-3.75 -1.08965,-3.75 0.76396,0 -4.4452,-9.72324 -8.1921,-15.29111 -5.51679,-8.19791 -18.60725,-17.51701 -37.35637,-26.59398 -9.54509,-4.62105 -11.41481,-5.16987 -19.58916,-5.75011 -5.85006,-0.41524 -10.945,-0.20653 -14.44773,0.59186 -17.76397,4.04902 -36.22944,10.69673 -43.79326,15.76592 -3.51033,2.35258 -6.68455,4.27742 -7.05383,4.27742 -1.39066,0 -6.80352,6.6365 -8.15618,10 -0.9256,2.30154 -1.40757,7.4378 -1.40757,15 0,10.19455 0.36421,12.63771 3.20837,21.52229 l 3.20836,10.02229 11.67273,9.97771 c 6.42,5.48774 12.42309,10.65271 13.34019,11.47771 13.03104,11.72228 20.03473,17.2548 24.57035,19.40917 1.65,0.78373 4.90763,2.81158 7.23917,4.50633 5.62437,4.08823 20.05767,9.59923 28.76083,10.98162 3.85,0.61153 8.125,1.30313 9.5,1.53691 6.15159,1.04588 22.75933,-0.27633 29.5,-2.34861 z M 533,212.5 c 0,-1.07246 1.09259,-1.5 3.83333,-1.5 2.10834,0 4.10072,-0.26738 4.42752,-0.59419 0.32681,-0.3268 -0.94819,-1.94842 -2.83333,-3.60359 C 536.54238,205.14705 535,203.19709 535,202.46899 535,200.2156 540.07703,197 543.63486,197 c 2.92282,0 3.36514,0.32861 3.36514,2.5 0,1.55556 -0.56667,2.5 -1.5,2.5 -0.825,0 -1.5,-0.45 -1.5,-1 0,-1.48382 -2.58,-1.21099 -3.92993,0.41557 -0.94542,1.13916 -0.48116,1.96905 2.37752,4.25 6.0312,4.8123 3.96813,8.33443 -4.88185,8.33443 C 534.17397,214 533,213.61431 533,212.5 Z M 72.156396,210.42642 c 0.231348,-1.20129 1.792175,-2.19379 4.528755,-2.87974 C 81.271466,206.39709 83.373351,205 80.51658,205 c -0.999215,0 -4.186,-1.19966 -7.081745,-2.66591 -5.810008,-2.94188 -8.078801,-6.26231 -6.40979,-9.38089 C 69.172282,188.94105 79,186.10705 79,189.5 c 0,0.91479 -0.932135,1.5 -2.389216,1.5 -1.314069,0 -3.451569,0.9017 -4.75,2.00377 L 69.5,195.00754 l 2.9878,2.47341 c 2.899938,2.40067 4.744427,3.26402 11.0122,5.15446 4.595933,1.38619 4.457951,4.48131 -0.291421,6.53694 -2.125104,0.91979 -5.560634,1.99067 -7.634511,2.37973 -3.313266,0.62158 -3.727861,0.48502 -3.417672,-1.12566 z M 523,209.4221 c 0,-1.74738 -0.91382,-3.03511 -2.99368,-4.21861 C 516.56766,203.24679 515.93975,200 519,200 c 1.1,0 2,0.43417 2,0.96482 0,0.53065 0.94578,1.47098 2.10173,2.08962 1.77798,0.95155 2.5492,0.69611 5.00659,-1.65822 2.23221,-2.13859 3.17814,-2.50976 4.08503,-1.60287 0.90688,0.90688 0.6738,1.71916 -1.00659,3.50786 C 528.61789,206.03564 528.43884,207 530.5,207 c 0.85872,0 1.5,0.90078 1.5,2.10699 0,1.47598 -0.44922,1.92521 -1.5,1.5 -0.825,-0.33385 -2.175,-0.88013 -3,-1.21398 -0.825,-0.33384 -1.5,-0.15699 -1.5,0.39301 0,0.55 -0.675,1.25902 -1.5,1.57561 -1.08831,0.41762 -1.5,-0.1147 -1.5,-1.93953 z M 35,200.5 c 0,-0.275 0.225,-0.5 0.5,-0.5 0.275,0 0.5,0.225 0.5,0.5 0,0.275 -0.225,0.5 -0.5,0.5 -0.275,0 -0.5,-0.225 -0.5,-0.5 z m 1,-3 c 0,-0.275 0.225,-0.5 0.5,-0.5 0.275,0 0.5,0.225 0.5,0.5 0,0.275 -0.225,0.5 -0.5,0.5 -0.275,0 -0.5,-0.225 -0.5,-0.5 z m -1,-16 c 0,-0.275 0.225,-0.5 0.5,-0.5 0.275,0 0.5,0.225 0.5,0.5 0,0.275 -0.225,0.5 -0.5,0.5 -0.275,0 -0.5,-0.225 -0.5,-0.5 z m 5.078947,-2.08333 c 0.04798,-1.16495 0.284941,-1.4019 0.604167,-0.60417 0.288871,0.72187 0.253344,1.58437 -0.07895,1.91667 -0.332292,0.33229 -0.568641,-0.25834 -0.52522,-1.3125 z M 35,177.5 c 0,-0.275 0.225,-0.5 0.5,-0.5 0.275,0 0.5,0.225 0.5,0.5 0,0.275 -0.225,0.5 -0.5,0.5 -0.275,0 -0.5,-0.225 -0.5,-0.5 z m 751.5,-8.95184 c -8.50515,-2.53161 -17.36817,-6.91241 -22.27699,-11.01105 -2.04766,-1.70969 -5.07301,-3.96398 -6.72301,-5.00953 -1.65,-1.04556 -5.72295,-4.21088 -9.051,-7.03405 -3.32805,-2.82318 -9.17805,-6.65593 -13,-8.51721 -11.91804,-5.80409 -17.75865,-10.6167 -26.1057,-21.51085 -9.39984,-12.26821 -11.62024,-26.022542 -5.11992,-31.71547 1.67539,-1.467298 4.0229,-1.75 14.53172,-1.75 10.94472,0 13.97132,0.395636 23.87582,3.121035 7.14943,1.967294 14.0772,4.679591 18.74062,7.337154 4.06908,2.318865 9.93472,5.245567 13.03476,6.503781 3.99696,1.62225 7.66632,4.31755 12.61507,9.26629 3.83825,3.83825 6.97863,7.31209 6.97863,7.71965 0,0.40756 1.13336,2.0485 2.51858,3.64655 1.38522,1.59805 3.55909,4.48054 4.83082,6.40554 1.27174,1.925 4.68216,7.09444 7.57872,11.48765 l 5.26648,7.98766 -0.38022,7.01234 c -0.30928,5.70398 -0.92439,7.82409 -3.29675,11.36293 -1.60409,2.39282 -3.98107,4.75532 -5.28218,5.25 -3.20989,1.2204 -13.8317,0.90721 -18.73545,-0.55242 z m 16.18264,-2.16083 c 3.43391,-0.92094 7.62699,-8.12649 8.08139,-13.88733 0.37103,-4.704 0.032,-5.56241 -5.72681,-14.5 -9.05411,-14.05185 -18.7148,-26.34834 -24.56813,-31.27126 C 775.53794,102.58142 766.24324,99 760.41102,99 757.25754,99 756,98.593269 756,97.573324 c 0,-0.784672 0.7875,-1.57838 1.75,-1.763796 3.36673,-0.648569 -4.94772,-4.545005 -15.25,-7.146671 -11.81649,-2.984056 -33.23239,-4.310238 -36.07213,-2.233772 -2.82248,2.06385 -3.08076,10.625733 -0.50141,16.621595 5.1363,11.93967 16.38219,23.32386 29.97628,30.34492 4.908,2.53489 12.50292,7.53288 16.87759,11.10664 4.37468,3.57377 8.37955,6.49776 8.89972,6.49776 0.52017,0 2.21729,1.32718 3.77136,2.94929 3.21355,3.35421 15.39506,9.66184 22.36947,11.58298 5.11345,1.40853 11.44066,1.77256 14.86176,0.85506 z m -493.28053,1.67933 c -8.86909,-1.41121 -12.54009,-3.16116 -17.92251,-8.54359 -3.61831,-3.61831 -5.90155,-7.03732 -7.42834,-11.12353 -2.54537,-6.81225 -5.36563,-11.80481 -8.75807,-15.504 -2.67554,-2.91745 -4.47291,-5.9102 -10.29982,-17.14985 -5.03348,-9.70919 -6.68572,-14.55358 -7.95216,-23.315859 -2.276,-15.747204 -0.53499,-24.29277 6.0936,-29.909872 8.48097,-7.186813 33.3689,-14.989649 51.85172,-16.256489 6.38271,-0.437481 8.23838,-0.189379 11.66728,1.559915 2.24257,1.144076 6.16288,2.605266 8.7118,3.247091 4.15571,1.046421 5.65578,2.574798 4.07683,4.153755 -0.67248,0.672476 -10.88643,-2.410479 -14.58509,-4.402329 -2.07748,-1.11879 -4.5916,-1.252166 -11.75558,-0.623643 -20.49884,1.798438 -40.29374,8.170154 -48.2502,15.531098 -3.91852,3.625235 -6.18983,10.407714 -5.56203,16.60911 1.78602,17.642443 7.8848,34.041203 16.60985,44.661533 4.81373,5.85938 8.50564,12.32089 11.20875,19.6173 1.57862,4.26112 3.58691,7.19803 7.28561,10.6544 7.0199,6.55999 12.61194,8.15996 28.10625,8.04164 11.99371,-0.0916 18.8477,-1.32086 35,-6.27731 13.48459,-4.13785 22.55275,-11.59583 27.65329,-22.74307 2.84339,-6.21424 3.15049,-7.91376 3.60471,-19.94881 l 0.49651,-13.15585 -3.18536,-5.567432 C 382.62915,91.608373 374.68888,84.026454 369.02582,81.34672 367.08662,80.429099 364.375,78.920486 363,77.994246 c -1.375,-0.92624 -5.425,-3.389779 -9,-5.474531 -8.36812,-4.879849 -13.38547,-9.954915 -11.43886,-11.570454 1.07794,-0.894615 1.9779,-0.504458 4.15731,1.802319 2.98706,3.161617 9.61955,7.812014 15.28155,10.71472 1.925,0.986878 5.075,2.602902 7,3.591163 6.72733,3.453694 15.38094,11.412242 19.40322,17.84474 3.72869,5.962997 4.02309,6.981787 4.4207,15.298207 0.70071,14.65581 -2.61496,26.818 -9.91531,36.37039 -6.4973,8.5016 -14.76427,13.07412 -32.35301,17.89466 -13.45152,3.68665 -30.97781,5.22032 -41.15349,3.6012 z M 555,157.54772 c 0,-1.08095 1.59808,-1.53344 6.25,-1.76968 l 6.25,-0.3174 -5.26609,-2.37033 c -6.23425,-2.80611 -7.76194,-6.00672 -4.4486,-9.32006 3.55858,-3.55859 15.9451,-3.37913 13.73371,0.19897 -0.43947,0.71109 -1.74348,0.94028 -3.2288,0.56748 -2.66879,-0.66982 -9.29022,1.07394 -9.29022,2.4466 0,0.4555 2.925,2.19696 6.5,3.8699 4.73041,2.21363 6.5,3.57139 6.5,4.98727 C 572,158.42572 570.16751,159 561.91821,159 556.53638,159 555,158.67748 555,157.54772 Z m 286.5,-14.43124 c -7.08556,-2.63386 -26.32515,-15.3039 -34.48765,-22.71151 C 799.96958,114.01353 772.65187,92.779407 767.89635,90 759.21129,84.923934 751.27893,79.28644 742.83022,72.185622 c -8.5956,-7.224279 -11.51091,-11.500534 -9.7434,-14.291862 0.48541,-0.766568 0.88945,-2.620886 0.89787,-4.120707 0.0195,-3.466351 2.98148,-5.456999 11.79748,-7.928607 11.12205,-3.118116 18.31468,-4.036074 26.21783,-3.346042 18.80723,1.64208 44.20483,11.41453 60.31589,23.20826 18.26827,13.372862 22.46544,18.814077 33.78075,43.793336 2.17425,4.79978 3.88253,12.4017 3.89254,17.32193 0.0113,5.55455 -2.8208,11.90574 -6.9924,15.68098 -2.97392,2.69137 -14.98486,3.03419 -21.49678,0.61357 z m 16.89406,-2.0762 c 1.38834,-0.52785 3.71606,-2.76066 5.17271,-4.96182 2.41429,-3.64822 2.61368,-4.69074 2.25502,-11.79028 -0.21905,-4.33597 -1.12298,-9.3396 -2.03927,-11.28818 -0.90521,-1.925 -3.00102,-6.74955 -4.65737,-10.72122 C 854.00551,90.00265 844.48125,78.112528 835,72.160835 c -1.375,-0.863133 -4.10667,-2.978222 -6.07037,-4.700198 -3.26271,-2.861074 -21.4898,-12.394322 -26.55567,-13.889308 -1.59662,-0.47118 -2.25809,-0.122405 -2.65638,1.400628 C 799.38659,56.237674 798.35642,57 796.97699,57 c -1.72774,0 -2.09453,-0.442509 -1.68018,-2.027015 0.42593,-1.628751 -0.38618,-2.485999 -4.13337,-4.363076 -11.53288,-5.777173 -28.1727,-6.603091 -42.66344,-2.117603 -4.95,1.532231 -9.56194,3.301295 -10.24875,3.931251 -0.68682,0.629957 -1.32618,3.121436 -1.42082,5.536619 -0.19138,4.884021 -0.94386,4.027848 14.66957,16.690979 6.93768,5.626743 18.79994,13.452487 23.5,15.503375 0.825,0.359991 3.78585,2.609991 6.57966,5 2.79382,2.390008 7.70323,6.37047 10.9098,8.84547 3.20657,2.475 9.02072,7.22832 12.92033,10.56294 24.92688,21.31533 42.91647,30.30511 52.98427,26.47734 z M 148.97303,91.340552 c -1.64102,-3.762303 -3.61016,-8.034168 -4.37587,-9.493031 -0.97066,-1.849339 -1.07487,-2.969808 -0.34418,-3.700497 0.73069,-0.730689 2.41488,0.299543 5.56228,3.40248 C 152.2981,83.997277 154.66268,86 155.06987,86 c 0.40719,0 1.34555,-1.9125 2.08524,-4.25 2.02359,-6.394746 4.58518,-6.212541 9.99234,0.710753 2.3939,3.065138 4.35255,6.090389 4.35255,6.722779 0,2.808152 -2.52776,1.49798 -6.06905,-3.145676 C 161.29529,80.614823 160,79.879068 160,82.952947 160,86.741437 157.7955,90 155.2325,90 c -1.94604,0 -2.29466,0.357968 -1.70431,1.75 1.20088,2.831613 1.06656,5.514667 -0.29985,5.989343 -0.79384,0.275773 -2.39274,-2.128522 -4.25531,-6.398791 z M 584.22375,80.275407 c -4.12392,-11.045879 -4.03923,-10.587326 -2.03662,-11.027234 1.25059,-0.274713 2.15226,0.938984 3.48472,4.69061 C 586.66052,76.722452 587.78916,79 588.17993,79 c 0.39077,0 0.84764,-2.1375 1.01528,-4.75 0.28045,-4.370635 0.49922,-4.728365 2.73926,-4.479105 1.66428,0.185193 3.32722,-0.70655 5.25639,-2.818714 1.82657,-1.999838 3.57727,-2.977191 4.9634,-2.770895 2.47211,0.36792 2.85618,0.990811 6.16849,10.004018 1.99363,5.424909 2.19518,6.785707 1.06902,7.217852 -1.56532,0.600672 -3.83838,-2.541642 -4.78079,-6.609053 -0.34482,-1.488243 -1.08231,-3.9036 -1.63887,-5.367459 l -1.01192,-2.661563 -4.61226,4.867459 c -4.143,4.372232 -4.67512,5.477916 -5.2301,10.86746 -0.51413,4.992947 -0.95351,6.046225 -2.61783,6.275407 -1.67126,0.230139 -2.53852,-1.167001 -5.27625,-8.5 z m 115.57534,-3.809646 c -0.29383,-0.293831 -3.35388,-0.988329 -6.80011,-1.543328 -7.75907,-1.249562 -11.83299,-3.280075 -12.42055,-6.190622 -0.2478,-1.227496 -0.69014,-5.29875 -0.98297,-9.047232 -0.51557,-6.599642 -0.46219,-6.805435 1.68606,-6.5 2.05833,0.292652 2.2194,0.841983 2.23123,7.609776 0.009,5.352035 0.40877,7.547866 1.5,8.246413 1.92067,1.22951 7.94952,2.946486 10.37123,2.953655 3.5502,0.01051 9.61602,2.321689 9.61602,3.663865 0,1.284419 -4.0891,1.919278 -5.20091,0.807473 z M 882,65.911331 c -5.78604,-1.118038 -8.81281,-2.746195 -9.57612,-5.151162 C 871.53029,57.944716 874.12036,46 875.62444,46 c 2.25265,0 2.49331,1.864384 0.92317,7.15163 -1.40599,4.734481 -1.39979,5.354233 0.0699,6.978157 0.88708,0.980214 3.69855,2.084527 6.24771,2.454029 5.18009,0.750858 8.13483,2.004466 8.13483,3.451368 0,1.126468 -2.72333,1.088992 -9,-0.123853 z M 857,58 c -5.28431,-4.627076 -6.64362,-4.876279 -8.18195,-1.5 -0.6265,1.375 -1.96685,2.5 -2.97857,2.5 -2.36604,0 -2.32419,-1.114069 0.16052,-4.272871 1.1,-1.398423 2,-2.729679 2,-2.958346 0,-0.228668 -3.15,-2.568058 -7,-5.198647 -3.85,-2.630588 -7,-5.410018 -7,-6.176512 0,-2.212153 1.25397,-1.712547 9.11151,3.630196 7.32072,4.977739 7.40382,5.005134 9.05962,2.986621 0.91912,-1.12046 1.87537,-2.593679 2.125,-3.27382 0.35571,-0.969166 0.74982,-0.956891 1.82225,0.05676 1.15515,1.091839 1.10266,1.756362 -0.33685,4.264569 l -1.70523,2.971191 4.46185,4.112791 c 3.99477,3.682254 5.749,6.909285 3.71185,6.828229 C 861.8375,61.953745 859.475,60.167174 857,58 Z M 271,36 c 0,-0.733333 0.3,-1.033333 0.66667,-0.666667 0.36666,0.366667 0.36666,0.966667 0,1.333334 C 271.3,37.033333 271,36.733333 271,36 Z m 8,0.5 c 0,-0.275 0.225,-0.5 0.5,-0.5 0.275,0 0.5,0.225 0.5,0.5 0,0.275 -0.225,0.5 -0.5,0.5 -0.275,0 -0.5,-0.225 -0.5,-0.5 z m 0,-2 c 0,-0.275 0.225,-0.5 0.5,-0.5 0.275,0 0.5,0.225 0.5,0.5 0,0.275 -0.225,0.5 -0.5,0.5 -0.275,0 -0.5,-0.225 -0.5,-0.5 z m -119.67186,-7 c 0.004,-3.85 0.18518,-5.302463 0.40166,-3.227696 0.21647,2.074768 0.21284,5.224768 -0.008,7 -0.22098,1.775233 -0.3981,0.0777 -0.39366,-3.772304 z m 33.92404,3 c 0.0111,-2.2 0.21589,-2.982253 0.45508,-1.738341 0.23919,1.243913 0.23011,3.043913 -0.0202,4 -0.25029,0.956088 -0.446,-0.06166 -0.4349,-2.261659 z m 114.33671,0.423275 C 305.81815,28.818869 305,26.669905 305,24.123275 c 0,-2.047801 -0.49169,-4.214963 -1.09264,-4.815916 -1.54367,-1.543673 0.7237,-5.523761 2.91011,-5.108323 1.2936,0.245796 1.74245,1.588891 1.94176,5.81033 C 309.24298,30.255438 309.01901,30 317.51905,30 c 8.09298,0 9.71891,1.284478 3.73095,2.947419 -6.98495,1.939817 -10.80148,1.374327 -13.66111,-2.024144 z M 232,32.5 c 0,-0.275 0.225,-0.5 0.5,-0.5 0.275,0 0.5,0.225 0.5,0.5 0,0.275 -0.225,0.5 -0.5,0.5 -0.275,0 -0.5,-0.225 -0.5,-0.5 z m -17.74782,-4 c 0.0111,-2.2 0.21589,-2.982253 0.45508,-1.738341 0.23919,1.243913 0.23011,3.043913 -0.0202,4 C 214.43679,31.717747 214.24108,30.7 214.25218,28.5 Z M 232,30.5 c 0,-0.275 0.225,-0.5 0.5,-0.5 0.275,0 0.5,0.225 0.5,0.5 0,0.275 -0.225,0.5 -0.5,0.5 -0.275,0 -0.5,-0.225 -0.5,-0.5 z m 46,-4 c 0,-0.275 0.225,-0.5 0.5,-0.5 0.275,0 0.5,0.225 0.5,0.5 0,0.275 -0.225,0.5 -0.5,0.5 -0.275,0 -0.5,-0.225 -0.5,-0.5 z m -72,-1 c 0,-0.275 0.225,-0.5 0.5,-0.5 0.275,0 0.5,0.225 0.5,0.5 0,0.275 -0.225,0.5 -0.5,0.5 -0.275,0 -0.5,-0.225 -0.5,-0.5 z m 8,-3 c 0,-0.275 0.225,-0.5 0.5,-0.5 0.275,0 0.5,0.225 0.5,0.5 0,0.275 -0.225,0.5 -0.5,0.5 -0.275,0 -0.5,-0.225 -0.5,-0.5 z m -50,-3 c 0,-0.275 0.225,-0.5 0.5,-0.5 0.275,0 0.5,0.225 0.5,0.5 0,0.275 -0.225,0.5 -0.5,0.5 -0.275,0 -0.5,-0.225 -0.5,-0.5 z"
       id="path10639"
       sodipodi:nodetypes="ssssssssssssssssssssssssssssssssssssssssssssssssssssssssssssssssssssssssssssssssssssssssscsssssssssssssssssssssssssssssssssssssssssssssscsssssssssssscssssssssssssssssssssssssssssssssssscsssssssssssssssssssssssscscsssssssssssssssssssssssssscssssssssssssssssssssssssssssssssssssssssssssssssssssssssssssscsssssssssssssssssssssssssssssssssssssssssscssssssssssssssscssssssssssssssssssssssssssssssssssssssssssssssssssssssssssssssssssssscssssssssscssssssssssssssssssssssssscssssssssssssssssscsccsssssssssssssssssssssssssssssssssssssssssssssss" />
    <path
       style="fill:#808080;fill-opacity:1"
       d="m 143.24298,306.84298 c -2.89869,-2.89869 -0.30655,-7.27343 3.95198,-6.66974 1.90542,0.27011 2.30504,0.93354 2.30504,3.82676 0,2.99137 -0.36433,3.54258 -2.50702,3.79298 -1.37887,0.16113 -3.06637,-0.26637 -3.75,-0.95 z m -45.834429,-1.2207 c -0.875456,-2.2814 -0.109463,-4.78139 1.841449,-6.00998 2.56521,-1.61545 5.25,0.42841 5.25,3.99669 0,2.53199 -0.40445,2.92999 -3.25688,3.20488 -2.196121,0.21165 -3.445024,-0.17645 -3.834569,-1.19159 z M 597.2,297.8 c -2.53712,-2.53712 -0.40307,-7.8 3.16283,-7.8 1.04474,0 3.63717,3.20742 3.63717,4.5 0,1.69252 -2.72727,4.5 -4.37143,4.5 -0.67571,0 -1.76857,-0.54 -2.42857,-1.2 z m -45.67852,-1.42138 c -2.01951,-2.01951 -1.64193,-4.22845 1.0249,-5.99591 1.74375,-1.15569 2.37226,-1.128 4.25,0.18722 2.59887,1.82032 2.80064,3.69019 0.63219,5.85864 -2.0084,2.0084 -3.86444,1.99271 -5.90709,-0.0499 z M 169.63214,267.8852 c -1.72806,-2.46716 -1.19194,-4.51524 1.5687,-5.99268 1.51824,-0.81255 2.40174,-0.65717 3.88235,0.68276 2.32789,2.10672 2.42618,3.77249 0.34538,5.85329 -2.14809,2.14809 -4.03516,1.97119 -5.79643,-0.54337 z M 83.2,267.8 c -1.834835,-1.83484 -1.428909,-5.60712 0.727558,-6.76123 2.607145,-1.3953 4.962225,-0.32609 5.692741,2.58452 1.055326,4.20475 -3.456863,7.14015 -6.420299,4.17671 z m 54,-1 c -2.85993,-2.85993 -0.22818,-7.22544 3.99496,-6.62676 1.70163,0.24122 2.39145,1.08369 2.63512,3.21825 0.46684,4.08964 -3.77053,6.26806 -6.63008,3.40851 z m 399.7296,-8.65593 c -2.08461,-1.68801 -2.21955,-2.21228 -1.16508,-4.5266 1.36177,-2.98875 4.28731,-3.42278 6.714,-0.99609 2.03347,2.03347 1.63854,4.23068 -1.08488,6.03574 -1.85277,1.228 -2.39023,1.16623 -4.46404,-0.51305 z m 86.15223,0.45453 c -1.57786,-1.90121 -1.08,-4.57053 1.10963,-5.94938 2.21395,-1.39416 6.02179,1.86523 5.60256,4.79561 -0.36435,2.5468 -4.9079,3.3278 -6.71219,1.15377 z m -32.5119,-1.80222 c -1.31522,-1.87774 -1.34291,-2.50625 -0.18722,-4.25 1.76746,-2.66683 3.9764,-3.04441 5.99591,-1.0249 2.04266,2.04265 2.05835,3.89869 0.05,5.90709 -2.16845,2.16845 -4.03832,1.96668 -5.85864,-0.63219 z m -396.97377,-6.10241 c -2.15248,-1.57393 -1.81779,-5.53745 0.5953,-7.0498 1.29267,-0.81015 2.17682,-0.62086 3.75,0.80286 2.58745,2.3416 2.6414,5.17067 0.12428,6.51779 -2.41684,1.29345 -2.32245,1.29917 -4.46958,-0.27085 z M 179.2,240.8 c -3.39429,-3.39429 0.59738,-9.04917 4.8,-6.8 3.52965,1.88901 2.00191,8 -2,8 -0.88,0 -2.14,-0.54 -2.8,-1.2 z M 646,240 c -2.359,-4.40784 3.81542,-8.33719 7.02458,-4.47039 0.97068,1.16961 1.00455,2.11105 0.14388,4 C 651.76024,242.62031 647.5502,242.89657 646,240 Z m -523.33333,0.33333 C 122.3,239.96667 122,238.40024 122,236.85239 c 0,-2.17179 0.57371,-2.95828 2.51299,-3.44501 4.30942,-1.08159 7.30072,3.37891 4.28701,6.39262 -1.29351,1.29351 -5.04679,1.61988 -6.13333,0.53333 z m 453.85481,-9.95471 c -2.34319,-2.34318 -1.48603,-4.82322 1.79754,-5.20088 3.40211,-0.39128 5.78435,1.36505 4.94448,3.64537 -1.25605,3.41028 -4.20652,4.09101 -6.74202,1.55551 z m 55.45394,0.0918 C 630.01623,228.10971 632.25489,224 635.5,224 c 3.24511,0 5.48377,4.10971 3.52458,6.47039 C 638.32637,231.31167 636.74031,232 635.5,232 c -1.24031,0 -2.82637,-0.68833 -3.52458,-1.52961 z m -411.35404,-0.99187 c -2.42669,-2.42669 -1.99266,-5.35223 0.99609,-6.714 2.31432,-1.05447 2.83859,-0.91953 4.5266,1.16508 1.67928,2.07381 1.74105,2.61127 0.51305,4.46404 -1.80506,2.72342 -4.00227,3.11835 -6.03574,1.08488 z m 37.97478,0.21545 c -2.17427,-1.58987 -1.80959,-5.54249 0.65384,-7.08673 3.9175,-2.45574 7.90361,4.34484 4.15384,7.08673 C 262.42149,230.41229 261.33976,231 261,231 c -0.33976,0 -1.42149,-0.58771 -2.40384,-1.30603 z m -108.02623,-1.89759 c -1.31522,-1.87774 -1.34291,-2.50625 -0.18722,-4.25 1.76746,-2.66683 3.9764,-3.04441 5.99591,-1.0249 2.04266,2.04265 2.05835,3.89869 0.0499,5.90709 -2.16845,2.16845 -4.03832,1.96668 -5.85864,-0.63219 z m 37.58113,-8.85074 c -4.0501,-2.46301 -3.63433,-4.44567 0.93227,-4.44567 2.83158,0 3.47398,0.40505 3.75133,2.36534 0.51116,3.61271 -1.03472,4.29935 -4.6836,2.08033 z m 485.47359,0.53612 c -1.96494,-1.96494 -2.00501,-2.57935 -0.31862,-4.88563 2.74189,-3.74977 9.54247,0.23634 7.08673,4.15384 -1.48045,2.36167 -4.78133,2.71857 -6.76811,0.73179 z M 711,219 c -2.359,-4.40784 3.81542,-8.33719 7.02458,-4.47039 0.97068,1.16961 1.00455,2.11105 0.14388,4 C 716.76024,221.62031 712.5502,221.89657 711,219 Z m -106.91817,-0.4014 c -1.59261,-1.91898 -1.07452,-4.57396 1.16817,-5.9863 2.56521,-1.61545 5.25,0.42841 5.25,3.99669 0,2.3651 -0.47035,2.94568 -2.5856,3.19157 -1.42207,0.1653 -3.14673,-0.37558 -3.83257,-1.20196 z m 35.48302,-7.52694 c -2.05332,-2.2689 -1.35037,-5.68757 1.34543,-6.54318 4.45355,-1.41351 7.60344,3.1414 4.52487,6.54318 C 644.47533,212.13225 643.15451,213 642.5,213 c -0.65451,0 -1.97533,-0.86775 -2.93515,-1.92834 z m -402.99342,-0.64309 c -2.0808,-2.0808 -1.98251,-3.74657 0.34538,-5.85329 1.48061,-1.33993 2.36411,-1.49531 3.88235,-0.68276 1.63166,0.87323 3.20084,3.13709 3.20084,4.61784 0,0.92681 -3.30485,3.48964 -4.5,3.48964 -0.74643,0 -2.06429,-0.70714 -2.92857,-1.57143 z m 452.51131,-10.27396 c -0.71087,-1.32828 -0.56472,-2.44917 0.52152,-4 2.90489,-4.14731 8.2285,-1.60873 6.98836,3.3324 -0.49508,1.97252 -1.26427,2.51299 -3.57649,2.51299 -1.84004,0 -3.31648,-0.69269 -3.93339,-1.84539 z m -526.54577,-3.11602 c -2.10551,-2.19768 -2.61951,-3.35605 -1.8366,-4.13896 1.53928,-1.53928 4.32287,-0.75843 5.92756,1.66278 1.11004,1.67484 1.1288,2.38802 0.0999,3.79518 -1.16838,1.59785 -1.49469,1.49515 -4.19082,-1.319 z m 66.96572,-2.41297 c -2.08525,-1.52476 -1.66104,-5.50867 0.74731,-7.01838 2.52395,-1.58217 5.25,0.43625 5.25,3.88719 0,3.33315 -3.33785,5.07584 -5.99731,3.13119 z m 31.58304,-4.02232 c -0.68159,-0.82127 -1.09221,-2.53048 -0.91249,-3.79826 0.25514,-1.79983 0.9604,-2.30504 3.21777,-2.30504 3.5645,0 5.61031,2.68396 4.00175,5.25 -1.43573,2.29033 -4.74305,2.73778 -6.30703,0.8533 z m 352.4857,-1.17473 c -2.07019,-2.07019 -1.98391,-3.01609 0.50187,-5.50187 1.86547,-1.86547 2.2915,-1.92867 4.25,-0.63052 2.61616,1.73407 3.28047,4.27139 1.63683,6.25186 -1.5773,1.90052 -4.4219,1.84733 -6.3887,-0.11947 z M 682.2,184.8 c -2.68981,-2.68981 -0.59553,-6.8 3.46482,-6.8 2.96329,0 4.78874,3.284 3.33518,6 -1.18683,2.21761 -4.94075,2.65925 -6.8,0.8 z m 32.76583,-3.62662 c -1.60067,-1.29614 -2.03072,-2.3936 -1.54171,-3.93433 1.00161,-3.1558 4.39487,-3.86454 6.83236,-1.42705 3.76597,3.76598 -1.13169,8.72911 -5.29065,5.36138 z M 169.2,172.8 c -3.39429,-3.39429 0.59738,-9.04917 4.8,-6.8 2.57909,1.38029 2.6189,5.5984 0.0657,6.96482 -2.49429,1.3349 -3.39658,1.30434 -4.86574,-0.16482 z m 31.46667,-0.46667 c -1.08655,-1.08654 -0.76018,-4.83982 0.53333,-6.13333 3.01371,-3.01371 7.47421,-0.0224 6.39262,4.28701 -0.48673,1.93928 -1.27322,2.51299 -3.44501,2.51299 -1.54785,0 -3.11428,-0.3 -3.48094,-0.66667 z M 227.75,168.9199 c -4.36305,-2.54124 -0.20837,-9.30595 4.25,-6.9199 2.57909,1.38029 2.6189,5.5984 0.0657,6.96482 -2.30203,1.23201 -2.12014,1.2339 -4.31574,-0.0449 z m 394.22542,-6.44951 c -0.97068,-1.16961 -1.00455,-2.11105 -0.14388,-4 1.40822,-3.0907 5.61826,-3.36696 7.16846,-0.47039 2.359,4.40784 -3.81542,8.33719 -7.02458,4.47039 z m 31.85612,-0.94078 c -0.86067,-1.88895 -0.8268,-2.83039 0.14388,-4 1.7755,-2.13934 5.75108,-1.90917 6.9894,0.40465 1.33879,2.50156 1.32284,2.63522 -0.53625,4.49431 -2.32973,2.32973 -5.31104,1.92348 -6.59703,-0.89896 z m -376.85612,-0.0592 C 275.46238,159.64729 277.11595,155 279.27767,155 c 1.11451,0 3.72233,5.12901 3.72233,7.321 0,1.32782 -4.77631,0.65346 -6.02458,-0.85061 z M 680,158 c -1.49591,-2.79513 0.3736,-6 3.5,-6 1.40618,0 2.88051,0.84248 3.5,2 1.49591,2.79513 -0.3736,6 -3.5,6 -1.40618,0 -2.88051,-0.84248 -3.5,-2 z m -366.8,-2.2 c -2.85993,-2.85993 -0.22818,-7.22544 3.99496,-6.62676 1.70163,0.24122 2.39145,1.08369 2.63512,3.21825 0.46684,4.08964 -3.77053,6.26806 -6.63008,3.40851 z m 418,-3 c -3.39429,-3.39429 0.59738,-9.04917 4.8,-6.8 3.52965,1.88901 2.00191,8 -2,8 -0.88,0 -2.14,-0.54 -2.8,-1.2 z m 35.36993,-7.00362 c -1.31522,-1.87774 -1.34291,-2.50625 -0.18722,-4.25 1.76746,-2.66683 3.9764,-3.04441 5.99591,-1.0249 2.04266,2.04265 2.05835,3.89869 0.05,5.90709 -2.16845,2.16845 -4.03832,1.96668 -5.85864,-0.63219 z M 241.75,144.9199 c -4.36305,-2.54124 -0.20837,-9.30595 4.25,-6.9199 2.57909,1.38029 2.6189,5.5984 0.0657,6.96482 -2.30203,1.23201 -2.12014,1.2339 -4.31574,-0.0449 z M 694.2,134.8 c -2.68981,-2.68981 -0.59553,-6.8 3.46482,-6.8 2.96329,0 4.78874,3.284 3.33518,6 -1.18683,2.21761 -4.94075,2.65925 -6.8,0.8 z m -421.22006,-2.32417 c -1.93237,-2.32837 -0.55355,-2.76715 1.51451,-0.48196 0.99854,1.10337 1.35088,2.00613 0.78298,2.00613 -0.5679,0 -1.60177,-0.68587 -2.29749,-1.52417 z M 174.75,131.9199 C 171.65644,130.11807 173.10762,124 176.62857,124 c 1.64416,0 4.37143,2.80748 4.37143,4.5 0,1.42059 -2.65166,4.52201 -3.82143,4.46959 -0.37321,-0.0167 -1.46607,-0.48908 -2.42857,-1.04969 z M 277,128.5 c -2.33821,-2.48891 -2.33914,-2.5 -0.2095,-2.5 1.8163,0 4.2095,2.52098 4.2095,4.43426 0,1.28091 -1.7949,0.41296 -4,-1.93426 z m -54.95432,-2.94496 c -0.65956,-0.79472 -1.05216,-2.48222 -0.87244,-3.75 C 221.44335,119.89962 222.10678,119.5 225,119.5 c 2.89322,0 3.55665,0.39962 3.82676,2.30504 C 229.21795,124.56456 227.42393,127 225,127 c -0.96531,0 -2.29475,-0.65023 -2.95432,-1.44496 z M 321.25,125.33772 c -1.99721,-0.80589 -1.51768,-6.12409 0.65714,-7.28802 1.45531,-0.77886 2.45368,-0.57811 4.21404,0.84734 2.034,1.64704 2.16582,2.17765 1.1143,4.48549 -1.12567,2.47057 -3.10549,3.11729 -5.98548,1.95519 z m 37.32143,-0.90915 C 357.70714,123.56429 357,122.24643 357,121.5 c 0,-1.29258 2.59243,-4.5 3.63717,-4.5 1.37736,0 4.20394,2.14357 4.76929,3.61684 0.70363,1.83362 -1.9273,5.38316 -3.99002,5.38316 -0.70047,0 -1.98073,-0.70714 -2.84501,-1.57143 z m 368.47425,-0.87353 c -0.65956,-0.79472 -1.05216,-2.48222 -0.87244,-3.75 C 726.44335,117.89962 727.10678,117.5 730,117.5 c 2.89322,0 3.55665,0.39962 3.82676,2.30504 C 734.21795,122.56456 732.42393,125 730,125 c -0.96531,0 -2.29475,-0.65023 -2.95432,-1.44496 z m -99.8027,-1.71206 c -2.89869,-2.89869 -0.30655,-7.27343 3.95198,-6.66974 1.90542,0.27011 2.30504,0.93354 2.30504,3.82676 0,2.99137 -0.36433,3.54258 -2.50702,3.79298 -1.37887,0.16113 -3.06637,-0.26637 -3.75,-0.95 z m -330.63872,-4.99759 c -1.61948,-2.31214 -0.65444,-5.7361 1.68092,-5.96387 5.13514,-0.50084 7.48237,3.20807 4.14339,6.54705 -2.15732,2.15732 -4.03658,1.96916 -5.82431,-0.58318 z m 379.36157,-0.67198 c -1.60067,-1.29614 -2.03072,-2.3936 -1.54171,-3.93433 1.23344,-3.88624 6.88386,-3.99479 8.10236,-0.15565 1.27296,4.01073 -3.20841,6.80446 -6.56065,4.08998 z m 97.44272,-1.55113 c -0.87545,-2.2814 -0.10946,-4.78139 1.84145,-6.00998 2.56521,-1.61545 5.25,0.42841 5.25,3.99669 0,2.53199 -0.40445,2.92999 -3.25688,3.20488 -2.19612,0.21165 -3.44502,-0.17645 -3.83457,-1.19159 z m 38.25812,0.71105 C 811.3,114.96667 811,113.40024 811,111.85239 c 0,-2.17179 0.57371,-2.95828 2.51299,-3.44501 4.30942,-1.08159 7.30072,3.37891 4.28701,6.39262 -1.29351,1.29351 -5.04679,1.61988 -6.13333,0.53333 z m -61.58484,-7.73473 c -1.59261,-1.91898 -1.07452,-4.57396 1.16817,-5.9863 2.56521,-1.615453 5.25,0.42841 5.25,3.99669 0,2.3651 -0.47035,2.94568 -2.5856,3.19157 -1.42207,0.1653 -3.14673,-0.37558 -3.83257,-1.20196 z m -414.04976,-2.53867 c -1.64592,-3.07543 0.35863,-6.269083 3.68433,-5.869862 3.34865,0.401977 5.17674,3.165722 3.67762,5.559932 -1.64396,2.62555 -6.02398,2.80994 -7.36195,0.30993 z m 453.97871,-8.546944 c -0.68015,-0.81953 -0.96446,-2.561395 -0.63339,-3.880508 C 790.49252,88.189471 797,88.801761 797,93.34969 c 0,4.223632 -4.44106,6.233641 -6.98922,3.163296 z m -461,-7 c -0.72092,-0.868647 -0.96549,-2.557309 -0.58814,-4.060799 0.55017,-2.192042 1.12293,-2.527688 3.86167,-2.262986 2.48174,0.239862 3.29027,0.836906 3.54245,2.615841 0.62396,4.401505 -4.10522,6.974214 -6.81598,3.707944 z M 361.2,85.8 c -2.33201,-2.332011 -0.68937,-6.8 2.5,-6.8 0.715,0 2.21031,0.910313 3.32292,2.022918 1.60672,1.606721 1.80522,2.429685 0.96481,4 C 366.81126,87.221174 363.05159,87.651593 361.2,85.8 Z m 422.55,-4.880099 c -2.41344,-1.405697 -2.3366,-6.598947 0.10912,-7.375188 4.4994,-1.428052 7.67547,3.102102 4.57603,6.526951 -1.98792,2.196616 -2.27949,2.249405 -4.68515,0.848237 z M 292.01078,76.512986 c -0.72092,-0.868647 -0.96549,-2.557309 -0.58814,-4.060799 0.55017,-2.192042 1.12293,-2.527688 3.86167,-2.262986 2.48174,0.239862 3.29027,0.836906 3.54245,2.615841 0.62396,4.401505 -4.10522,6.974214 -6.81598,3.707944 z m 522.61387,-0.0312 c -1.96494,-1.964939 -2.00501,-2.579351 -0.31862,-4.885628 2.74189,-3.749767 9.54247,0.236343 7.08673,4.15384 -1.48045,2.36167 -4.78133,2.718571 -6.76811,0.731788 z m -69.0598,-9.410124 c -2.05332,-2.268904 -1.35037,-5.687574 1.34543,-6.543186 4.45355,-1.413503 7.60344,3.141398 4.52487,6.543186 C 750.47533,68.132249 749.15451,69 748.5,69 c -0.65451,0 -1.97533,-0.867751 -2.93515,-1.928336 z"
       id="path10637"
       sodipodi:nodetypes="sssssssssssssssssssssssssssssssssssssssssssssssssssssssssssssssssssssssssssssssssssssssscsssccssssssssssssssssssssssssssssssssssssssssssssssssssssssssssssscssccssssscssccssssssssssssssssssssssssssssssssscssccsssssssssssssssssssssssssssssssssssssssssssssssssssssssssssssssssssssssssssssssssssssssssssssssssssssssss" />
    <g
       id="g10864">
      <path
         style="fill:#808080;fill-opacity:1"
         d="M 513,328.5 V 320 h -10 c -9.33333,0 -10,-0.13333 -10,-2 0,-1.85965 0.66667,-2 9.5,-2 H 512 V 190 c 0,-69.3 -0.34175,-126 -0.75945,-126 -0.4177,0 -1.32152,0.9 -2.00848,2 C 507.7555,68.364373 506,68.62772 506,66.484851 c 0,-2.261399 6.05894,-12.56646 7.03417,-11.963735 1.66071,1.026375 7.08616,11.475164 6.47329,12.466807 -0.9993,1.616912 -1.92085,1.200434 -3.84552,-1.737923 -1.7399,-2.656255 -1.78188,0.332192 -1.23162,87.66542 C 514.74364,202.64391 515,259.66664 515,279.63262 v 36.30177 l 158.75,0.007 c 108.78371,0.005 158.19919,-0.31518 157,-1.01689 C 828.80566,313.7869 828.36417,311 830.12827,311 831.66997,311 842,316.97147 842,317.86267 842,318.67987 831.29427,325 829.91002,325 c -1.59174,0 -0.97876,-2.86058 0.83998,-3.9199 1.19416,-0.69554 -48.67262,-1.02894 -157,-1.04969 L 515,320 v 8.5 c 0,5 -0.41176,8.5 -1,8.5 -0.58824,0 -1,-3.5 -1,-8.5 z"
         id="path10641"
         sodipodi:nodetypes="scssscsssssssssccsssssscsss" />
      <text
         xml:space="preserve"
         style="font-style:normal;font-variant:normal;font-weight:normal;font-stretch:normal;font-size:29.3333px;font-family:Calibri;-inkscape-font-specification:Calibri;text-orientation:sideways;fill:#808080;fill-opacity:1;stroke-linecap:round"
         x="583.14709"
         y="30.970247"
         id="text10697"><tspan
           sodipodi:role="line"
           id="tspan10695"
           x="583.14709"
           y="30.970247">T-shirt sizing</tspan></text>
      <text
         xml:space="preserve"
         style="font-style:normal;font-variant:normal;font-weight:normal;font-stretch:normal;font-size:29.3333px;font-family:Calibri;-inkscape-font-specification:Calibri;text-orientation:sideways;fill:#808080;fill-opacity:1;stroke-linecap:round"
         x="-234.3963"
         y="491.10489"
         id="text10697-1"
         transform="rotate(-90)"><tspan
           sodipodi:role="line"
           id="tspan10695-7"
           x="-234.3963"
           y="491.10489">Weight</tspan></text>
      <text
         xml:space="preserve"
         style="font-style:normal;font-variant:normal;font-weight:normal;font-stretch:normal;font-size:29.3333px;font-family:Calibri;-inkscape-font-specification:Calibri;text-orientation:sideways;fill:#808080;fill-opacity:1;stroke-linecap:round"
         x="654.22595"
         y="347.27933"
         id="text10697-9"><tspan
           sodipodi:role="line"
           id="tspan10695-0"
           x="654.22595"
           y="347.27933">Height</tspan></text>
    </g>
    <g
       id="g10855"
       transform="translate(8,-6.3247652)">
      <path
         style="fill:#808080;fill-opacity:1"
         d="m 52.06478,334.8248 v -8.5 h -10 c -9.33333,0 -10,-0.13333 -10,-2 0,-1.85965 0.66667,-2 9.5,-2 h 9.5 v -126 c 0,-69.3 -0.34175,-126.000003 -0.75945,-126.000003 -0.4177,0 -1.32152,0.9 -2.00848,2 -1.47657,2.36437 -3.23207,2.62772 -3.23207,0.48485 0,-2.2614 6.05894,-12.56646 7.03417,-11.96373 1.66071,1.02637 7.08616,11.47516 6.47329,12.4668 -0.9993,1.61691 -1.92085,1.20044 -3.84552,-1.73792 -1.7399,-2.65626 -1.78188,0.33219 -1.23162,87.665423 0.31332,49.72849 0.56968,106.75122 0.56968,126.7172 v 36.30177 l 158.75,0.007 c 108.78371,0.005 158.19919,-0.31518 157,-1.01689 -1.94434,-1.1376 -2.38583,-3.9245 -0.62173,-3.9245 1.5417,0 11.87173,5.97147 11.87173,6.86267 0,0.8172 -10.70573,7.13733 -12.08998,7.13733 -1.59174,0 -0.97876,-2.86058 0.83998,-3.9199 1.19416,-0.69554 -48.67262,-1.02894 -157,-1.04969 l -158.75,-0.0304 v 8.5 c 0,5 -0.41176,8.5 -1,8.5 -0.58824,0 -1,-3.5 -1,-8.5 z"
         id="path10641-4"
         sodipodi:nodetypes="scssscsssssssssccsssssscsss" />
      <text
         xml:space="preserve"
         style="font-style:normal;font-variant:normal;font-weight:normal;font-stretch:normal;font-size:29.3333px;font-family:Calibri;-inkscape-font-specification:Calibri;text-orientation:sideways;fill:#808080;fill-opacity:1;stroke-linecap:round"
         x="115.41355"
         y="41.071899"
         id="text10697-4"><tspan
           sodipodi:role="line"
           id="tspan10695-07"
           x="115.41355"
           y="41.071899">T-shirt sizing</tspan></text>
      <text
         xml:space="preserve"
         style="font-style:normal;font-variant:normal;font-weight:normal;font-stretch:normal;font-size:29.3333px;font-family:Calibri;-inkscape-font-specification:Calibri;text-orientation:sideways;fill:#808080;fill-opacity:1;stroke-linecap:round"
         x="-240.7211"
         y="30.16968"
         id="text10697-1-6"
         transform="rotate(-90)"><tspan
           sodipodi:role="line"
           id="tspan10695-7-0"
           x="-240.7211"
           y="30.16968">Weight</tspan></text>
      <text
         xml:space="preserve"
         style="font-style:normal;font-variant:normal;font-weight:normal;font-stretch:normal;font-size:29.3333px;font-family:Calibri;-inkscape-font-specification:Calibri;text-orientation:sideways;fill:#808080;fill-opacity:1;stroke-linecap:round"
         x="193.29074"
         y="353.60406"
         id="text10697-9-9"><tspan
           sodipodi:role="line"
           id="tspan10695-0-7"
           x="193.29074"
           y="353.60406">Height</tspan></text>
    </g>
  </g>
</svg>
